<?xml version="1.0" encoding="iso-8859-1"?>
<!-- Generator: Adobe Illustrator 19.0.0, SVG Export Plug-In . SVG Version: 6.00 Build 0)  -->
<svg version="1.1" id="Layer_1" xmlns="http://www.w3.org/2000/svg" xmlns:xlink="http://www.w3.org/1999/xlink" x="0px" y="0px"
	 viewBox="0 0 502 502" style="enable-background:new 0 0 502 502;" xml:space="preserve">
<g>
	<g>
		<path style="fill:#F77E65;" d="M134.236,278.089L134.236,278.089c0-14.445-11.71-26.155-26.155-26.155h-52.31
			c-14.445,0-26.155,11.71-26.155,26.155l0,0c0,14.445,11.71,26.155,26.155,26.155c-14.445,0-26.155,11.71-26.155,26.155l0,0
			c0,14.445,11.71,26.155,26.155,26.155c-14.445,0-26.155,11.71-26.155,26.155s11.71,26.155,26.155,26.155h52.31
			c14.445,0,26.155-11.71,26.155-26.155s-11.71-26.155-26.155-26.155c14.445,0,26.155-11.71,26.155-26.155l0,0
			c0-14.445-11.71-26.155-26.155-26.155C122.526,304.244,134.236,292.534,134.236,278.089z"/>
		<path style="fill:#F77E65;" d="M108.081,147.314h-52.31c-14.445,0-26.155-11.71-26.155-26.155l0,0
			c0-14.445,11.71-26.155,26.155-26.155h52.31c14.445,0,26.155,11.71,26.155,26.155l0,0
			C134.236,135.604,122.526,147.314,108.081,147.314z"/>
		<path style="fill:#F77E65;" d="M279.023,251.934c14.445,0,26.155-11.71,26.155-26.155s-11.71-26.155-26.155-26.155h-52.31
			c-14.445,0-26.155,11.71-26.155,26.155s11.71,26.155,26.155,26.155c-14.445,0-26.155,11.71-26.155,26.155l0,0
			c0,14.445,11.71,26.155,26.155,26.155c-14.445,0-26.155,11.71-26.155,26.155l0,0c0,14.445,11.71,26.155,26.155,26.155
			c-14.445,0-26.155,11.71-26.155,26.155s11.71,26.155,26.155,26.155h52.31c14.445,0,26.155-11.71,26.155-26.155
			s-11.71-26.155-26.155-26.155c14.445,0,26.155-11.71,26.155-26.155l0,0c0-14.445-11.71-26.155-26.155-26.155
			c14.445,0,26.155-11.71,26.155-26.155l0,0C305.178,263.644,293.468,251.934,279.023,251.934z"/>
		<path style="fill:#F77E65;" d="M446.229,408.864h-52.31c-14.445,0-26.155-11.71-26.155-26.155l0,0
			c0-14.445,11.71-26.155,26.155-26.155h52.31c14.445,0,26.155,11.71,26.155,26.155l0,0
			C472.384,397.154,460.674,408.864,446.229,408.864z"/>
		<path style="fill:#F77E65;" d="M472.384,121.159L472.384,121.159c0-14.445-11.71-26.155-26.155-26.155h-52.31
			c-14.445,0-26.155,11.71-26.155,26.155l0,0c0,14.445,11.71,26.155,26.155,26.155c-14.445,0-26.155,11.71-26.155,26.155l0,0
			c0,14.445,11.71,26.155,26.155,26.155c-14.445,0-26.155,11.71-26.155,26.155s11.71,26.155,26.155,26.155h52.31
			c14.445,0,26.155-11.71,26.155-26.155s-11.71-26.155-26.155-26.155c14.445,0,26.155-11.71,26.155-26.155l0,0
			c0-14.445-11.71-26.155-26.155-26.155C460.674,147.314,472.384,135.604,472.384,121.159z"/>
	</g>
	<rect x="25.413" y="10" style="fill:#F0EFE4;" width="451.174" height="37.364"/>
	<g>
		<rect x="25.413" y="454.636" style="fill:#F0EFE4;" width="451.174" height="37.364"/>
		<g>
			<path d="M251,142.999c-5.522,0-10,4.478-10,10V165c0,5.522,4.478,10,10,10s10-4.478,10-10v-12.001
				C261,147.477,256.522,142.999,251,142.999z"/>
			<path d="M476.587,57.364c5.522,0,10-4.478,10-10V10c0-5.522-4.478-10-10-10H25.413c-5.522,0-10,4.478-10,10v37.364
				c0,5.522,4.478,10,10,10h44.646v27.64H55.771c-19.937,0-36.155,16.219-36.155,36.155s16.219,36.154,36.155,36.154h14.287v84.621
				H55.771c-19.937,0-36.155,16.219-36.155,36.154c0,10.281,4.32,19.566,11.232,26.155c-6.912,6.589-11.232,15.874-11.232,26.155
				s4.32,19.566,11.232,26.155c-6.912,6.589-11.232,15.874-11.232,26.154c0,19.937,16.219,36.155,36.155,36.155h14.287v25.771
				H25.413c-5.522,0-10,4.478-10,10V492c0,5.522,4.478,10,10,10h451.174c5.522,0,10-4.478,10-10v-37.364c0-5.522-4.478-10-10-10
				h-45.579v-25.771h15.221c19.937,0,36.155-16.219,36.155-36.155s-16.219-36.154-36.155-36.154h-15.221V289c0-5.522-4.478-10-10-10
				s-10,4.478-10,10v57.555h-17.089c-19.937,0-36.155,16.219-36.155,36.154c0,19.937,16.219,36.155,36.155,36.155h17.089v25.771H261
				v-25.771h18.023c19.937,0,36.155-16.219,36.155-36.155c0-10.281-4.32-19.565-11.232-26.154
				c6.912-6.589,11.232-15.874,11.232-26.155s-4.32-19.566-11.232-26.155c6.912-6.589,11.232-15.874,11.232-26.155
				s-4.32-19.565-11.232-26.154c6.912-6.589,11.232-15.874,11.232-26.155c0-19.937-16.219-36.155-36.155-36.155h-52.311
				c-19.936,0-36.154,16.219-36.154,36.155c0,10.281,4.32,19.566,11.232,26.155c-6.912,6.589-11.232,15.874-11.232,26.154
				c0,10.281,4.32,19.566,11.232,26.155c-6.912,6.589-11.232,15.874-11.232,26.155s4.32,19.566,11.232,26.155
				c-6.912,6.589-11.232,15.874-11.232,26.154c0,19.937,16.219,36.155,36.154,36.155H241v25.771H90.059v-25.771h18.022
				c19.937,0,36.155-16.219,36.155-36.155c0-10.281-4.32-19.565-11.232-26.154c6.912-6.589,11.232-15.874,11.232-26.155
				s-4.32-19.566-11.232-26.155c6.912-6.589,11.232-15.874,11.232-26.155c0-19.936-16.219-36.154-36.155-36.154H90.059v-84.621
				h18.022c19.937,0,36.155-16.219,36.155-36.154c0-19.937-16.219-36.155-36.155-36.155H90.059v-27.64H241V117
				c0,5.522,4.478,10,10,10s10-4.478,10-10V57.364h150.008v27.64h-17.089c-19.937,0-36.155,16.219-36.155,36.155
				c0,10.281,4.32,19.565,11.232,26.154c-6.912,6.589-11.232,15.874-11.232,26.155s4.32,19.566,11.232,26.155
				c-6.912,6.589-11.232,15.874-11.232,26.155c0,19.937,16.219,36.155,36.155,36.155h52.31c19.937,0,36.155-16.219,36.155-36.155
				c0-10.281-4.32-19.566-11.232-26.155c6.912-6.589,11.232-15.874,11.232-26.155s-4.32-19.566-11.232-26.155
				c6.912-6.589,11.232-15.874,11.232-26.154c0-19.937-16.219-36.155-36.155-36.155h-15.221v-27.64
				C431.008,57.364,476.587,57.364,476.587,57.364z M377.764,382.709c0-8.907,7.247-16.154,16.155-16.154h52.31
				c8.908,0,16.155,7.247,16.155,16.154c0,8.908-7.247,16.155-16.155,16.155h-52.31
				C385.011,398.864,377.764,391.617,377.764,382.709z M210.559,225.779c0-8.908,7.247-16.155,16.154-16.155h52.311
				c8.908,0,16.155,7.247,16.155,16.155s-7.247,16.155-16.155,16.155h-52.311C217.806,241.935,210.559,234.688,210.559,225.779z
				 M210.559,278.089c0-8.907,7.247-16.154,16.154-16.154h52.311c8.908,0,16.155,7.247,16.155,16.154
				c0,8.908-7.247,16.155-16.155,16.155h-52.311C217.806,294.244,210.559,286.997,210.559,278.089z M210.559,330.399
				c0-8.908,7.247-16.155,16.154-16.155h52.311c8.908,0,16.155,7.247,16.155,16.155s-7.247,16.155-16.155,16.155h-52.311
				C217.806,346.555,210.559,339.308,210.559,330.399z M210.559,382.709c0-8.907,7.247-16.154,16.154-16.154h52.311
				c8.908,0,16.155,7.247,16.155,16.154c0,8.908-7.247,16.155-16.155,16.155h-52.311
				C217.806,398.864,210.559,391.617,210.559,382.709z M466.587,482H35.413v-17.364h431.174V482z M124.236,382.709
				c0,8.908-7.247,16.155-16.155,16.155h-52.31c-8.908,0-16.155-7.247-16.155-16.155c0-8.907,7.247-16.154,16.155-16.154h52.31
				C116.989,366.555,124.236,373.802,124.236,382.709z M124.236,330.399c0,8.908-7.247,16.155-16.155,16.155h-52.31
				c-8.908,0-16.155-7.247-16.155-16.155s7.247-16.155,16.155-16.155h52.31C116.989,314.244,124.236,321.491,124.236,330.399z
				 M124.236,278.089c0,8.908-7.247,16.155-16.155,16.155h-52.31c-8.908,0-16.155-7.247-16.155-16.155
				c0-8.907,7.247-16.154,16.155-16.154h52.31C116.989,261.935,124.236,269.182,124.236,278.089z M124.236,121.159
				c0,8.907-7.247,16.154-16.155,16.154h-52.31c-8.908,0-16.155-7.247-16.155-16.154c0-8.908,7.247-16.155,16.155-16.155h52.31
				C116.989,105.004,124.236,112.251,124.236,121.159z M462.384,225.779c0,8.908-7.247,16.155-16.155,16.155h-52.31
				c-8.908,0-16.155-7.247-16.155-16.155s7.247-16.155,16.155-16.155h52.31C455.137,209.624,462.384,216.871,462.384,225.779z
				 M462.384,173.469c0,8.908-7.247,16.155-16.155,16.155h-52.31c-8.908,0-16.155-7.247-16.155-16.155s7.247-16.155,16.155-16.155
				h52.31C455.137,157.313,462.384,164.561,462.384,173.469z M462.384,121.159c0,8.907-7.247,16.154-16.155,16.154h-52.31
				c-8.908,0-16.155-7.247-16.155-16.154c0-8.908,7.247-16.155,16.155-16.155h52.31
				C455.137,105.004,462.384,112.251,462.384,121.159z M35.413,20h431.174v17.364H35.413V20z"/>
		</g>
	</g>
</g>
<g>
</g>
<g>
</g>
<g>
</g>
<g>
</g>
<g>
</g>
<g>
</g>
<g>
</g>
<g>
</g>
<g>
</g>
<g>
</g>
<g>
</g>
<g>
</g>
<g>
</g>
<g>
</g>
<g>
</g>
</svg>
