<?xml version="1.0" encoding="iso-8859-1"?>
<!-- Generator: Adobe Illustrator 19.0.0, SVG Export Plug-In . SVG Version: 6.00 Build 0)  -->
<svg version="1.1" id="Layer_1" xmlns="http://www.w3.org/2000/svg" xmlns:xlink="http://www.w3.org/1999/xlink" x="0px" y="0px"
	 viewBox="0 0 502 502" style="enable-background:new 0 0 502 502;" xml:space="preserve">
<g>
	<path style="fill:#F77E65;" d="M444.027,120H425V35h19.027C457.819,35,469,46.181,469,59.973v35.054
		C469,108.819,457.819,120,444.027,120z"/>
	<path style="fill:#F0EFE4;" d="M444.027,120H425.5V10h-355v482h355V205h18.527C457.819,205,469,193.819,469,180.027v-35.054
		C469,131.181,457.819,120,444.027,120z"/>
	<g>
		<path style="fill:#F77E65;" d="M444.027,290H425v-85h19.027C457.819,205,469,216.181,469,229.973v35.054
			C469,278.819,457.819,290,444.027,290z"/>
		<g>
			<path d="M109,241H99c-5.522,0-10,4.478-10,10s4.478,10,10,10h10c5.522,0,10-4.478,10-10S114.522,241,109,241z"/>
			<path d="M33,357h11c5.522,0,10-4.478,10-10s-4.478-10-10-10H33c-5.522,0-10,4.478-10,10S27.478,357,33,357z"/>
			<path d="M109,337H98c-5.522,0-10,4.478-10,10s4.478,10,10,10h11c5.522,0,10-4.478,10-10S114.522,337,109,337z"/>
			<path d="M389,38c-5.522,0-10,4.478-10,10v108c0,5.522,4.478,10,10,10s10-4.478,10-10V48C399,42.478,394.522,38,389,38z"/>
			<path d="M389,190c-5.522,0-10,4.478-10,10v24c0,5.522,4.478,10,10,10s10-4.478,10-10v-24C399,194.478,394.522,190,389,190z"/>
			<path d="M479,95.027V59.973C479,40.688,463.312,25,444.027,25H435.5V10c0-5.522-4.478-10-10-10h-355c-5.522,0-10,4.478-10,10v39
				H33c-5.522,0-10,4.478-10,10s4.478,10,10,10h27.5v76H33c-5.522,0-10,4.478-10,10s4.478,10,10,10h27.5v76H33
				c-5.522,0-10,4.478-10,10s4.478,10,10,10h27.5v172H33c-5.522,0-10,4.478-10,10s4.478,10,10,10h27.5v39c0,5.522,4.478,10,10,10
				h355c5.522,0,10-4.478,10-10V300h8.527C463.312,300,479,284.312,479,265.027v-35.055c0-9.775-4.035-18.62-10.522-24.973
				c6.487-6.352,10.522-15.198,10.522-24.973v-35.055c0-9.775-4.035-18.62-10.522-24.973C474.965,113.648,479,104.802,479,95.027z
				 M415.5,482h-335v-29H109c5.522,0,10-4.478,10-10s-4.478-10-10-10H80.5V165H109c5.522,0,10-4.478,10-10s-4.478-10-10-10H80.5V69
				H109c5.522,0,10-4.478,10-10s-4.478-10-10-10H80.5V20h335V482z M459,229.973v35.055c0,8.256-6.717,14.973-14.973,14.973H435.5
				v-65h8.527C452.283,215,459,221.717,459,229.973z M459,144.973v35.055c0,8.256-6.717,14.973-14.973,14.973H435.5v-65h8.527
				C452.283,130,459,136.717,459,144.973z M435.5,110V45h8.527C452.283,45,459,51.717,459,59.973v35.055
				c0,8.256-6.717,14.973-14.973,14.973L435.5,110L435.5,110z"/>
		</g>
	</g>
</g>
<g>
</g>
<g>
</g>
<g>
</g>
<g>
</g>
<g>
</g>
<g>
</g>
<g>
</g>
<g>
</g>
<g>
</g>
<g>
</g>
<g>
</g>
<g>
</g>
<g>
</g>
<g>
</g>
<g>
</g>
</svg>
