<?xml version="1.0" encoding="iso-8859-1"?>
<!-- Generator: Adobe Illustrator 19.0.0, SVG Export Plug-In . SVG Version: 6.00 Build 0)  -->
<svg version="1.1" id="Layer_1" xmlns="http://www.w3.org/2000/svg" xmlns:xlink="http://www.w3.org/1999/xlink" x="0px" y="0px"
	 viewBox="0 0 501.95 501.95" style="enable-background:new 0 0 501.95 501.95;" xml:space="preserve">
<g>
	<circle style="fill:#F77E65;" cx="250.975" cy="276.71" r="189.504"/>
	<path style="fill:#F77E65;" d="M133.499,62.376L36.64,159.235L23.047,145.64c-17.429-17.429-17.429-45.687,0-63.116L56.79,48.781
		c17.429-17.429,45.687-17.429,63.116,0L133.499,62.376z"/>
	<path style="fill:#F77E65;" d="M368.45,62.376l96.859,96.859l13.594-13.594c17.429-17.429,17.429-45.687,0-63.116L445.16,48.781
		c-17.429-17.429-45.687-17.429-63.116,0L368.45,62.376z"/>
	<circle style="fill:#F0EFE4;" cx="250.975" cy="276.71" r="146.248"/>
	<g>
		<path d="M450.479,276.71c0-110.008-89.497-199.505-199.504-199.505S51.471,166.702,51.471,276.71
			c0,56.903,23.95,108.315,62.295,144.694l-37.738,37.738c-3.905,3.905-3.905,10.237,0,14.143c1.953,1.952,4.512,2.929,7.071,2.929
			s5.118-0.977,7.071-2.929l38.822-38.822c33.75,26.157,76.077,41.751,121.982,41.751s88.233-15.594,121.982-41.751l38.822,38.822
			c1.953,1.952,4.512,2.929,7.071,2.929s5.118-0.977,7.071-2.929c3.905-3.905,3.905-10.237,0-14.143l-37.738-37.738
			C426.529,385.025,450.479,333.613,450.479,276.71z M71.471,276.71c0-98.979,80.525-179.505,179.504-179.505
			S430.479,177.73,430.479,276.71c0,98.979-80.525,179.504-179.504,179.504S71.471,375.688,71.471,276.71z"/>
		<path d="M485.975,75.453L452.232,41.71c-21.301-21.299-55.958-21.299-77.259,0l-13.594,13.595c-3.905,3.905-3.905,10.237,0,14.143
			l39.813,39.813l-2.496,2.496c-3.905,3.905-3.905,10.237,0,14.143c1.953,1.952,4.512,2.929,7.071,2.929s5.118-0.977,7.071-2.929
			l2.496-2.496l42.903,42.903c1.953,1.952,4.512,2.929,7.071,2.929s5.118-0.977,7.071-2.929l13.595-13.595
			C507.275,131.411,507.275,96.753,485.975,75.453z M471.832,138.568l-6.523,6.523l-82.717-82.716l6.523-6.523
			c13.502-13.502,35.472-13.502,48.974,0l33.743,33.743C485.334,103.098,485.334,125.066,471.832,138.568z"/>
		<path d="M86.509,127.416c1.953,1.952,4.512,2.929,7.071,2.929s5.118-0.977,7.071-2.929c3.905-3.905,3.905-10.237,0-14.143
			l-1.954-1.954l41.873-41.873c3.905-3.905,3.905-10.237,0-14.143L126.977,41.71c-21.301-21.299-55.958-21.299-77.259,0
			L15.975,75.453c-21.3,21.3-21.3,55.958,0,77.258l13.595,13.595c1.953,1.952,4.512,2.929,7.071,2.929s5.118-0.977,7.071-2.929
			l40.843-40.843L86.509,127.416z M36.641,145.092l-6.523-6.523c-6.541-6.54-10.143-15.236-10.143-24.486
			s3.602-17.946,10.143-24.486l33.743-33.743c6.752-6.752,15.617-10.127,24.486-10.127c8.867,0,17.737,3.377,24.487,10.127
			l6.523,6.523L36.641,145.092z"/>
		<path d="M250.975,120.462c-86.155,0-156.248,70.093-156.248,156.248s70.093,156.248,156.248,156.248
			s156.248-70.093,156.248-156.248S337.13,120.462,250.975,120.462z M250.975,412.958c-75.127,0-136.248-61.121-136.248-136.248
			s61.121-136.248,136.248-136.248s136.248,61.121,136.248,136.248S326.102,412.958,250.975,412.958z"/>
		<path d="M254.956,282.606c2.979-1.732,4.988-4.95,4.988-8.644V170.97c0-5.522-4.478-10-10-10s-10,4.478-10,10v93.681h-69.303
			c-5.522,0-10,4.478-10,10s4.478,10,10,10h78.273C251.188,284.65,253.277,283.883,254.956,282.606z"/>
		<path d="M361.176,266.71c-5.522,0-10,4.478-10,10c0,8.242-1.002,16.437-2.979,24.355c-1.338,5.358,1.922,10.787,7.28,12.124
			c0.813,0.203,1.628,0.3,2.43,0.3c4.481,0,8.56-3.035,9.694-7.58c2.372-9.502,3.574-19.325,3.574-29.199
			C371.176,271.188,366.698,266.71,361.176,266.71z"/>
		<path d="M349.085,327.931c-4.644-2.992-10.831-1.653-13.823,2.987c-18.563,28.799-50.073,45.992-84.287,45.992
			c-5.522,0-10,4.478-10,10s4.478,10,10,10c41.041,0,78.835-20.619,101.098-55.156C355.065,337.112,353.727,330.923,349.085,327.931
			z"/>
	</g>
</g>
<g>
</g>
<g>
</g>
<g>
</g>
<g>
</g>
<g>
</g>
<g>
</g>
<g>
</g>
<g>
</g>
<g>
</g>
<g>
</g>
<g>
</g>
<g>
</g>
<g>
</g>
<g>
</g>
<g>
</g>
</svg>
