<?xml version="1.0" encoding="iso-8859-1"?>
<!-- Generator: Adobe Illustrator 19.0.0, SVG Export Plug-In . SVG Version: 6.00 Build 0)  -->
<svg version="1.1" id="Layer_1" xmlns="http://www.w3.org/2000/svg" xmlns:xlink="http://www.w3.org/1999/xlink" x="0px" y="0px"
	 viewBox="0 0 502.001 502.001" style="enable-background:new 0 0 502.001 502.001;" xml:space="preserve">
<g>
	<path style="fill:#F77E65;" d="M339.385,56.114c-34.244,0-65.357,24.098-88.385,48.522c-23.028-24.424-54.141-48.522-88.385-48.522
		c-70.947,0-128.46,33.691-128.46,150.419S108.138,492,179.085,492c33.429,0,54.393-10.836,71.916-23.057
		C268.522,481.164,289.487,492,322.916,492c70.947,0,144.929-168.739,144.929-285.467S410.332,56.114,339.385,56.114z"/>
	<g>
		<path d="M437.255,80.444c-23.01-22.78-55.938-34.33-97.871-34.33c-25.147,0-50.966,11.328-76.986,33.723
			C266.382,44.527,280.326,20,293,20c5.523,0,10-4.478,10-10s-4.477-10-10-10c-26.283,0-46.804,34.168-50.953,81.978
			c-26.847-23.811-53.497-35.864-79.432-35.864c-41.932,0-74.86,11.55-97.871,34.33c-26.934,26.663-40.59,69.086-40.59,126.089
			c0,57.759,17.953,130.888,46.852,190.849c14.573,30.236,31.269,55.601,48.283,73.349c19.89,20.749,40.008,31.27,59.795,31.27
			c26.642,0,46.023-6.512,61.367-14.745v2.549c0,5.522,4.477,10,10,10s10-4.478,10-10v-3.145
			c15.515,8.511,35.183,15.34,62.465,15.34c19.787,0,39.905-10.521,59.795-31.27c17.014-17.748,33.71-43.112,48.283-73.349
			c28.899-59.961,46.852-133.09,46.852-190.849C477.845,149.53,464.189,107.107,437.255,80.444z M412.977,388.698
			C384.819,447.121,351.151,482,322.916,482c-31.387,0-50.364-10.218-66.195-21.259c-1.719-1.198-3.72-1.798-5.721-1.798
			s-4.002,0.6-5.721,1.798C229.449,471.782,210.471,482,179.085,482c-28.236,0-61.904-34.879-90.062-93.302
			c-27.676-57.422-44.868-127.224-44.868-182.165c0-51.467,11.662-89.107,34.661-111.876c19.401-19.206,46.812-28.543,83.8-28.543
			c25.427,0,52.716,15.269,81.109,45.382c1.89,2.004,4.521,3.14,7.276,3.14s5.386-1.136,7.276-3.14
			c28.393-30.113,55.682-45.382,81.109-45.382c36.988,0,64.399,9.337,83.8,28.543c22.999,22.769,34.661,60.409,34.661,111.876
			C457.845,261.475,440.654,331.276,412.977,388.698z"/>
		<path d="M194.103,97.96c-11.227-6.718-22.51-10.124-33.536-10.124c-5.523,0-10,4.478-10,10s4.477,10,10,10
			c7.358,0,15.187,2.451,23.267,7.286c1.608,0.963,3.377,1.421,5.125,1.421c3.401,0,6.717-1.736,8.59-4.867
			C200.385,106.937,198.842,100.796,194.103,97.96z"/>
		<path d="M109.073,100.732c-29.151,17.894-43.932,54.143-43.932,107.739c0,5.522,4.477,10,10,10s10-4.478,10-10
			c0-46.171,11.572-76.686,34.395-90.694c4.707-2.889,6.18-9.047,3.291-13.754C119.939,99.317,113.781,97.842,109.073,100.732z"/>
	</g>
</g>
<g>
</g>
<g>
</g>
<g>
</g>
<g>
</g>
<g>
</g>
<g>
</g>
<g>
</g>
<g>
</g>
<g>
</g>
<g>
</g>
<g>
</g>
<g>
</g>
<g>
</g>
<g>
</g>
<g>
</g>
</svg>
