<?xml version="1.0" encoding="iso-8859-1"?>
<!-- Generator: Adobe Illustrator 19.0.0, SVG Export Plug-In . SVG Version: 6.00 Build 0)  -->
<svg version="1.1" id="Layer_1" xmlns="http://www.w3.org/2000/svg" xmlns:xlink="http://www.w3.org/1999/xlink" x="0px" y="0px"
	 viewBox="0 0 502 502" style="enable-background:new 0 0 502 502;" xml:space="preserve">
<g>
	<path style="fill:#F77E65;" d="M304.556,71.795H197.444c-54.037,0-97.842,43.805-97.842,97.842V492h302.795V169.637
		C402.397,115.6,358.592,71.795,304.556,71.795z"/>
	<path style="fill:#F0EFE4;" d="M486.85,325.154h-84.453V492h35.532c27.018,0,48.921-21.903,48.921-48.921V325.154z"/>
	<path style="fill:#F0EFE4;" d="M15.15,325.154h84.453V492H64.071c-27.018,0-48.921-21.903-48.921-48.921
		C15.15,443.079,15.15,325.154,15.15,325.154z"/>
	<path style="fill:#F0EFE4;" d="M286.704,211.863h-71.407c-36.024,0-65.228,29.204-65.228,65.228V492h201.863V277.091
		C351.932,241.067,322.728,211.863,286.704,211.863z"/>
	<g>
		<path d="M437.93,502c32.489,0,58.921-26.432,58.921-58.921V325.154c0-5.523-4.478-10-10-10h-74.453V169.637
			c0-59.464-48.378-107.842-107.842-107.842H200.183C204.857,38.005,225.861,20,251,20c17.698,0,33.993,8.898,43.589,23.803
			c2.988,4.644,9.176,5.986,13.821,2.995c4.644-2.989,5.984-9.178,2.995-13.821C298.112,12.328,275.53,0,251,0
			c-36.698,0-67.033,27.682-71.27,63.258c-51.065,8.475-90.128,52.947-90.128,106.379v145.517H15.149c-5.523,0-10,4.477-10,10
			v117.925C5.149,475.568,31.581,502,64.07,502H437.93z M25.149,443.079V335.154h64.453V482H64.07
			C42.609,482,25.149,464.54,25.149,443.079z M392.397,482h-30.466V277.091c0-41.481-33.747-75.228-75.228-75.228h-71.408
			c-41.481,0-75.228,33.747-75.228,75.228V482h-30.466V169.637c0-48.436,39.406-87.842,87.842-87.842h107.111
			c48.437,0,87.842,39.406,87.842,87.842L392.397,482L392.397,482z M160.068,482V277.091c0-30.453,24.775-55.228,55.228-55.228
			h71.408c30.452,0,55.228,24.775,55.228,55.228V482H160.068z M476.851,443.079c0,21.461-17.46,38.921-38.921,38.921h-25.532
			V335.154h64.453V443.079z"/>
		<path d="M307.646,314.124h-12.359c-5.522,0-10,4.477-10,10s4.478,10,10,10h12.359c5.522,0,10-4.477,10-10
			S313.168,314.124,307.646,314.124z"/>
		<path d="M256.149,314.124h-61.795c-5.523,0-10,4.477-10,10s4.477,10,10,10h61.795c5.522,0,10-4.477,10-10
			S261.672,314.124,256.149,314.124z"/>
	</g>
</g>
<g>
</g>
<g>
</g>
<g>
</g>
<g>
</g>
<g>
</g>
<g>
</g>
<g>
</g>
<g>
</g>
<g>
</g>
<g>
</g>
<g>
</g>
<g>
</g>
<g>
</g>
<g>
</g>
<g>
</g>
</svg>
