<?xml version="1.0" encoding="iso-8859-1"?>
<!-- Generator: Adobe Illustrator 19.0.0, SVG Export Plug-In . SVG Version: 6.00 Build 0)  -->
<svg version="1.1" id="Layer_1" xmlns="http://www.w3.org/2000/svg" xmlns:xlink="http://www.w3.org/1999/xlink" x="0px" y="0px"
	 viewBox="0 0 502 502" style="enable-background:new 0 0 502 502;" xml:space="preserve">
<g>
	<g>
		<circle style="fill:#F77E65;" cx="212.39" cy="229.55" r="202.39"/>
		<path d="M212.39,441.939C95.277,441.939,0,346.662,0,229.55S95.277,17.16,212.39,17.16s212.39,95.277,212.39,212.39
			S329.502,441.939,212.39,441.939z M212.39,37.16C106.306,37.16,20,123.466,20,229.55s86.306,192.39,192.39,192.39
			s192.39-86.306,192.39-192.39S318.474,37.16,212.39,37.16z"/>
	</g>
	<g>
		<path d="M245.701,484.84c-5.523,0-10-4.478-10-10s4.477-10,10-10c113.25,0,210.687-80.632,231.685-191.724
			c1.026-5.427,6.254-8.991,11.684-7.969c5.427,1.026,8.994,6.257,7.969,11.684C474.256,397.359,368.554,484.84,245.701,484.84z"/>
	</g>
	<g>
		<rect x="452.632" y="181.602" style="fill:#F0EFE4;" width="39.368" height="50.471"/>
		<path d="M492,242.073h-39.368c-5.523,0-10-4.478-10-10v-50.471c0-5.522,4.477-10,10-10H492c5.523,0,10,4.478,10,10v50.471
			C502,237.596,497.523,242.073,492,242.073z M462.632,222.073H482v-30.471h-19.368V222.073z"/>
	</g>
	<g>
		<circle style="fill:#F0EFE4;" cx="212.39" cy="229.55" r="30.787"/>
		<path d="M212.39,270.337c-22.49,0-40.788-18.297-40.788-40.787s18.297-40.787,40.788-40.787s40.787,18.297,40.787,40.787
			S234.88,270.337,212.39,270.337z M212.39,208.763c-11.462,0-20.788,9.325-20.788,20.787s9.325,20.787,20.788,20.787
			c11.462,0,20.787-9.325,20.787-20.787S223.852,208.763,212.39,208.763z"/>
	</g>
	<g>
		<path d="M174.024,82.106c-4.508,0-8.599-3.068-9.71-7.643c-1.303-5.367,1.992-10.774,7.358-12.077
			c13.255-3.218,26.955-4.85,40.717-4.85c5.523,0,10,4.478,10,10s-4.477,10-10,10c-12.175,0-24.287,1.441-35.999,4.285
			C175.599,82.015,174.805,82.106,174.024,82.106z"/>
	</g>
	<g>
		<path d="M50.377,239.55c-5.523,0-10-4.478-10-10c0-30.785,8.232-60.995,23.807-87.363c15.115-25.588,36.713-46.953,62.459-61.785
			c4.786-2.758,10.9-1.113,13.657,3.674c2.757,4.785,1.112,10.899-3.673,13.656c-47.033,27.094-76.25,77.604-76.25,131.818
			C60.377,235.072,55.9,239.55,50.377,239.55z"/>
	</g>
</g>
<g>
</g>
<g>
</g>
<g>
</g>
<g>
</g>
<g>
</g>
<g>
</g>
<g>
</g>
<g>
</g>
<g>
</g>
<g>
</g>
<g>
</g>
<g>
</g>
<g>
</g>
<g>
</g>
<g>
</g>
</svg>
