<?xml version="1.0" encoding="iso-8859-1"?>
<!-- Generator: Adobe Illustrator 19.0.0, SVG Export Plug-In . SVG Version: 6.00 Build 0)  -->
<svg version="1.1" id="Layer_1" xmlns="http://www.w3.org/2000/svg" xmlns:xlink="http://www.w3.org/1999/xlink" x="0px" y="0px"
	 viewBox="0 0 502 502" style="enable-background:new 0 0 502 502;" xml:space="preserve">
<g>
	<rect x="10" y="93.5" style="fill:#F0EFE4;" width="482" height="278"/>
	<rect x="10" y="371.5" style="fill:#F77E65;" width="482" height="37"/>
	<rect x="54" y="337.5" style="fill:#F77E65;" width="76" height="34"/>
	<g>
		<path d="M502,93.5c0-5.523-4.477-10-10-10H10c-5.523,0-10,4.477-10,10v315c0,5.523,4.477,10,10,10h482c5.523,0,10-4.477,10-10
			V93.5z M20,103.5h462v258H140v-24c0-5.523-4.477-10-10-10H54c-5.523,0-10,4.477-10,10v24H20V103.5z M120,361.5H64v-14h56V361.5z
			 M482,381.5v17H20v-17H482z"/>
		<path d="M393.595,290.401c0.47,0.066,0.939,0.099,1.406,0.099c2.927,0,5.736-1.286,7.651-3.562
			c2.22-2.639,2.924-6.235,1.863-9.516l-33-102c-0.96-2.968-3.25-5.317-6.191-6.354c-2.942-1.037-6.199-0.642-8.807,1.069
			l-80.139,52.55C267.389,210.712,253.253,203.5,238,203.5c-23.032,0-42.319,16.308-46.94,37.981l-20.678-2.885
			c-5.467-0.761-10.522,3.051-11.286,8.522c-0.764,5.47,3.052,10.522,8.522,11.286L393.595,290.401z M356.521,194.051l24.038,74.299
			l-112.905-16.025L356.521,194.051z M238,223.5c8.462,0,16.338,3.805,21.602,10.188L237.776,248l-26.821-3.742
			C214.155,232.318,225.065,223.5,238,223.5z"/>
		<path d="M105.618,249.404l26,3.628c0.469,0.065,0.934,0.098,1.395,0.098c4.91,0,9.193-3.618,9.892-8.62
			c0.763-5.47-3.052-10.522-8.522-11.286l-26-3.628c-5.465-0.764-10.522,3.051-11.286,8.522
			C96.333,243.588,100.148,248.641,105.618,249.404z"/>
	</g>
</g>
<g>
</g>
<g>
</g>
<g>
</g>
<g>
</g>
<g>
</g>
<g>
</g>
<g>
</g>
<g>
</g>
<g>
</g>
<g>
</g>
<g>
</g>
<g>
</g>
<g>
</g>
<g>
</g>
<g>
</g>
</svg>
