<?xml version="1.0" encoding="iso-8859-1"?>
<!-- Generator: Adobe Illustrator 19.0.0, SVG Export Plug-In . SVG Version: 6.00 Build 0)  -->
<svg version="1.1" id="Layer_1" xmlns="http://www.w3.org/2000/svg" xmlns:xlink="http://www.w3.org/1999/xlink" x="0px" y="0px"
	 viewBox="0 0 502 502" style="enable-background:new 0 0 502 502;" xml:space="preserve">
<g>
	<rect x="76" y="10" style="fill:#F77E65;" width="36" height="482"/>
	<rect x="112" y="10" style="fill:#F0EFE4;" width="314" height="482"/>
	<rect x="179" y="93" style="fill:#F77E65;" width="178" height="119"/>
	<g>
		<path d="M426,502c5.522,0,10-4.477,10-10V10c0-5.523-4.478-10-10-10H76c-5.522,0-10,4.477-10,10v482c0,5.523,4.478,10,10,10H426z
			 M86,20h16v462H86V20z M416,482H122V20h294V482z"/>
		<path d="M179,222h178c5.522,0,10-4.477,10-10V93c0-5.523-4.478-10-10-10H179c-5.522,0-10,4.477-10,10v119
			C169,217.523,173.478,222,179,222z M189,103h158v99H189V103z"/>
		<path d="M221.5,143H267c5.522,0,10-4.477,10-10s-4.478-10-10-10h-45.5c-5.522,0-10,4.477-10,10
			C211.5,138.523,215.978,143,221.5,143z"/>
		<path d="M314.5,162h-93c-5.522,0-10,4.477-10,10s4.478,10,10,10h93c5.522,0,10-4.477,10-10S320.022,162,314.5,162z"/>
		<path d="M314.5,123H302c-5.522,0-10,4.477-10,10c0,5.523,4.478,10,10,10h12.5c5.522,0,10-4.477,10-10S320.022,123,314.5,123z"/>
		<path d="M392,468c5.522,0,10-4.477,10-10V314c0-5.523-4.478-10-10-10s-10,4.477-10,10v144C382,463.523,386.478,468,392,468z"/>
	</g>
</g>
<g>
</g>
<g>
</g>
<g>
</g>
<g>
</g>
<g>
</g>
<g>
</g>
<g>
</g>
<g>
</g>
<g>
</g>
<g>
</g>
<g>
</g>
<g>
</g>
<g>
</g>
<g>
</g>
<g>
</g>
</svg>
