<?xml version="1.0" encoding="iso-8859-1"?>
<!-- Generator: Adobe Illustrator 19.0.0, SVG Export Plug-In . SVG Version: 6.00 Build 0)  -->
<svg version="1.1" id="Layer_1" xmlns="http://www.w3.org/2000/svg" xmlns:xlink="http://www.w3.org/1999/xlink" x="0px" y="0px"
	 viewBox="0 0 502 502" style="enable-background:new 0 0 502 502;" xml:space="preserve">
<g>
	<polygon style="fill:#F77E65;" points="10,126.415 10,242.831 37.061,251.431 37.061,429.708 464.938,429.708 464.938,251.431 
		492,242.831 492,126.415 	"/>
	<polygon style="fill:#F0EFE4;" points="215.258,268.36 215.258,307.804 215.258,342.908 286.742,342.908 286.742,307.804 
		286.742,268.36 	"/>
	<g>
		<path d="M492,116.415H188.496v-6.849c0-15.039,12.235-27.273,27.273-27.273h70.461c10.968,0,20.826,6.522,25.116,16.617
			c2.159,5.083,8.027,7.452,13.114,5.292c5.083-2.16,7.452-8.032,5.292-13.115c-7.434-17.492-24.517-28.795-43.522-28.795h-70.461
			c-26.067,0-47.273,21.207-47.273,47.273v6.849H10c-5.523,0-10,4.477-10,10v116.416c0,4.356,2.82,8.211,6.971,9.53l20.09,6.385
			v170.962c0,5.523,4.477,10,10,10h427.877c5.522,0,10-4.477,10-10V258.745l20.09-6.384c4.151-1.319,6.972-5.174,6.972-9.53V126.415
			C502,120.892,497.522,116.415,492,116.415z M276.741,307.804v25.103h-51.483v-25.103V278.36h51.483V307.804z M454.938,419.708
			H47.062V265.102l158.197,50.274v27.531c0,5.523,4.477,10,10,10h71.483c5.522,0,10-4.477,10-10v-27.531l158.197-50.274v154.606
			H454.938z M482,235.517l-185.259,58.874v-26.03c0-5.523-4.478-10-10-10h-71.483c-5.523,0-10,4.477-10,10v26.03L20,235.517v-99.101
			h462V235.517z"/>
		<path d="M35.742,160.115c0,5.523,4.477,10,10,10h148.072c5.523,0,10-4.477,10-10c0-5.523-4.477-10-10-10H45.742
			C40.219,150.115,35.742,154.591,35.742,160.115z"/>
		<path d="M231.598,170.115h24.508c5.522,0,10-4.477,10-10c0-5.523-4.478-10-10-10h-24.508c-5.523,0-10,4.477-10,10
			C221.598,165.637,226.075,170.115,231.598,170.115z"/>
	</g>
</g>
<g>
</g>
<g>
</g>
<g>
</g>
<g>
</g>
<g>
</g>
<g>
</g>
<g>
</g>
<g>
</g>
<g>
</g>
<g>
</g>
<g>
</g>
<g>
</g>
<g>
</g>
<g>
</g>
<g>
</g>
</svg>
