<?xml version="1.0" encoding="iso-8859-1"?>
<!-- Generator: Adobe Illustrator 19.0.0, SVG Export Plug-In . SVG Version: 6.00 Build 0)  -->
<svg version="1.1" id="Layer_1" xmlns="http://www.w3.org/2000/svg" xmlns:xlink="http://www.w3.org/1999/xlink" x="0px" y="0px"
	 viewBox="0 0 502 502" style="enable-background:new 0 0 502 502;" xml:space="preserve">
<g>
	<path style="fill:#F0EFE4;" d="M428,85.725C428,43.903,394.097,10,352.275,10h-202.55C107.903,10,74,43.903,74,85.725V158.5h354
		V85.725z"/>
	<path style="fill:#F77E65;" d="M352.275,492C394.097,492,428,458.097,428,416.275V158.5H74v257.775
		C74,458.097,107.903,492,149.725,492H352.275z"/>
	<g>
		<path d="M438,85.725C438,38.456,399.544,0,352.275,0h-202.55C102.456,0,64,38.456,64,85.725v330.551
			C64,463.544,102.456,502,149.725,502h202.551C399.544,502,438,463.544,438,416.275V85.725z M84,168.5h157v140H84V168.5z
			 M261,168.5h157v140H261V168.5z M84,148.5V85.725C84,49.484,113.484,20,149.725,20h202.551C388.516,20,418,49.484,418,85.725
			V148.5H84z M84,416.275V328.5h157V482h-91.275C113.484,482,84,452.516,84,416.275z M418,416.275
			c0,36.24-29.484,65.725-65.725,65.725H261V328.5h157V416.275z"/>
		<path d="M203.974,407.089H122c-5.522,0-10,4.478-10,10s4.478,10,10,10h81.974c5.522,0,10-4.478,10-10
			S209.496,407.089,203.974,407.089z"/>
		<path d="M203.974,374.56H122c-5.522,0-10,4.478-10,10s4.478,10,10,10h81.974c5.522,0,10-4.478,10-10
			S209.496,374.56,203.974,374.56z"/>
		<path d="M203.974,227.588h-30.987v-30.986c0-5.522-4.478-10-10-10s-10,4.478-10,10v30.986H122c-5.522,0-10,4.478-10,10
			s4.478,10,10,10h30.986v30.986c0,5.522,4.478,10,10,10s10-4.478,10-10v-30.986h30.987c5.522,0,10-4.478,10-10
			S209.496,227.588,203.974,227.588z"/>
		<path d="M381,227.588h-48.794c-5.522,0-10,4.478-10,10s4.478,10,10,10H381c5.522,0,10-4.478,10-10S386.522,227.588,381,227.588z"
			/>
		<path d="M309.436,227.588h-10.409c-5.522,0-10,4.478-10,10s4.478,10,10,10h10.409c5.522,0,10-4.478,10-10
			S314.958,227.588,309.436,227.588z"/>
		<path d="M303.604,438.535c1.953,1.952,4.512,2.929,7.071,2.929s5.118-0.977,7.071-2.929l21.911-21.911l21.911,21.911
			c1.953,1.952,4.512,2.929,7.071,2.929s5.118-0.977,7.071-2.929c3.905-3.905,3.905-10.237,0-14.143l-21.911-21.911l21.911-21.911
			c3.905-3.905,3.905-10.237,0-14.143c-3.906-3.904-10.236-3.904-14.143,0l-21.911,21.911l-21.911-21.911
			c-3.906-3.904-10.236-3.904-14.143,0c-3.905,3.905-3.905,10.237,0,14.143l21.911,21.911l-21.911,21.911
			C299.698,428.298,299.698,434.63,303.604,438.535z"/>
		<path d="M394,119.5c0-5.522-4.478-10-10-10H228c-5.522,0-10,4.478-10,10s4.478,10,10,10h156C389.522,129.5,394,125.022,394,119.5z
			"/>
		<path d="M188,109.5h-29c-5.522,0-10,4.478-10,10s4.478,10,10,10h29c5.522,0,10-4.478,10-10S193.522,109.5,188,109.5z"/>
	</g>
</g>
<g>
</g>
<g>
</g>
<g>
</g>
<g>
</g>
<g>
</g>
<g>
</g>
<g>
</g>
<g>
</g>
<g>
</g>
<g>
</g>
<g>
</g>
<g>
</g>
<g>
</g>
<g>
</g>
<g>
</g>
</svg>
