<?xml version="1.0" encoding="iso-8859-1"?>
<!-- Generator: Adobe Illustrator 19.0.0, SVG Export Plug-In . SVG Version: 6.00 Build 0)  -->
<svg version="1.1" id="Layer_1" xmlns="http://www.w3.org/2000/svg" xmlns:xlink="http://www.w3.org/1999/xlink" x="0px" y="0px"
	 viewBox="0 0 502 502" style="enable-background:new 0 0 502 502;" xml:space="preserve">
<g>
	<g>
		<path style="fill:#F77E65;" d="M33.834,259.675l28.311,28.311l28.794-28.794c14.951-14.951,35.228-23.35,56.372-23.35h128.715
			c25.876,0,46.852-20.976,46.852-46.852V66.697c0-25.876-20.976-46.852-46.852-46.852H56.853C30.977,19.845,10,40.821,10,66.697
			v135.439C10,223.717,18.573,244.414,33.834,259.675z"/>
		<path d="M62.145,297.985c-2.56,0-5.118-0.977-7.071-2.929l-28.311-28.311C9.505,249.487,0,226.542,0,202.136V66.697
			C0,35.349,25.504,9.845,56.853,9.845h219.173c31.349,0,56.853,25.504,56.853,56.853V188.99c0,31.348-25.504,56.852-56.853,56.852
			H147.311c-18.623,0-36.132,7.253-49.301,20.422l-28.794,28.794C67.263,297.009,64.704,297.985,62.145,297.985z M56.853,29.845
			C36.532,29.845,20,46.377,20,66.697v135.438c0,19.064,7.424,36.987,20.905,50.468l21.239,21.239l21.723-21.723
			c16.947-16.946,39.479-26.279,63.443-26.279h128.715c20.32,0,36.853-16.531,36.853-36.852V66.697
			c0-20.32-16.532-36.853-36.853-36.853H56.853V29.845z"/>
	</g>
	<g>
		<path d="M190.476,104.879H71.341c-5.522,0-10-4.478-10-10s4.478-10,10-10h119.135c5.522,0,10,4.478,10,10
			S195.998,104.879,190.476,104.879z"/>
	</g>
	<g>
		<path d="M263.872,166.574H71.341c-5.522,0-10-4.478-10-10s4.478-10,10-10h192.531c5.522,0,10,4.478,10,10
			S269.395,166.574,263.872,166.574z"/>
	</g>
	<g>
		<path d="M263.872,104.879h-31.911c-5.522,0-10-4.478-10-10s4.478-10,10-10h31.911c5.522,0,10,4.478,10,10
			S269.395,104.879,263.872,104.879z"/>
	</g>
	<g>
		<path style="fill:#F0EFE4;" d="M473.84,460.583l-21.572,21.572l-21.941-21.941c-11.392-11.392-26.843-17.792-42.954-17.792
			h-98.079c-19.717,0-35.701-15.984-35.701-35.701v-93.184c0-19.717,15.984-35.701,35.701-35.701H456.3
			c19.717,0,35.701,15.984,35.701,35.701v103.202C492,433.184,485.468,448.955,473.84,460.583z"/>
		<path d="M452.268,492.155c-2.56,0-5.118-0.977-7.071-2.929l-21.94-21.94c-9.584-9.585-22.328-14.863-35.884-14.863h-98.078
			c-25.199,0-45.7-20.502-45.7-45.701v-93.185c0-25.199,20.501-45.7,45.7-45.7H456.3c25.199,0,45.7,20.501,45.7,45.7v103.202
			c0,19.233-7.489,37.315-21.089,50.915l-21.572,21.572C457.386,491.179,454.827,492.155,452.268,492.155z M289.294,287.837
			c-14.171,0-25.7,11.529-25.7,25.7v93.185c0,14.172,11.529,25.701,25.7,25.701h98.078c18.897,0,36.664,7.358,50.026,20.721
			l14.869,14.869l14.501-14.501c9.822-9.822,15.231-22.881,15.231-36.772V313.537c0-14.171-11.529-25.7-25.7-25.7L289.294,287.837
			L289.294,287.837z"/>
	</g>
	<g>
		<path d="M445.26,345.012h-90.778c-5.522,0-10-4.478-10-10s4.478-10,10-10h90.778c5.522,0,10,4.478,10,10
			S450.782,345.012,445.26,345.012z"/>
	</g>
	<g>
		<path d="M445.26,392.022H298.555c-5.522,0-10-4.478-10-10s4.478-10,10-10H445.26c5.522,0,10,4.478,10,10
			S450.782,392.022,445.26,392.022z"/>
	</g>
	<g>
		<path d="M322.871,345.012h-24.316c-5.522,0-10-4.478-10-10s4.478-10,10-10h24.316c5.522,0,10,4.478,10,10
			S328.394,345.012,322.871,345.012z"/>
	</g>
</g>
<g>
</g>
<g>
</g>
<g>
</g>
<g>
</g>
<g>
</g>
<g>
</g>
<g>
</g>
<g>
</g>
<g>
</g>
<g>
</g>
<g>
</g>
<g>
</g>
<g>
</g>
<g>
</g>
<g>
</g>
</svg>
