<?xml version="1.0" encoding="iso-8859-1"?>
<!-- Generator: Adobe Illustrator 19.0.0, SVG Export Plug-In . SVG Version: 6.00 Build 0)  -->
<svg version="1.1" id="Layer_1" xmlns="http://www.w3.org/2000/svg" xmlns:xlink="http://www.w3.org/1999/xlink" x="0px" y="0px"
	 viewBox="0 0 502 502" style="enable-background:new 0 0 502 502;" xml:space="preserve">
<g>
	<circle style="fill:#F77E65;" cx="251" cy="251" r="241"/>
	<circle style="fill:#F0EFE4;" cx="251" cy="251" r="181"/>
	<g>
		<path d="M428.483,73.517C381.076,26.108,318.045,0,251,0C183.956,0,120.924,26.108,73.516,73.517C26.108,120.924,0,183.955,0,251
			s26.108,130.076,73.516,177.483C120.924,475.892,183.956,502,251,502c67.045,0,130.076-26.108,177.483-73.517
			C475.892,381.076,502,318.045,502,251S475.892,120.924,428.483,73.517z M251,482C123.626,482,20,378.374,20,251S123.626,20,251,20
			s231,103.626,231,231S378.374,482,251,482z"/>
		<path d="M251,60C145.682,60,60,145.683,60,251s85.682,191,191,191c105.317,0,191-85.683,191-191S356.317,60,251,60z M251,422
			c-94.29,0-171-76.71-171-171S156.71,80,251,80s171,76.71,171,171S345.29,422,251,422z"/>
		<path d="M185.103,116.863c-2.762-4.783-8.877-6.422-13.66-3.66s-6.422,8.877-3.66,13.66l15.005,25.99
			c1.852,3.208,5.213,5.002,8.669,5.002c1.696,0,3.416-0.433,4.991-1.342c4.783-2.762,6.422-8.877,3.66-13.66L185.103,116.863z"/>
		<path d="M152.853,182.788l-25.99-15.005c-4.784-2.762-10.898-1.122-13.66,3.66c-2.762,4.783-1.123,10.898,3.66,13.66l25.99,15.005
			c1.575,0.909,3.294,1.342,4.991,1.342c3.456,0,6.817-1.794,8.669-5.002C159.275,191.665,157.636,185.549,152.853,182.788z"/>
		<path d="M141.896,251c0-5.522-4.477-10-10-10h-30.01c-5.523,0-10,4.478-10,10s4.477,10,10,10h30.01
			C137.419,261,141.896,256.522,141.896,251z"/>
		<path d="M142.853,301.892l-25.99,15.005c-4.783,2.762-6.422,8.877-3.66,13.66c1.852,3.208,5.213,5.002,8.669,5.002
			c1.696,0,3.416-0.433,4.991-1.342l25.99-15.005c4.783-2.761,6.422-8.877,3.66-13.66
			C153.751,300.77,147.635,299.129,142.853,301.892z"/>
		<path d="M196.448,345.486c-4.782-2.759-10.898-1.121-13.66,3.66l-15.005,25.99c-2.762,4.783-1.123,10.898,3.66,13.66
			c1.575,0.909,3.294,1.342,4.991,1.342c3.456,0,6.817-1.794,8.669-5.002l15.005-25.99
			C202.87,354.363,201.231,348.248,196.448,345.486z"/>
		<path d="M251,360.104c-5.523,0-10,4.478-10,10v30.011c0,5.522,4.477,10,10,10c5.522,0,10-4.478,10-10v-30.011
			C261,364.581,256.522,360.104,251,360.104z"/>
		<path d="M319.212,349.146c-2.761-4.782-8.874-6.422-13.66-3.66c-4.783,2.761-6.422,8.877-3.66,13.66l15.005,25.99
			c1.853,3.208,5.213,5.002,8.67,5.002c1.696,0,3.415-0.433,4.99-1.342c4.783-2.761,6.422-8.877,3.66-13.66L319.212,349.146z"/>
		<path d="M385.137,316.896l-25.99-15.005c-4.785-2.762-10.899-1.122-13.66,3.66c-2.762,4.783-1.123,10.899,3.66,13.66l25.99,15.005
			c1.575,0.909,3.294,1.342,4.99,1.342c3.456,0,6.818-1.794,8.67-5.002C391.559,325.773,389.92,319.657,385.137,316.896z"/>
		<path d="M400.114,241h-30.011c-5.522,0-10,4.478-10,10s4.478,10,10,10h30.011c5.522,0,10-4.478,10-10S405.637,241,400.114,241z"/>
		<path d="M354.156,201.45c1.696,0,3.415-0.433,4.99-1.342l25.99-15.005c4.783-2.761,6.422-8.877,3.66-13.66
			c-2.761-4.781-8.874-6.421-13.66-3.66l-25.99,15.005c-4.783,2.761-6.422,8.877-3.66,13.66
			C347.339,199.656,350.699,201.45,354.156,201.45z"/>
		<path d="M330.557,113.203c-4.785-2.761-10.9-1.121-13.66,3.66l-15.005,25.99c-2.762,4.783-1.123,10.899,3.66,13.66
			c1.575,0.909,3.294,1.342,4.99,1.342c3.456,0,6.818-1.794,8.67-5.002l15.005-25.99C336.979,122.08,335.34,115.964,330.557,113.203
			z"/>
		<path d="M251,125.957c5.522,0,10-4.478,10-10v-13.133c0-5.522-4.478-10-10-10c-5.523,0-10,4.478-10,10v13.133
			C241,121.479,245.477,125.957,251,125.957z"/>
		<path d="M241.019,250.42c-0.112,1.896,0.31,3.845,1.337,5.609c1.857,3.191,5.208,4.973,8.653,4.973
			c1.708,0,3.438-0.438,5.02-1.358l43.14-25.1c4.773-2.777,6.392-8.898,3.614-13.673c-2.777-4.773-8.898-6.39-13.673-3.614
			L261,233.612V145c0-5.522-4.478-10-10-10c-5.523,0-10,4.478-10,10L241.019,250.42z"/>
		<path d="M140.505,83.068c4.611-3.04,5.884-9.242,2.844-13.854c-3.04-4.61-9.242-5.884-13.854-2.844
			C67.194,107.45,30,176.471,30,251c0,5.522,4.477,10,10,10s10-4.478,10-10C50,183.214,83.833,120.436,140.505,83.068z"/>
		<path d="M186.998,59.884c1.004,0,2.025-0.152,3.033-0.473C209.67,53.166,230.183,50,251,50c5.522,0,10-4.478,10-10
			s-4.478-10-10-10c-22.875,0-45.428,3.482-67.03,10.351c-5.263,1.674-8.173,7.297-6.5,12.561
			C178.823,57.166,182.758,59.884,186.998,59.884z"/>
	</g>
</g>
<g>
</g>
<g>
</g>
<g>
</g>
<g>
</g>
<g>
</g>
<g>
</g>
<g>
</g>
<g>
</g>
<g>
</g>
<g>
</g>
<g>
</g>
<g>
</g>
<g>
</g>
<g>
</g>
<g>
</g>
</svg>
