<?xml version="1.0" encoding="iso-8859-1"?>
<!-- Generator: Adobe Illustrator 19.0.0, SVG Export Plug-In . SVG Version: 6.00 Build 0)  -->
<svg version="1.1" id="Layer_1" xmlns="http://www.w3.org/2000/svg" xmlns:xlink="http://www.w3.org/1999/xlink" x="0px" y="0px"
	 viewBox="0 0 502 502" style="enable-background:new 0 0 502 502;" xml:space="preserve">
<g>
	<path style="fill:#F0EFE4;" d="M463.892,108.898V77.186c0-37.106-30.08-67.186-67.186-67.186H105.294
		c-37.106,0-67.186,30.08-67.186,67.186v31.713h81.768v284.203h-14.582c-37.106,0-67.186,30.08-67.186,67.186V492h425.784v-31.713
		c0-37.106-30.08-67.186-67.186-67.186h-14.582V108.898H463.892z"/>
	<path style="fill:#F77E65;" d="M171.327,163.032L171.327,163.032c-11.193,0-20.266,9.073-20.266,20.266v209.803h40.532V183.298
		C191.593,172.106,182.519,163.032,171.327,163.032z"/>
	<path style="fill:#F77E65;" d="M249.959,163.032L249.959,163.032c-11.193,0-20.266,9.073-20.266,20.266v209.803h40.532V183.298
		C270.225,172.106,261.152,163.032,249.959,163.032z"/>
	<path style="fill:#F77E65;" d="M328.591,163.032L328.591,163.032c-11.193,0-20.266,9.073-20.266,20.266v209.803h40.532V183.298
		C348.857,172.106,339.784,163.032,328.591,163.032z"/>
	<g>
		<path d="M463.892,118.898c5.522,0,10-4.478,10-10V77.186C473.892,34.625,439.267,0,396.706,0H105.294
			C62.733,0,28.108,34.625,28.108,77.186v31.713c0,5.522,4.478,10,10,10h71.768v264.203h-4.582
			c-42.561,0-77.186,34.625-77.186,77.186V492c0,5.522,4.478,10,10,10h425.783c5.522,0,10-4.478,10-10v-31.713
			c0-42.561-34.625-77.186-77.186-77.186h-4.582V118.898H463.892z M88.188,98.898V82.005c0-12.376,10.069-22.445,22.446-22.445
			c5.522,0,10-4.478,10-10s-4.478-10-10-10c-23.405,0-42.446,19.041-42.446,42.445v16.894h-20.08V77.186
			C48.108,45.653,73.762,20,105.294,20h291.412c31.532,0,57.186,25.653,57.186,57.186v21.713h-20.079V82.005
			c0-23.404-19.041-42.445-42.446-42.445c-5.522,0-10,4.478-10,10s4.478,10,10,10c12.377,0,22.446,10.069,22.446,22.445v16.894
			L88.188,98.898L88.188,98.898z M396.706,403.102c31.532,0,57.186,25.653,57.186,57.186V482H48.108v-21.713
			c0-31.532,25.653-57.186,57.186-57.186h291.412V403.102z M181.593,383.102h-20.532V183.299c0-5.661,4.605-10.267,10.266-10.267
			c5.661,0,10.267,4.605,10.267,10.267v199.803H181.593z M260.225,383.102h-20.531V183.299c0-5.661,4.605-10.267,10.266-10.267
			s10.266,4.605,10.266,10.267v199.803H260.225z M338.857,383.102h-20.532V183.299c0-5.661,4.605-10.267,10.267-10.267
			c5.66,0,10.266,4.605,10.266,10.267L338.857,383.102L338.857,383.102z M372.124,383.102h-13.267V183.299
			c0-16.689-13.577-30.267-30.266-30.267s-30.267,13.577-30.267,30.267v199.803h-18.101V183.299
			c0-16.689-13.577-30.267-30.266-30.267s-30.266,13.577-30.266,30.267v199.803H201.59V183.299
			c0-16.689-13.577-30.267-30.267-30.267c-16.688,0-30.266,13.577-30.266,30.267v199.803h-11.185V118.898H372.12v264.204H372.124z"
			/>
		<path d="M360.31,89.749h21.861c5.522,0,10-4.478,10-10s-4.478-10-10-10H360.31c-5.522,0-10,4.478-10,10
			S354.787,89.749,360.31,89.749z"/>
		<path d="M109.829,79.749c0,5.522,4.478,10,10,10h201.962c5.522,0,10-4.478,10-10s-4.478-10-10-10H119.829
			C114.307,69.749,109.829,74.227,109.829,79.749z"/>
		<path d="M155.225,450.769H71.941c-5.522,0-10,4.478-10,10s4.478,10,10,10h83.283c5.522,0,10-4.478,10-10
			S160.747,450.769,155.225,450.769z"/>
		<path d="M201.03,450.769h-12.492c-5.522,0-10,4.478-10,10s4.478,10,10,10h12.492c5.522,0,10-4.478,10-10
			S206.553,450.769,201.03,450.769z"/>
	</g>
</g>
<g>
</g>
<g>
</g>
<g>
</g>
<g>
</g>
<g>
</g>
<g>
</g>
<g>
</g>
<g>
</g>
<g>
</g>
<g>
</g>
<g>
</g>
<g>
</g>
<g>
</g>
<g>
</g>
<g>
</g>
</svg>
