<?xml version="1.0" encoding="iso-8859-1"?>
<!-- Generator: Adobe Illustrator 19.0.0, SVG Export Plug-In . SVG Version: 6.00 Build 0)  -->
<svg version="1.1" id="Layer_1" xmlns="http://www.w3.org/2000/svg" xmlns:xlink="http://www.w3.org/1999/xlink" x="0px" y="0px"
	 viewBox="0 0 502 502" style="enable-background:new 0 0 502 502;" xml:space="preserve">
<g>
	<path style="fill:#F0EFE4;" d="M210.456,130.992L108.688,435.069h43.553l90.7-276.938
		C227.96,155.412,215.69,144.929,210.456,130.992z"/>
	<path style="fill:#F0EFE4;" d="M393.312,435.069L291.21,129.994c-4.943,14.227-17.151,25.05-32.189,28.021l90.738,277.054
		L393.312,435.069L393.312,435.069z"/>
	<path style="fill:#F77E65;" d="M250.655,72.969c-23.712,0-42.933,19.222-42.933,42.933c0,5.311,0.971,10.394,2.734,15.09
		c5.234,13.936,17.505,24.42,32.485,27.139c2.504,0.454,5.079,0.705,7.714,0.705c2.863,0,5.659-0.286,8.366-0.821
		c15.039-2.971,27.246-13.794,32.189-28.021c1.534-4.415,2.378-9.154,2.378-14.091C293.588,92.191,274.367,72.969,250.655,72.969z"
		/>
	<g>
		<path d="M250.655,54c5.523,0,10-4.478,10-10V10c0-5.522-4.477-10-10-10s-10,4.478-10,10v34C240.655,49.522,245.132,54,250.655,54z
			"/>
		<path d="M129.069,460.247c-5.523,0-10,4.478-10,10V492c0,5.522,4.477,10,10,10c5.523,0,10-4.478,10-10v-21.753
			C139.069,464.725,134.592,460.247,129.069,460.247z"/>
		<path d="M402.795,431.896L301.707,129.851c1.242-4.543,1.881-9.219,1.881-13.949c0-29.188-23.746-52.934-52.934-52.934
			s-52.933,23.746-52.933,52.934c0,5.136,0.746,10.186,2.197,15.066L99.205,431.896c-1.021,3.051-0.512,6.405,1.367,9.016
			s4.899,4.158,8.116,4.158h43.553c4.324,0,8.158-2.778,9.503-6.888l88.219-269.362c0.23,0.003,0.462,0.016,0.691,0.016
			c0.458,0,0.917-0.022,1.376-0.034l88.225,269.38c1.346,4.109,5.18,6.888,9.503,6.888h13.172V458c0,5.522,4.477,10,10,10
			s10-4.478,10-10v-12.931h10.381c3.217,0,6.237-1.547,8.116-4.158C403.307,438.301,403.816,434.946,402.795,431.896z
			 M250.655,82.969c18.16,0,32.934,14.774,32.934,32.934c0,3.688-0.614,7.325-1.825,10.81c-3.823,11.005-13.281,19.24-24.68,21.493
			c-4.046,0.799-8.179,0.846-12.356,0.088c-11.314-2.055-20.859-10.03-24.91-20.817c-1.391-3.702-2.096-7.596-2.096-11.573
			C217.722,97.743,232.496,82.969,250.655,82.969z M144.994,425.069H122.58l90.881-271.547l-0.004-0.036
			c4.823,4.764,10.533,8.594,16.826,11.233l-0.026,0.015L144.994,425.069z M271.663,164.486l-0.022-0.012
			c6.285-2.726,11.963-6.641,16.731-11.487l-0.002,0.028l91.051,272.055h-22.414L271.663,164.486z"/>
		<path d="M372.931,477c-5.523,0-10,4.478-10,10v5c0,5.522,4.477,10,10,10s10-4.478,10-10v-5
			C382.931,481.478,378.454,477,372.931,477z"/>
		<path d="M235.722,125.902c5.523,0,10-4.478,10-10c0-2.721,2.213-4.934,4.933-4.934c5.523,0,10-4.478,10-10s-4.477-10-10-10
			c-13.748,0-24.933,11.186-24.933,24.934C225.722,121.425,230.199,125.902,235.722,125.902z"/>
	</g>
</g>
<g>
</g>
<g>
</g>
<g>
</g>
<g>
</g>
<g>
</g>
<g>
</g>
<g>
</g>
<g>
</g>
<g>
</g>
<g>
</g>
<g>
</g>
<g>
</g>
<g>
</g>
<g>
</g>
<g>
</g>
</svg>
