<?xml version="1.0" encoding="iso-8859-1"?>
<!-- Generator: Adobe Illustrator 19.0.0, SVG Export Plug-In . SVG Version: 6.00 Build 0)  -->
<svg version="1.1" id="Layer_1" xmlns="http://www.w3.org/2000/svg" xmlns:xlink="http://www.w3.org/1999/xlink" x="0px" y="0px"
	 viewBox="0 0 498.001 498.001" style="enable-background:new 0 0 498.001 498.001;" xml:space="preserve">
<g>
	<path style="fill:#F0EFE4;" d="M170.146,185.021L14,175.5c0,0-4,50.943-4,75s4,75,4,75l162.5-9.908v-69.781
		c-6.056-11.437-9.5-24.469-9.5-38.311C167,199.702,168.112,192.167,170.146,185.021z"/>
	<path style="fill:#F0EFE4;" d="M484,175.5l-156.146,9.521c2.034,7.146,3.146,14.681,3.146,22.479c0,13.842-3.444,26.875-9.5,38.311
		v69.781L484,325.5c0,0,4-50.943,4-75S484,175.5,484,175.5z"/>
	<path style="fill:#F77E65;" d="M249,289.5c-31.445,0-58.742-17.708-72.5-43.689v69.781V372.5l72.5-38l72.5,38v-56.908v-69.781
		C307.742,271.792,280.445,289.5,249,289.5z"/>
	<path style="fill:#F77E65;" d="M327.854,185.021C318.079,150.667,286.489,125.5,249,125.5s-69.079,25.167-78.854,59.521
		C168.112,192.167,167,199.702,167,207.5c0,13.842,3.444,26.875,9.5,38.311c13.758,25.98,41.055,43.689,72.5,43.689
		s58.742-17.708,72.5-43.689c6.056-11.437,9.5-24.469,9.5-38.311C331,199.702,329.888,192.167,327.854,185.021z"/>
	<g>
		<path d="M493.969,174.717c-0.427-5.438-5.122-9.526-10.578-9.198l-148.5,9.055C321.395,139.422,287.17,115.5,249,115.5
			s-72.395,23.922-85.892,59.074l-148.5-9.055c-5.447-0.335-10.151,3.762-10.578,9.198C3.866,176.813,0,226.329,0,250.5
			s3.866,73.687,4.031,75.783c0.411,5.231,4.781,9.217,9.96,9.217c0.205,0,0.411-0.006,0.618-0.019L166.5,326.22v46.28
			c0,3.5,1.83,6.745,4.824,8.557c2.995,1.811,6.718,1.925,9.818,0.301L249,345.79l67.858,35.567c1.456,0.763,3.05,1.143,4.642,1.143
			c1.796,0,3.589-0.483,5.176-1.443c2.995-1.812,4.824-5.057,4.824-8.557v-46.28l151.892,9.261c0.207,0.013,0.413,0.019,0.618,0.019
			c5.178,0,9.549-3.986,9.96-9.217c0.165-2.097,4.031-51.612,4.031-75.783S494.134,176.813,493.969,174.717z M249,135.5
			c32.01,0,60.481,21.489,69.236,52.259C320.07,194.202,321,200.844,321,207.5c0,11.869-2.805,23.185-8.337,33.631
			C300.13,264.798,275.736,279.5,249,279.5s-51.13-14.702-63.663-38.369C179.805,230.685,177,219.369,177,207.5
			c0-6.656,0.93-13.298,2.764-19.741C188.519,156.989,216.99,135.5,249,135.5z M157.956,194.297l0.008-0.006
			C157.328,198.666,157,203.08,157,207.5c0,11.472,2.178,22.89,6.339,33.534l-143.316,6.155c0.231-17.572,2.141-46.163,3.216-61.107
			L157.956,194.297z M23.24,314.918c-0.831-11.552-2.161-31.256-2.829-47.727l146.089-6.274v45.265L23.24,314.918z M311.5,355.969
			l-57.858-30.326c-1.454-0.762-3.048-1.143-4.642-1.143s-3.188,0.381-4.642,1.143L186.5,355.969v-80.938l-0.003-0.01
			c16.731,15.511,38.9,24.479,62.503,24.479s45.772-8.968,62.503-24.479l-0.003,0.01V355.969z M331.5,306.183V248.21
			c6.22-12.595,9.5-26.613,9.5-40.71c0-4.421-0.328-8.834-0.964-13.209l0.008,0.006l134.716-8.215
			c1.082,15.028,3.007,43.855,3.22,61.404l-69.55-2.987c-5.526-0.233-10.183,4.044-10.42,9.563
			c-0.237,5.518,4.044,10.183,9.562,10.42l70.006,3.006c-0.672,16.408-1.991,35.947-2.817,47.43L331.5,306.183z"/>
		<path d="M217.167,224.312c-2.584-4.88-8.635-6.74-13.517-4.158c-4.881,2.585-6.742,8.637-4.158,13.518
			C209.234,252.07,228.205,263.5,249,263.5c5.523,0,10-4.478,10-10s-4.477-10-10-10C235.632,243.5,223.434,236.147,217.167,224.312z
			"/>
		<path d="M202.027,204.508c0.915,0.261,1.836,0.385,2.742,0.385c4.355,0,8.362-2.869,9.613-7.266
			c1.824-6.41,5.407-12.192,10.362-16.72c4.077-3.725,4.362-10.05,0.637-14.127s-10.049-4.361-14.128-0.638
			c-7.697,7.033-13.267,16.027-16.107,26.01C193.635,197.465,196.715,202.996,202.027,204.508z"/>
		<path d="M372.43,242.952l-14.001-0.601c-5.513-0.222-10.183,4.045-10.419,9.563s4.044,10.183,9.562,10.42l14.001,0.601
			c0.146,0.006,0.291,0.009,0.436,0.009c5.325,0,9.753-4.2,9.983-9.571C382.229,247.854,377.947,243.189,372.43,242.952z"/>
	</g>
</g>
<g>
</g>
<g>
</g>
<g>
</g>
<g>
</g>
<g>
</g>
<g>
</g>
<g>
</g>
<g>
</g>
<g>
</g>
<g>
</g>
<g>
</g>
<g>
</g>
<g>
</g>
<g>
</g>
<g>
</g>
</svg>
