<?xml version="1.0" encoding="iso-8859-1"?>
<!-- Generator: Adobe Illustrator 19.0.0, SVG Export Plug-In . SVG Version: 6.00 Build 0)  -->
<svg version="1.1" id="Layer_1" xmlns="http://www.w3.org/2000/svg" xmlns:xlink="http://www.w3.org/1999/xlink" x="0px" y="0px"
	 viewBox="0 0 502 502" style="enable-background:new 0 0 502 502;" xml:space="preserve">
<g>
	<rect x="10" y="89" style="fill:#F77E65;" width="482" height="324"/>
	<g>
		<path style="fill:#F0EFE4;" d="M309.971,314.694L253,375l42.866,0.468l37.44-37.44
			C322.934,333.408,314.592,325.066,309.971,314.694z"/>
		<path style="fill:#F0EFE4;" d="M451,375l-56.971-60.306c-4.621,10.372-12.962,18.714-23.335,23.335l37.44,37.44L451,375z"/>
		<path style="fill:#F0EFE4;" d="M352,250c-25.405,0-46,20.595-46,46c0,6.659,1.426,12.98,3.971,18.694
			c4.621,10.372,12.962,18.714,23.335,23.335C339.02,340.574,345.341,342,352,342s12.98-1.426,18.694-3.971
			c10.373-4.621,18.714-12.962,23.335-23.335C396.574,308.98,398,302.659,398,296C398,270.595,377.405,250,352,250z"/>
	</g>
	<g>
		<path d="M492,79H10C4.478,79,0,83.477,0,89v324c0,5.523,4.478,10,10,10h482c5.522,0,10-4.477,10-10V89
			C502,83.477,497.522,79,492,79z M482,403H20V99h462V403z"/>
		<path d="M296,296c0,5.592,0.832,11.058,2.446,16.332l-52.716,55.801c-2.729,2.888-3.488,7.118-1.936,10.775
			s5.123,6.048,9.096,6.092l42.866,0.468c0.037,0,0.073,0,0.109,0c2.65,0,5.194-1.053,7.071-2.929l32.928-32.927
			C341.078,351.187,346.478,352,352,352s10.922-0.813,16.135-2.388l32.928,32.927c1.877,1.876,4.421,2.929,7.071,2.929
			c0.036,0,0.072,0,0.109,0L451.109,385c3.973-0.043,7.543-2.435,9.096-6.092s0.793-7.887-1.936-10.775l-52.716-55.801
			C407.168,307.058,408,301.592,408,296c0-30.878-25.121-56-56-56S296,265.122,296,296z M291.77,365.422l-15.802-0.172
			l32.336-34.229l0.002-0.019c2.645,3.303,5.654,6.292,8.974,8.916l-0.014,0.007L291.77,365.422z M395.694,331.003l0.002,0.019
			l32.336,34.229l-15.802,0.172l-25.497-25.497l-0.02-0.003C390.037,337.298,393.048,334.307,395.694,331.003z M388,296
			c0,5.079-1.045,9.999-3.106,14.625c-3.63,8.15-10.118,14.638-18.271,18.269C361.998,330.955,357.078,332,352,332
			s-9.998-1.045-14.624-3.106c-8.151-3.631-14.64-10.119-18.271-18.27C317.045,305.999,316,301.079,316,296
			c0-19.851,16.149-36,36-36S388,276.149,388,296z"/>
		<path d="M64,153h172c5.522,0,10-4.477,10-10s-4.478-10-10-10H64c-5.522,0-10,4.477-10,10S58.478,153,64,153z"/>
		<path d="M280,153h23c5.522,0,10-4.477,10-10s-4.478-10-10-10h-23c-5.522,0-10,4.477-10,10S274.478,153,280,153z"/>
		<path d="M64,256h172c5.522,0,10-4.477,10-10s-4.478-10-10-10H64c-5.522,0-10,4.477-10,10S58.478,256,64,256z"/>
		<path d="M64,204h314c5.522,0,10-4.477,10-10s-4.478-10-10-10H64c-5.522,0-10,4.477-10,10S58.478,204,64,204z"/>
		<path d="M335.929,312.071C337.882,314.024,340.44,315,343,315s5.118-0.976,7.071-2.929l17-17c3.905-3.905,3.905-10.237,0-14.143
			c-3.906-3.905-10.236-3.905-14.143,0l-17,17C332.023,301.834,332.023,308.166,335.929,312.071z"/>
	</g>
</g>
<g>
</g>
<g>
</g>
<g>
</g>
<g>
</g>
<g>
</g>
<g>
</g>
<g>
</g>
<g>
</g>
<g>
</g>
<g>
</g>
<g>
</g>
<g>
</g>
<g>
</g>
<g>
</g>
<g>
</g>
</svg>
