<?xml version="1.0" encoding="iso-8859-1"?>
<!-- Generator: Adobe Illustrator 19.0.0, SVG Export Plug-In . SVG Version: 6.00 Build 0)  -->
<svg version="1.1" id="Layer_1" xmlns="http://www.w3.org/2000/svg" xmlns:xlink="http://www.w3.org/1999/xlink" x="0px" y="0px"
	 viewBox="0 0 502 502" style="enable-background:new 0 0 502 502;" xml:space="preserve">
<g>
	<g>
		<polygon style="fill:#F0EFE4;" points="148,10 81.5,76.5 81.5,492 420.5,492 420.5,10 		"/>
		<path d="M420.5,502h-339c-5.523,0-10-4.478-10-10V76.5c0-2.652,1.054-5.195,2.929-7.071l66.5-66.5C142.804,1.054,145.348,0,148,0
			h272.5c5.523,0,10,4.478,10,10v482C430.5,497.522,426.023,502,420.5,502z M91.5,482h319V20H152.142L91.5,80.643V482z"/>
	</g>
	<g>
		<path d="M292,131H142c-5.523,0-10-4.478-10-10s4.477-10,10-10h150c5.523,0,10,4.478,10,10S297.523,131,292,131z"/>
	</g>
	<g>
		<path d="M360,201H142c-5.523,0-10-4.478-10-10s4.477-10,10-10h218c5.523,0,10,4.478,10,10S365.523,201,360,201z"/>
	</g>
	<g>
		<path d="M360,271H142c-5.523,0-10-4.478-10-10s4.477-10,10-10h218c5.523,0,10,4.478,10,10S365.523,271,360,271z"/>
	</g>
	<g>
		<path d="M360,341H142c-5.523,0-10-4.478-10-10s4.477-10,10-10h218c5.523,0,10,4.478,10,10S365.523,341,360,341z"/>
	</g>
	<g>
		<path d="M360,131h-30c-5.523,0-10-4.478-10-10s4.477-10,10-10h30c5.523,0,10,4.478,10,10S365.523,131,360,131z"/>
	</g>
</g>
<g>
</g>
<g>
</g>
<g>
</g>
<g>
</g>
<g>
</g>
<g>
</g>
<g>
</g>
<g>
</g>
<g>
</g>
<g>
</g>
<g>
</g>
<g>
</g>
<g>
</g>
<g>
</g>
<g>
</g>
</svg>
