<?xml version="1.0" encoding="iso-8859-1"?>
<!-- Generator: Adobe Illustrator 19.0.0, SVG Export Plug-In . SVG Version: 6.00 Build 0)  -->
<svg version="1.1" id="Layer_1" xmlns="http://www.w3.org/2000/svg" xmlns:xlink="http://www.w3.org/1999/xlink" x="0px" y="0px"
	 viewBox="0 0 502.001 502.001" style="enable-background:new 0 0 502.001 502.001;" xml:space="preserve">
<g>
	<polygon style="fill:#F0EFE4;" points="492,18.674 202.057,18.674 106.028,251 395.972,251 	"/>
	<g>
		<polygon style="fill:#F77E65;" points="106.028,251 10,483.327 299.944,483.327 395.972,251 		"/>
		<path d="M0.758,479.506c-1.275,3.086-0.927,6.604,0.929,9.379c1.855,2.775,4.974,4.441,8.313,4.441h289.943
			c4.047,0,7.696-2.439,9.242-6.18L501.242,22.494c1.275-3.086,0.927-6.604-0.929-9.379c-1.855-2.775-4.974-4.441-8.313-4.441
			H202.057c-4.047,0-7.696,2.439-9.242,6.18L0.758,479.506z M293.256,473.326H24.954L112.715,261h268.302L293.256,473.326z
			 M389.285,241H120.983l87.761-212.326h268.302L389.285,241z"/>
	</g>
	<g>
		<path d="M197.72,454.296H77.53c-5.523,0-10-4.478-10-10s4.477-10,10-10h120.19c5.523,0,10,4.478,10,10
			S203.243,454.296,197.72,454.296z"/>
	</g>
	<g>
		<path d="M251,454.296h-16.108c-5.523,0-10-4.478-10-10s4.477-10,10-10H251c5.523,0,10,4.478,10,10S256.523,454.296,251,454.296z"
			/>
	</g>
</g>
<g>
</g>
<g>
</g>
<g>
</g>
<g>
</g>
<g>
</g>
<g>
</g>
<g>
</g>
<g>
</g>
<g>
</g>
<g>
</g>
<g>
</g>
<g>
</g>
<g>
</g>
<g>
</g>
<g>
</g>
</svg>
