<?xml version="1.0" encoding="iso-8859-1"?>
<!-- Generator: Adobe Illustrator 19.0.0, SVG Export Plug-In . SVG Version: 6.00 Build 0)  -->
<svg version="1.1" id="Layer_1" xmlns="http://www.w3.org/2000/svg" xmlns:xlink="http://www.w3.org/1999/xlink" x="0px" y="0px"
	 viewBox="0 0 502 502" style="enable-background:new 0 0 502 502;" xml:space="preserve">
<g>
	<path style="fill:#F0EFE4;" d="M305.333,10H196.668c-15.152,0-27.435,12.283-27.435,27.435l0,0
		c0,15.152,12.283,27.435,27.435,27.435h108.665c15.152,0,27.435-12.283,27.435-27.435l0,0C332.768,22.283,320.485,10,305.333,10z"
		/>
	<g>
		<path style="fill:#F0EFE4;" d="M251.001,327.39c14.135,0.182,38.585,20.651,52.719,20.442c10.38-0.154,34.57-12.82,44.271-18.132
			l-47.499-47.499V64.871H201.51v217.33l-47.62,47.62c8.975,5.325,30.593,17.585,40.089,18.011
			C209.107,348.511,235.857,327.195,251.001,327.39z"/>
		<path style="fill:#F77E65;" d="M459.567,441.277L347.99,329.699c-9.701,5.312-33.891,17.979-44.271,18.132
			c-14.134,0.209-38.584-20.26-52.719-20.442c-15.143-0.195-41.894,21.121-57.022,20.442c-9.495-0.426-31.113-12.686-40.089-18.011
			L42.433,441.277C23.715,459.995,36.972,492,63.444,492h375.114C465.029,492,478.285,459.995,459.567,441.277z"/>
	</g>
	<circle style="fill:#F0EFE4;" cx="251.413" cy="391.816" r="19.241"/>
	<g>
		<circle style="fill:#F0EFE4;" cx="354.411" cy="428.648" r="19.241"/>
		<g>
			<path d="M35.362,434.206c-11.573,11.573-14.872,28.157-8.609,43.278C33.017,492.606,47.076,502,63.444,502h375.113
				c16.368,0,30.427-9.394,36.69-24.516c6.263-15.122,2.964-31.705-8.609-43.278L310.491,278.059V74.507
				c18.208-2.522,32.277-18.18,32.277-37.072C342.768,16.793,325.975,0,305.333,0H196.668c-20.642,0-37.436,16.793-37.436,37.435
				c0,18.891,14.068,34.55,32.277,37.072v203.552L35.362,434.206z M179.232,37.435c0-9.614,7.822-17.435,17.436-17.435h108.665
				c9.614,0,17.436,7.821,17.436,17.435s-7.822,17.436-17.436,17.436h-4.841h-98.982h-4.841
				C187.055,54.871,179.232,47.049,179.232,37.435z M208.581,289.271c1.875-1.875,2.929-4.418,2.929-7.071V74.871h78.982v207.33
				c0,2.652,1.054,5.196,2.929,7.071l37.889,37.889c-14.521,7.257-24.165,10.62-27.738,10.672
				c-4.637,0.089-14.191-5.021-21.903-9.11c-10.874-5.766-21.145-11.211-30.539-11.332c-9.854-0.145-20.933,5.383-32.636,11.218
				c-8.456,4.216-18.971,9.447-24.066,9.233c-3.037-0.137-11.546-3.42-24.181-10.235L208.581,289.271z M456.77,469.831
				c-3.156,7.62-9.964,12.169-18.212,12.169H63.444c-8.248,0-15.056-4.549-18.212-12.169s-1.559-15.651,4.273-21.483L155.523,342.33
				l0.001-0.005c17.539,9.935,30.314,15.151,38.006,15.496c0.391,0.018,0.781,0.026,1.175,0.026c9.964,0,21.027-5.515,32.711-11.34
				c8.155-4.065,18.292-9.119,23.36-9.119c0.032,0,0.064,0,0.096,0c4.557,0.059,13.911,5.019,21.427,9.004
				c11.233,5.956,21.873,11.556,31.568,11.438c8.345-0.123,22.571-5.451,42.305-15.813l0.001,0.007l106.324,106.324
				C458.328,454.18,459.925,462.211,456.77,469.831z"/>
			<path d="M269.29,271.759c5.523,0,10-4.477,10-10V150.942c0-5.523-4.477-10-10-10s-10,4.477-10,10v110.817
				C259.29,267.282,263.767,271.759,269.29,271.759z"/>
			<path d="M269.29,125.438c5.523,0,10-4.477,10-10v-15.063c0-5.523-4.477-10-10-10s-10,4.477-10,10v15.063
				C259.29,120.96,263.767,125.438,269.29,125.438z"/>
			<path d="M251.413,362.576c-16.124,0-29.241,13.117-29.241,29.241s13.117,29.241,29.241,29.241
				c16.123,0,29.24-13.117,29.24-29.241S267.536,362.576,251.413,362.576z M251.413,401.057c-5.095,0-9.241-4.146-9.241-9.241
				s4.146-9.241,9.241-9.241c5.095,0,9.24,4.146,9.24,9.241S256.508,401.057,251.413,401.057z"/>
			<path d="M354.411,399.407c-16.123,0-29.24,13.117-29.24,29.241c0,16.123,13.117,29.24,29.24,29.24
				c16.124,0,29.241-13.117,29.241-29.24C383.652,412.524,370.535,399.407,354.411,399.407z M354.411,437.888
				c-5.095,0-9.24-4.145-9.24-9.24s4.145-9.241,9.24-9.241s9.241,4.146,9.241,9.241S359.507,437.888,354.411,437.888z"/>
		</g>
	</g>
</g>
<g>
</g>
<g>
</g>
<g>
</g>
<g>
</g>
<g>
</g>
<g>
</g>
<g>
</g>
<g>
</g>
<g>
</g>
<g>
</g>
<g>
</g>
<g>
</g>
<g>
</g>
<g>
</g>
<g>
</g>
</svg>
