<?xml version="1.0" encoding="iso-8859-1"?>
<!-- Generator: Adobe Illustrator 19.0.0, SVG Export Plug-In . SVG Version: 6.00 Build 0)  -->
<svg version="1.1" id="Layer_1" xmlns="http://www.w3.org/2000/svg" xmlns:xlink="http://www.w3.org/1999/xlink" x="0px" y="0px"
	 viewBox="0 0 502 502" style="enable-background:new 0 0 502 502;" xml:space="preserve">
<g>
	<polygon style="fill:#F77E65;" points="334.904,141.509 492,283.133 492,479.504 10,479.504 10,283.133 167.096,141.509 	"/>
	<rect x="167.096" y="22.496" style="fill:#F0EFE4;" width="167.807" height="119.012"/>
	<rect x="10" y="285.514" style="fill:#F0EFE4;" width="482" height="149.956"/>
	<g>
		<path d="M502,283.134c0-2.832-1.201-5.531-3.304-7.428L344.903,137.06V22.496c0-5.522-4.478-10-10-10H167.096
			c-5.523,0-10,4.478-10,10V137.06L3.304,275.706C1.201,277.603,0,280.302,0,283.134v196.37c0,5.522,4.477,10,10,10h482
			c5.522,0,10-4.478,10-10V283.134z M20,295.514h462v129.955H20V295.514z M33.387,275.514l137.552-124.005h160.123l137.552,124.005
			H33.387z M177.096,32.496h24.63v54.267c0,5.522,4.477,10,10,10s10-4.478,10-10V32.496h25.224v13.803c0,5.522,4.477,10,10,10
			c5.522,0,10-4.478,10-10V32.496h57.953v99.013H177.096V32.496z M20,469.504v-24.035h462v24.035H20z"/>
		<path d="M256.95,72.003c-5.523,0-10,4.478-10,10v4.76c0,5.522,4.477,10,10,10c5.522,0,10-4.478,10-10v-4.76
			C266.95,76.48,262.473,72.003,256.95,72.003z"/>
		<path d="M233.148,311.217H48.679c-5.523,0-10,4.478-10,10s4.477,10,10,10h184.469c5.523,0,10-4.478,10-10
			S238.671,311.217,233.148,311.217z"/>
		<path d="M298.604,311.217h-22.612c-5.522,0-10,4.478-10,10s4.478,10,10,10h22.612c5.522,0,10-4.478,10-10
			S304.127,311.217,298.604,311.217z"/>
	</g>
</g>
<g>
</g>
<g>
</g>
<g>
</g>
<g>
</g>
<g>
</g>
<g>
</g>
<g>
</g>
<g>
</g>
<g>
</g>
<g>
</g>
<g>
</g>
<g>
</g>
<g>
</g>
<g>
</g>
<g>
</g>
</svg>
