<?xml version="1.0" encoding="iso-8859-1"?>
<!-- Generator: Adobe Illustrator 19.0.0, SVG Export Plug-In . SVG Version: 6.00 Build 0)  -->
<svg version="1.1" id="Layer_1" xmlns="http://www.w3.org/2000/svg" xmlns:xlink="http://www.w3.org/1999/xlink" x="0px" y="0px"
	 viewBox="0 0 502 502" style="enable-background:new 0 0 502 502;" xml:space="preserve">
<g>
	<path style="fill:#F0EFE4;" d="M214.609,113.506c0.001,0.171,0.013,0.339,0.013,0.511H92.985c0-0.172,0.012-0.34,0.013-0.511
		c-33.419,20.484-55.716,57.343-55.716,99.412h233.042C270.324,170.848,248.027,133.99,214.609,113.506z"/>
	<path style="fill:#F0EFE4;" d="M214.609,113.506c-0.276-33.353-27.388-60.308-60.805-60.308s-60.53,26.955-60.805,60.308
		c-0.001,0.171-0.013,0.339-0.013,0.511h121.637C214.621,113.845,214.61,113.677,214.609,113.506z"/>
	<path style="fill:#F77E65;" d="M246.452,492c0-40.809,48.86-73.892,109.132-73.892S464.716,451.191,464.716,492H246.452z"/>
	<g>
		<path d="M280.325,212.917c0-22.039-5.757-43.744-16.647-62.768c-9.671-16.893-23.214-31.407-39.354-42.268
			c-2.831-32.62-27.975-59.05-59.952-63.888V20h102.542c43.379,0,78.67,35.291,78.67,78.67v227.358c0,5.522,4.478,10,10,10
			c5.522,0,10-4.478,10-10V98.67c0-54.407-44.263-98.67-98.67-98.67H154.372c-5.522,0-10,4.478-10,10v33.849
			c-32.506,4.378-58.213,31.019-61.087,64.031c-16.14,10.86-29.684,25.375-39.355,42.269
			c-10.891,19.023-16.647,40.729-16.647,62.768c0,5.522,4.478,10,10,10h233.043C275.847,222.917,280.325,218.439,280.325,212.917z
			 M153.803,63.198c24.513,0,45.14,17.594,49.814,40.818h-99.63C108.663,80.792,129.29,63.198,153.803,63.198z M47.741,202.917
			c2.963-32.148,20.141-60.93,47.363-78.9h117.398c27.223,17.972,44.4,46.753,47.363,78.9H47.741z"/>
		<path d="M355.583,352.407c-5.522,0-10,4.478-10,10v17.051c0,5.522,4.478,10,10,10c5.522,0,10-4.478,10-10v-17.051
			C365.583,356.885,361.106,352.407,355.583,352.407z"/>
		<path d="M438.359,431.47c-22.25-15.064-51.647-23.361-82.775-23.361c-19.815,0-38.919,3.375-55.934,9.704v-22.439
			c0-5.522-4.478-10-10-10c-5.522,0-10,4.478-10,10v31.837c-2.341,1.359-4.635,2.766-6.841,4.259
			c-23.445,15.875-36.357,37.371-36.357,60.53c0,5.522,4.478,10,10,10h218.265c5.522,0,10-4.478,10-10
			C474.716,468.841,461.804,447.345,438.359,431.47z M257.69,482c3.149-12.616,12.228-24.419,26.332-33.969
			c18.975-12.848,44.39-19.923,71.562-19.923c27.173,0,52.587,7.075,71.563,19.923c14.104,9.55,23.183,21.353,26.332,33.969H257.69z
			"/>
		<path d="M138.457,168.245H82.753c-5.522,0-10,4.478-10,10s4.478,10,10,10h55.703c5.522,0,10-4.478,10-10
			S143.979,168.245,138.457,168.245z"/>
		<path d="M105.239,250.749l-30.693,30.693c-3.905,3.905-3.905,10.237,0,14.143c1.953,1.952,4.512,2.929,7.071,2.929
			s5.118-0.977,7.071-2.929l30.693-30.693c3.905-3.905,3.905-10.237,0-14.143C115.475,246.845,109.145,246.845,105.239,250.749z"/>
		<path d="M234.198,281.442l-30.693-30.693c-3.906-3.904-10.236-3.904-14.143,0c-3.905,3.905-3.905,10.237,0,14.143l30.693,30.693
			c1.953,1.952,4.512,2.929,7.071,2.929s5.118-0.977,7.071-2.929C238.103,291.68,238.103,285.348,234.198,281.442z"/>
		<path d="M154.372,258.052c-5.522,0-10,4.478-10,10v32.967c0,5.522,4.478,10,10,10s10-4.478,10-10v-32.967
			C164.372,262.529,159.894,258.052,154.372,258.052z"/>
	</g>
</g>
<g>
</g>
<g>
</g>
<g>
</g>
<g>
</g>
<g>
</g>
<g>
</g>
<g>
</g>
<g>
</g>
<g>
</g>
<g>
</g>
<g>
</g>
<g>
</g>
<g>
</g>
<g>
</g>
<g>
</g>
</svg>
