<?xml version="1.0" encoding="iso-8859-1"?>
<!-- Generator: Adobe Illustrator 19.0.0, SVG Export Plug-In . SVG Version: 6.00 Build 0)  -->
<svg version="1.1" id="Layer_1" xmlns="http://www.w3.org/2000/svg" xmlns:xlink="http://www.w3.org/1999/xlink" x="0px" y="0px"
	 viewBox="0 0 502 502" style="enable-background:new 0 0 502 502;" xml:space="preserve">
<g>
	<path style="fill:#F0EFE4;" d="M191.412,368.255V476.11h119.176V368.255c-18.69,6.392-38.732,9.866-59.588,9.866
		S210.102,374.647,191.412,368.255z"/>
	<path style="fill:#F77E65;" d="M251,10C149.346,10,66.94,92.407,66.94,194.06c0,80.798,52.065,149.431,124.473,174.194
		c18.69,6.392,38.732,9.866,59.588,9.866s40.898-3.474,59.588-9.866c72.408-24.763,124.473-93.396,124.473-174.194
		C435.06,92.407,352.654,10,251,10z"/>
	<g>
		<path d="M445.061,194.061C445.061,87.055,358.005,0,251,0S56.939,87.055,56.939,194.061c0,80.597,49.727,152.517,124.473,181.198
			V476.11c0,5.523,4.478,10,10,10H241V492c0,5.523,4.478,10,10,10s10-4.477,10-10v-5.89h49.588c5.522,0,10-4.477,10-10V375.259
			C395.334,346.577,445.061,274.657,445.061,194.061z M201.412,466.11v-18.401h25.753c5.522,0,10-4.477,10-10s-4.478-10-10-10
			h-25.753v-45.988l-0.01-0.013c16.122,4.254,32.747,6.414,49.598,6.414s33.476-2.16,49.598-6.414l-0.01,0.013v22.183
			c-0.198-0.012-0.393-0.03-0.594-0.03H272c-5.522,0-10,4.477-10,10s4.478,10,10,10h27.994c0.2,0,0.396-0.018,0.594-0.03v42.266
			H201.412z M307.352,358.793c-6.09,2.083-12.279,3.811-18.544,5.2v-102.71l73.212-73.211c3.905-3.905,3.905-10.237,0-14.142
			s-10.235-3.905-14.143,0l-76.141,76.14c-2.016,2.016-2.983,4.679-2.917,7.321c-0.002,0.078-0.012,0.153-0.012,0.231V367.22
			c-5.894,0.599-11.834,0.902-17.808,0.902s-11.914-0.302-17.808-0.902V257.621c0-0.035-0.005-0.069-0.005-0.104
			c0.03-2.598-0.942-5.205-2.923-7.187l-38.401-38.401c-3.906-3.905-10.236-3.905-14.143,0c-3.905,3.905-3.905,10.237,0,14.143
			l35.473,35.473v102.449c-6.265-1.389-12.454-3.117-18.544-5.2c-70.405-24.078-117.709-90.279-117.709-164.732
			C76.939,98.083,155.022,20,251,20s174.061,78.083,174.061,174.061C425.061,268.514,377.757,334.715,307.352,358.793z"/>
		<path d="M154.122,174.324c-3.904-3.905-10.237-3.905-14.142,0c-3.905,3.906-3.905,10.237,0.001,14.142l8.605,8.604
			c1.952,1.953,4.511,2.929,7.07,2.929s5.119-0.977,7.071-2.929c3.905-3.906,3.905-10.237-0.001-14.142L154.122,174.324z"/>
		<path d="M225.723,131.374l-11.217,11.217l-14.813-11.933c-3.98-3.205-9.732-2.895-13.345,0.716l-17.567,17.567
			c-3.905,3.905-3.905,10.237,0,14.142c3.906,3.906,10.236,3.906,14.143,0l11.217-11.217l14.813,11.933
			c1.84,1.482,4.06,2.212,6.271,2.212c2.571,0,5.132-0.987,7.074-2.929l17.567-17.567c3.905-3.905,3.905-10.237,0-14.142
			S229.63,127.469,225.723,131.374z"/>
		<path d="M315.651,131.374c-3.612-3.611-9.364-3.921-13.345-0.716l-14.813,11.933l-11.217-11.217
			c-3.906-3.905-10.236-3.905-14.143,0c-3.905,3.905-3.905,10.237,0,14.142l17.567,17.567c1.942,1.942,4.503,2.929,7.074,2.929
			c2.211,0,4.431-0.73,6.271-2.212l14.813-11.933l11.217,11.217c3.906,3.905,10.236,3.905,14.143,0
			c3.905-3.905,3.905-10.237,0-14.142L315.651,131.374z"/>
	</g>
</g>
<g>
</g>
<g>
</g>
<g>
</g>
<g>
</g>
<g>
</g>
<g>
</g>
<g>
</g>
<g>
</g>
<g>
</g>
<g>
</g>
<g>
</g>
<g>
</g>
<g>
</g>
<g>
</g>
<g>
</g>
</svg>
