<?xml version="1.0" encoding="iso-8859-1"?>
<!-- Generator: Adobe Illustrator 19.0.0, SVG Export Plug-In . SVG Version: 6.00 Build 0)  -->
<svg version="1.1" id="Layer_1" xmlns="http://www.w3.org/2000/svg" xmlns:xlink="http://www.w3.org/1999/xlink" x="0px" y="0px"
	 viewBox="0 0 502.001 502.001" style="enable-background:new 0 0 502.001 502.001;" xml:space="preserve">
<g>
	<path style="fill:#F0EFE4;" d="M332.765,225.723L492.001,66.486h-112.26L251.001,193.7L122.261,66.486H10.001l159.237,159.237
		c21.517-19.787,50.227-31.872,81.763-31.872S311.248,205.936,332.765,225.723z"/>
	<path style="fill:#F77E65;" d="M332.765,225.723c-21.517-19.787-50.228-31.872-81.764-31.872s-60.246,12.086-81.763,31.872
		c-24.015,22.084-39.069,53.762-39.069,88.96c0,66.734,54.099,120.833,120.833,120.833s120.833-54.099,120.833-120.833
		C371.834,279.485,356.78,247.807,332.765,225.723z"/>
	<g>
		<path d="M501.24,62.66c-1.548-3.737-5.194-6.173-9.239-6.173h-112.26c-2.631,0-5.157,1.037-7.029,2.887L251.001,179.641
			L129.29,59.373c-1.872-1.85-4.397-2.887-7.029-2.887H10.001c-4.044,0-7.691,2.437-9.239,6.173
			c-1.548,3.737-0.692,8.038,2.167,10.898l152.16,152.16c-22.305,24.081-34.922,55.955-34.922,88.966
			c0,72.141,58.691,130.833,130.833,130.833s130.833-58.691,130.833-130.833c0-33.01-12.617-64.885-34.922-88.966l152.16-152.16
			C501.932,70.698,502.788,66.397,501.24,62.66z M118.154,76.487l110.572,109.261l-0.028,0.012
			c-21.48,3.699-41.704,12.709-58.907,26.351l-0.016,0.007L34.143,76.487H118.154z M251.001,425.516
			c-61.113,0-110.833-49.719-110.833-110.833c0-30.914,13.063-60.655,35.839-81.6c20.5-18.852,47.133-29.233,74.994-29.233
			s54.494,10.382,74.994,29.233c22.776,20.944,35.839,50.686,35.839,81.6C361.834,375.797,312.115,425.516,251.001,425.516z
			 M332.227,212.118l-0.016-0.007c-17.203-13.642-37.427-22.652-58.907-26.351l-0.028-0.012L383.849,76.487h84.011L332.227,212.118z
			"/>
		<path d="M376.93,113.573c1.953,1.953,4.512,2.929,7.071,2.929s5.119-0.976,7.071-2.929l7-7c3.905-3.905,3.905-10.237,0-14.143
			c-3.905-3.905-10.237-3.905-14.143,0l-7,7C373.025,103.335,373.025,109.667,376.93,113.573z"/>
		<path d="M352.93,123.43l-44.5,44.5c-3.905,3.905-3.905,10.237,0,14.143c1.953,1.953,4.512,2.929,7.071,2.929
			s5.119-0.976,7.071-2.929l44.5-44.5c3.905-3.905,3.905-10.237,0-14.143C363.167,119.525,356.835,119.525,352.93,123.43z"/>
		<path d="M261.001,225.85c0-5.523-4.477-10-10-10c-24.845,0-48.597,9.259-66.879,26.071c-4.065,3.738-4.33,10.064-0.592,14.13
			c1.972,2.144,4.663,3.231,7.363,3.231c2.419,0,4.846-0.873,6.767-2.639c14.581-13.408,33.524-20.792,53.341-20.792
			C256.524,235.85,261.001,231.372,261.001,225.85z"/>
		<path d="M168.417,280.393c-5.305-1.534-10.849,1.527-12.381,6.833c-2.566,8.889-3.868,18.127-3.868,27.457c0,5.523,4.477,10,10,10
			s10-4.477,10-10c0-7.452,1.037-14.823,3.083-21.909C176.783,287.469,173.723,281.925,168.417,280.393z"/>
		<path d="M255.001,255.001c-0.163,0-0.322,0.017-0.484,0.024c-2.729-0.14-5.504,0.82-7.588,2.904l-36,36
			c-3.905,3.905-3.905,10.237,0,14.143c1.953,1.953,4.512,2.929,7.071,2.929s5.119-0.976,7.071-2.929l19.93-19.928v87.857
			c0,5.523,4.477,10,10,10c5.523,0,10-4.477,10-10v-111C265.001,259.478,260.524,255.001,255.001,255.001z"/>
	</g>
</g>
<g>
</g>
<g>
</g>
<g>
</g>
<g>
</g>
<g>
</g>
<g>
</g>
<g>
</g>
<g>
</g>
<g>
</g>
<g>
</g>
<g>
</g>
<g>
</g>
<g>
</g>
<g>
</g>
<g>
</g>
</svg>
