<?xml version="1.0" encoding="iso-8859-1"?>
<!-- Generator: Adobe Illustrator 19.0.0, SVG Export Plug-In . SVG Version: 6.00 Build 0)  -->
<svg version="1.1" id="Layer_1" xmlns="http://www.w3.org/2000/svg" xmlns:xlink="http://www.w3.org/1999/xlink" x="0px" y="0px"
	 viewBox="0 0 502 502" style="enable-background:new 0 0 502 502;" xml:space="preserve">
<g>
	<path style="fill:#F77E65;" d="M154.871,50.617c-66.55,0-120.5,53.95-120.5,120.5c0,54.22,35.812,100.073,85.072,115.203
		L88.529,491.999h135.393V50.617H154.871z"/>
	<polygon style="fill:#F0EFE4;" points="467.63,332.235 357.961,291.617 223.922,291.617 223.922,50.617 357.961,50.617 
		467.63,9.999 	"/>
	<rect x="223.922" y="329.527" style="fill:#F0EFE4;" width="50.096" height="60.927"/>
	<g>
		<path d="M473.343,1.791c-2.686-1.868-6.115-2.305-9.186-1.17L356.169,40.617H223.922h-69.051c-71.958,0-130.5,58.542-130.5,130.5
			c0,28.48,9.014,55.544,26.066,78.263c14.742,19.641,35.067,34.925,57.882,43.675L78.64,490.513
			c-0.433,2.879,0.411,5.804,2.31,8.011c1.9,2.207,4.667,3.476,7.579,3.476h135.393c5.523,0,10-4.478,10-10v-91.545h40.096
			c5.523,0,10-4.478,10-10v-60.927c0-5.522-4.477-10-10-10h-40.096v-17.91h122.247l107.988,39.996
			c1.127,0.417,2.302,0.622,3.472,0.622c2.016,0,4.014-0.609,5.714-1.792c2.686-1.87,4.287-4.936,4.287-8.208V9.999
			C477.63,6.727,476.028,3.661,473.343,1.791z M213.922,481.999H100.144l29.188-194.192c0.735-4.896-2.221-9.592-6.953-11.046
			c-46.66-14.332-78.009-56.787-78.009-105.644c0-60.93,49.57-110.5,110.5-110.5h59.051v421.382H213.922z M264.018,339.528v40.927
			h-30.096v-40.927H264.018z M457.63,317.868l-96.196-35.629c-1.112-0.411-2.288-0.622-3.473-0.622H233.922v-221h124.039
			c1.186,0,2.361-0.211,3.473-0.622l96.196-35.629L457.63,317.868L457.63,317.868z"/>
		<path d="M188.001,355.993c-5.523,0-10,4.478-10,10v88.006c0,5.522,4.477,10,10,10s10-4.478,10-10v-88.006
			C198.001,360.471,193.524,355.993,188.001,355.993z"/>
		<path d="M314.635,79.881H264.54c-5.523,0-10,4.478-10,10s4.477,10,10,10h50.095c5.523,0,10-4.478,10-10
			S320.158,79.881,314.635,79.881z"/>
		<path d="M345.254,89.881c0,5.522,4.477,10,10,10h13.539c5.523,0,10-4.478,10-10s-4.477-10-10-10h-13.539
			C349.731,79.881,345.254,84.359,345.254,89.881z"/>
	</g>
</g>
<g>
</g>
<g>
</g>
<g>
</g>
<g>
</g>
<g>
</g>
<g>
</g>
<g>
</g>
<g>
</g>
<g>
</g>
<g>
</g>
<g>
</g>
<g>
</g>
<g>
</g>
<g>
</g>
<g>
</g>
</svg>
