<?xml version="1.0" encoding="iso-8859-1"?>
<!-- Generator: Adobe Illustrator 19.0.0, SVG Export Plug-In . SVG Version: 6.00 Build 0)  -->
<svg version="1.1" id="Layer_1" xmlns="http://www.w3.org/2000/svg" xmlns:xlink="http://www.w3.org/1999/xlink" x="0px" y="0px"
	 viewBox="0 0 502.002 502.002" style="enable-background:new 0 0 502.002 502.002;" xml:space="preserve">
<g>
	
		<rect x="152.214" y="152.448" transform="matrix(-0.9029 -0.4298 0.4298 -0.9029 250.3366 431.9898)" style="fill:#F77E65;" width="43.481" height="70.55"/>
	<path style="fill:#F77E65;" d="M227.232,99.066c0-17.361,14.074-31.435,31.435-31.435c3.522,0,6.904,0.588,10.065,1.656
		l14.035-29.481l-62.606-29.805l-62.355,130.978l62.606,29.805l21.487-45.134C233.088,120.081,227.232,110.26,227.232,99.066z"/>
	<circle style="fill:#F0EFE4;" cx="258.667" cy="99.066" r="31.435"/>
	<g>
		<rect x="103.588" y="460.566" style="fill:#F77E65;" width="308.061" height="31.435"/>
		<g>
			<path d="M130.533,392.109c-3.663-4.133-9.984-4.515-14.116-0.85c-4.133,3.664-4.513,9.984-0.85,14.117
				c5.997,6.765,12.3,12.932,19.27,18.854c1.881,1.598,4.182,2.379,6.47,2.379c2.833,0,5.648-1.197,7.625-3.525
				c3.576-4.209,3.063-10.52-1.146-14.096C141.543,403.683,135.899,398.161,130.533,392.109z"/>
			<path d="M175.41,362.07c0-5.522-4.477-10-10-10H63.155c-5.523,0-10,4.478-10,10s4.477,10,10,10H165.41
				C170.933,372.07,175.41,367.593,175.41,362.07z"/>
			<path d="M411.649,450.567h-70.621c63.75-30.879,107.818-96.235,107.818-171.693c0-89.71-62.357-166.911-149.226-186.12
				c-1.779-11.589-8.38-21.609-17.68-27.947l9.855-20.701c2.374-4.987,0.256-10.954-4.73-13.328L224.459,0.972
				c-4.985-2.371-10.953-0.255-13.327,4.73L148.776,136.68c-2.374,4.987-0.256,10.954,4.73,13.328l2.644,1.259l-26.028,54.673
				c-2.374,4.987-0.256,10.954,4.73,13.328l39.26,18.69c1.387,0.66,2.851,0.973,4.292,0.973c3.737,0,7.322-2.104,9.036-5.703
				l26.029-54.673l2.644,1.259c1.355,0.646,2.825,0.971,4.298,0.971c1.129,0,2.261-0.191,3.345-0.576
				c2.5-0.887,4.544-2.73,5.684-5.125l17.3-36.339c3.779,1.138,7.781,1.757,11.926,1.757c18.021,0,33.384-11.569,39.073-27.667
				c76.467,18.087,131.106,86.581,131.106,166.039c0,94.094-76.551,170.646-170.646,170.646c-24.33,0-47.824-5.011-69.832-14.894
				c-5.038-2.265-10.956-0.013-13.219,5.025c-1.698,3.783-0.853,8.061,1.806,10.916h-73.368c-5.523,0-10,4.478-10,10v31.435
				c0,5.522,4.477,10,10,10h308.061c5.522,0,10-4.478,10-10v-31.435C421.649,455.044,417.171,450.567,411.649,450.567z
				 M173.681,215.602l-21.202-10.094l21.729-45.644l21.202,10.094L173.681,215.602z M171.133,136.248l53.758-112.92l44.548,21.208
				l-6.348,13.332l0.003,0.003c-1.455-0.155-2.932-0.24-4.428-0.24c-22.847,0-41.435,18.588-41.435,41.435
				c0,11.493,4.706,21.905,12.29,29.418l-0.046-0.003l-13.794,28.976L171.133,136.248z M258.667,120.501
				c-11.819,0-21.435-9.615-21.435-21.435s9.616-21.435,21.435-21.435c11.819,0,21.435,9.615,21.435,21.435
				S270.486,120.501,258.667,120.501z M401.649,482.001H113.588v-11.435h288.061V482.001z"/>
		</g>
	</g>
</g>
<g>
</g>
<g>
</g>
<g>
</g>
<g>
</g>
<g>
</g>
<g>
</g>
<g>
</g>
<g>
</g>
<g>
</g>
<g>
</g>
<g>
</g>
<g>
</g>
<g>
</g>
<g>
</g>
<g>
</g>
</svg>
