<?xml version="1.0" encoding="iso-8859-1"?>
<!-- Generator: Adobe Illustrator 19.0.0, SVG Export Plug-In . SVG Version: 6.00 Build 0)  -->
<svg version="1.1" id="Layer_1" xmlns="http://www.w3.org/2000/svg" xmlns:xlink="http://www.w3.org/1999/xlink" x="0px" y="0px"
	 viewBox="0 0 502 502" style="enable-background:new 0 0 502 502;" xml:space="preserve">
<g>
	<g>
		<polygon style="fill:#F0EFE4;" points="251,291.979 131,248.5 131,384.66 371,384.66 371,248.5 		"/>
		<polygon style="fill:#F77E65;" points="251,117.341 10,204.66 131,248.5 251,291.979 371,248.5 492,204.66 		"/>
	</g>
	<g>
		<path d="M495.406,195.258l-241-87.319c-2.2-0.798-4.611-0.798-6.813,0l-241,87.319C2.636,196.692,0,200.45,0,204.66
			s2.636,7.968,6.593,9.402L121,255.513V384.66c0,5.523,4.477,10,10,10h240c5.522,0,10-4.477,10-10V255.513l65-23.551v89.697
			c0,5.523,4.478,10,10,10s10-4.477,10-10v-96.944l29.406-10.654c3.958-1.434,6.594-5.192,6.594-9.402
			S499.364,196.692,495.406,195.258z M251,281.342L39.356,204.66L251,127.977l211.645,76.683L251,281.342z M361,262.76v111.9H141
			v-111.9l47.951,17.374l58.642,21.247c0.23,0.083,0.464,0.153,0.699,0.219c2.006,0.565,4.144,0.496,6.114-0.219L361,262.76z"/>
		<path d="M456,347.66c-5.522,0-10,4.477-10,10v17c0,5.523,4.478,10,10,10s10-4.477,10-10v-17
			C466,352.137,461.522,347.66,456,347.66z"/>
		<path d="M154,353.66c0,5.523,4.477,10,10,10h93c5.522,0,10-4.477,10-10s-4.478-10-10-10h-93
			C158.477,343.66,154,348.137,154,353.66z"/>
	</g>
</g>
<g>
</g>
<g>
</g>
<g>
</g>
<g>
</g>
<g>
</g>
<g>
</g>
<g>
</g>
<g>
</g>
<g>
</g>
<g>
</g>
<g>
</g>
<g>
</g>
<g>
</g>
<g>
</g>
<g>
</g>
</svg>
