<?xml version="1.0" encoding="iso-8859-1"?>
<!-- Generator: Adobe Illustrator 19.0.0, SVG Export Plug-In . SVG Version: 6.00 Build 0)  -->
<svg version="1.1" id="Layer_1" xmlns="http://www.w3.org/2000/svg" xmlns:xlink="http://www.w3.org/1999/xlink" x="0px" y="0px"
	 viewBox="0 0 502 502" style="enable-background:new 0 0 502 502;" xml:space="preserve">
<g>
	<path style="fill:#F0EFE4;" d="M453,119.535V46h-75.255C407.908,64.688,433.637,89.843,453,119.535z"/>
	<path style="fill:#F0EFE4;" d="M124.255,46H45v79.857C64.756,93.406,91.971,66.003,124.255,46z"/>
	<path style="fill:#F77E65;" d="M453,119.535C433.637,89.843,407.908,64.688,377.745,46C340.921,23.185,297.503,10,251,10
		s-89.921,13.185-126.745,36C91.971,66.003,64.756,93.406,45,125.857C22.793,162.334,10,205.173,10,251
		c0,133.101,107.899,241,241,241s241-107.899,241-241C492,202.494,477.658,157.344,453,119.535z"/>
	<path style="fill:#F0EFE4;" d="M251,209.5C251,145.159,198.841,93,134.5,93S18,145.159,18,209.5S70.159,326,134.5,326
		c23.427,0,45.235-6.921,63.502-18.821l-0.001,0.001L251,360.179l52.999-52.999l-0.001-0.001C322.265,319.079,344.073,326,367.5,326
		c64.341,0,116.5-52.159,116.5-116.5S431.841,93,367.5,93S251,145.159,251,209.5z"/>
	<g>
		<circle style="fill:#F77E65;" cx="134.5" cy="209.5" r="29.125"/>
		<circle style="fill:#F77E65;" cx="367.5" cy="209.5" r="29.125"/>
	</g>
	<g>
		<path d="M463,116.612V46c0-5.522-4.477-10-10-10h-72.455C341.526,12.444,296.801,0,251,0s-90.526,12.444-129.545,36H45
			c-5.523,0-10,4.478-10,10v77.1C12.098,161.704,0,205.86,0,251c0,67.045,26.108,130.076,73.516,177.483
			C120.924,475.892,183.956,502,251,502s130.076-26.108,177.484-73.517C475.892,381.076,502,318.045,502,251
			C502,203.181,488.519,156.785,463,116.612z M134.5,103c58.724,0,106.5,47.775,106.5,106.5c0,4.513-0.285,8.96-0.832,13.327
			c-0.073,0.587-0.158,1.171-0.241,1.756C232.578,276.19,188.104,316,134.5,316C75.776,316,28,268.225,28,209.5
			S75.776,103,134.5,103z M251,258.899c8.154,19.249,21.027,36.278,37.629,49.508L251,346.036l-37.629-37.629
			C229.973,295.178,242.846,278.148,251,258.899z M262.073,224.583c-0.083-0.585-0.168-1.169-0.241-1.756
			C261.285,218.46,261,214.013,261,209.5c0-58.725,47.776-106.5,106.5-106.5S474,150.775,474,209.5S426.224,316,367.5,316
			C313.896,316,269.422,276.19,262.073,224.583z M443,56v33.381l0.019,0.059c-10.278-12.181-21.716-23.409-34.087-33.457L408.988,56
			H443z M372.478,54.501c18,11.152,34.514,24.888,48.881,40.555C405.008,87.33,386.752,83,367.5,83
			c-52.276,0-97.247,31.875-116.5,77.209C231.747,114.875,186.776,83,134.5,83c-19.244,0-37.494,4.327-53.84,12.047
			c14.346-15.646,30.812-29.362,48.862-40.546C165.95,31.93,207.957,20,251,20S336.05,31.93,372.478,54.501z M55,56h37.998
			l0.059-0.019C79.048,67.353,66.26,80.22,54.98,94.29L55,94.225V56z M251,482c-122.996,0-223.837-96.628-230.624-217.957
			C40.781,306.567,84.267,336,134.5,336c22.489,0,43.622-5.906,61.941-16.238l47.488,47.488c1.953,1.952,4.512,2.929,7.071,2.929
			s5.119-0.977,7.071-2.929l47.488-47.488C323.878,330.094,345.011,336,367.5,336c50.233,0,93.719-29.433,114.124-71.957
			C474.837,385.372,373.996,482,251,482z"/>
		<path d="M365.14,409.123C331.779,433.248,292.31,446,251,446c-12.153,0-24.318-1.125-36.158-3.344
			c-5.429-1.015-10.654,2.559-11.671,7.987s2.559,10.653,7.987,11.671C224.209,464.76,237.614,466,251,466
			c45.545,0,89.067-14.063,125.86-40.67c4.475-3.236,5.479-9.488,2.243-13.963C375.868,406.89,369.615,405.888,365.14,409.123z"/>
		<path d="M157.792,422.326c-14.07-7.673-27.195-17.091-39.009-27.994c-4.059-3.746-10.385-3.492-14.131,0.566
			s-3.492,10.386,0.566,14.131c13.021,12.017,27.488,22.398,43,30.855c1.52,0.829,3.161,1.223,4.778,1.223
			c3.542,0,6.974-1.886,8.789-5.215C164.428,431.044,162.641,424.97,157.792,422.326z"/>
		<path d="M134.5,248.625c21.574,0,39.125-17.552,39.125-39.125s-17.551-39.125-39.125-39.125S95.375,187.927,95.375,209.5
			S112.926,248.625,134.5,248.625z M134.5,190.375c10.545,0,19.125,8.579,19.125,19.125s-8.58,19.125-19.125,19.125
			s-19.125-8.579-19.125-19.125S123.955,190.375,134.5,190.375z"/>
		<path d="M406.625,209.5c0-21.573-17.551-39.125-39.125-39.125s-39.125,17.552-39.125,39.125s17.551,39.125,39.125,39.125
			S406.625,231.073,406.625,209.5z M348.375,209.5c0-10.546,8.58-19.125,19.125-19.125s19.125,8.579,19.125,19.125
			s-8.58,19.125-19.125,19.125S348.375,220.046,348.375,209.5z"/>
		<path d="M367.5,137c39.977,0,72.5,32.523,72.5,72.5c0,5.522,4.477,10,10,10s10-4.478,10-10c0-51.005-41.495-92.5-92.5-92.5
			c-5.523,0-10,4.478-10,10S361.977,137,367.5,137z"/>
	</g>
</g>
<g>
</g>
<g>
</g>
<g>
</g>
<g>
</g>
<g>
</g>
<g>
</g>
<g>
</g>
<g>
</g>
<g>
</g>
<g>
</g>
<g>
</g>
<g>
</g>
<g>
</g>
<g>
</g>
<g>
</g>
</svg>
