<?xml version="1.0" encoding="iso-8859-1"?>
<!-- Generator: Adobe Illustrator 19.0.0, SVG Export Plug-In . SVG Version: 6.00 Build 0)  -->
<svg version="1.1" id="Layer_1" xmlns="http://www.w3.org/2000/svg" xmlns:xlink="http://www.w3.org/1999/xlink" x="0px" y="0px"
	 viewBox="0 0 505.462 505.462" style="enable-background:new 0 0 505.462 505.462;" xml:space="preserve">
<g>
	<g>
		<path style="fill:#F0EFE4;" d="M492,252.731c27.192,130.293-107.899,241-241,241s-241-107.899-241-241s107.899-241,241-241
			c57.63,0,186.46,29.008,52,123C200,206.731,468,137.731,492,252.731z"/>
		<path d="M251,503.731c-67.045,0-130.076-26.108-177.483-73.516C26.108,382.808,0,319.776,0,252.731S26.108,122.655,73.517,75.248
			C120.924,27.84,183.955,1.731,251,1.731c22.187,0,47.495,3.762,67.7,10.063c28.818,8.988,46.209,22.369,51.689,39.773
			c4.129,13.115,1.086,27.422-9.045,42.525c-10.104,15.062-27.807,31.492-52.615,48.835c-12.018,8.4-16.557,13.283-18.258,15.652
			c1.893,0.874,5.696,2.187,13.107,3.514c9.211,1.65,20.867,2.84,34.363,4.219c59.502,6.077,149.423,15.261,163.847,84.375
			c11.178,53.56-3.347,108.498-40.898,154.695c-23.858,29.352-55.981,54.069-92.896,71.479
			C330.723,494.44,290.267,503.731,251,503.731z M251,21.731c-127.374,0-231,103.626-231,231s103.626,231,231,231
			c73.159,0,149.455-35.705,194.371-90.963c23.826-29.312,49.559-77.047,36.84-137.994c-11.435-54.791-89.384-62.751-146.301-68.564
			c-38.476-3.93-61.699-6.302-65.854-22.299c-3.546-13.649,10.984-26.03,27.215-37.375c40.039-27.988,59.231-52.479,54.042-68.96
			c-3.301-10.482-16.997-19.959-38.566-26.687C291.1,24.137,266.656,21.731,251,21.731z"/>
	</g>
	<g>
		<circle style="fill:#F77E65;" cx="414.5" cy="287.231" r="33.5"/>
		<path d="M414.5,330.731c-23.986,0-43.5-19.514-43.5-43.5s19.514-43.5,43.5-43.5s43.5,19.514,43.5,43.5
			S438.486,330.731,414.5,330.731z M414.5,263.731c-12.958,0-23.5,10.542-23.5,23.5s10.542,23.5,23.5,23.5s23.5-10.542,23.5-23.5
			S427.458,263.731,414.5,263.731z"/>
	</g>
	<g>
		<circle style="fill:#F77E65;" cx="324.5" cy="397.231" r="33.5"/>
		<path d="M324.5,440.731c-23.986,0-43.5-19.514-43.5-43.5s19.514-43.5,43.5-43.5s43.5,19.514,43.5,43.5
			S348.486,440.731,324.5,440.731z M324.5,373.731c-12.958,0-23.5,10.542-23.5,23.5s10.542,23.5,23.5,23.5s23.5-10.542,23.5-23.5
			S337.458,373.731,324.5,373.731z"/>
	</g>
	<g>
		<circle style="fill:#F77E65;" cx="172.5" cy="382.231" r="33.5"/>
		<path d="M172.5,425.731c-23.986,0-43.5-19.514-43.5-43.5s19.514-43.5,43.5-43.5s43.5,19.514,43.5,43.5
			S196.486,425.731,172.5,425.731z M172.5,358.731c-12.958,0-23.5,10.542-23.5,23.5s10.542,23.5,23.5,23.5s23.5-10.542,23.5-23.5
			S185.458,358.731,172.5,358.731z"/>
	</g>
	<g>
		<circle style="fill:#F77E65;" cx="101.5" cy="267.231" r="33.5"/>
		<path d="M101.5,310.731c-23.986,0-43.5-19.514-43.5-43.5s19.514-43.5,43.5-43.5s43.5,19.514,43.5,43.5
			S125.486,310.731,101.5,310.731z M101.5,243.731c-12.958,0-23.5,10.542-23.5,23.5s10.542,23.5,23.5,23.5s23.5-10.542,23.5-23.5
			S114.458,243.731,101.5,243.731z"/>
	</g>
	<g>
		<circle style="fill:#F77E65;" cx="136.5" cy="136.231" r="33.5"/>
		<path d="M136.5,179.731c-23.986,0-43.5-19.514-43.5-43.5s19.514-43.5,43.5-43.5s43.5,19.514,43.5,43.5
			S160.486,179.731,136.5,179.731z M136.5,112.731c-12.958,0-23.5,10.542-23.5,23.5s10.542,23.5,23.5,23.5s23.5-10.542,23.5-23.5
			S149.458,112.731,136.5,112.731z"/>
	</g>
	<g>
		<path d="M282.013,228.609c-0.494,0-0.994-0.037-1.498-0.112c-21.854-3.282-36.049-5.639-42.191-7.004
			c-11.341-2.52-31.932-12.243-37.17-32.7c-4.958-19.361,5.722-40.753,31.744-63.58c4.152-3.642,10.471-3.229,14.112,0.923
			s3.229,10.47-0.923,14.112c-19.336,16.961-28.413,32.439-25.559,43.583c2.614,10.211,14.964,16.544,22.133,18.138
			c3.913,0.869,14.173,2.746,40.824,6.749c5.462,0.82,9.224,5.913,8.403,11.375C291.145,225.051,286.878,228.609,282.013,228.609z"
			/>
	</g>
	<g>
		<path d="M345.505,237.732c-0.455,0-0.915-0.031-1.379-0.095c0,0-6.592-0.909-16.524-2.311c-5.469-0.772-9.276-5.831-8.504-11.299
			c0.771-5.469,5.841-9.272,11.299-8.504c9.89,1.396,16.454,2.301,16.462,2.302c5.471,0.754,9.295,5.801,8.54,11.272
			C354.708,234.105,350.421,237.732,345.505,237.732z"/>
	</g>
</g>
<g>
</g>
<g>
</g>
<g>
</g>
<g>
</g>
<g>
</g>
<g>
</g>
<g>
</g>
<g>
</g>
<g>
</g>
<g>
</g>
<g>
</g>
<g>
</g>
<g>
</g>
<g>
</g>
<g>
</g>
</svg>
