<?xml version="1.0" encoding="iso-8859-1"?>
<!-- Generator: Adobe Illustrator 19.0.0, SVG Export Plug-In . SVG Version: 6.00 Build 0)  -->
<svg version="1.1" id="Layer_1" xmlns="http://www.w3.org/2000/svg" xmlns:xlink="http://www.w3.org/1999/xlink" x="0px" y="0px"
	 viewBox="0 0 502.966 502.966" style="enable-background:new 0 0 502.966 502.966;" xml:space="preserve">
<g>
	<path style="fill:#F77E65;" d="M169.894,371.492c-2.902-8.542-7.748-16.569-14.558-23.38c-7.186-7.186-15.727-12.181-24.797-15.015
		c-20.889-6.528-44.601-1.532-61.149,15.015c-23.733,23.733-58.907,144.853-58.907,144.853s121.12-35.174,144.853-58.907
		C172.259,417.136,177.105,392.718,169.894,371.492z"/>
	<g>
		<path style="fill:#F0EFE4;" d="M130.539,333.098c9.07,2.835,17.612,7.83,24.797,15.015c6.81,6.81,11.656,14.838,14.558,23.38
			l99.746-88.694l-49.955-49.955L130.539,333.098z"/>
		<path style="fill:#F77E65;" d="M477.394,25.09L477.394,25.09c-20.957-20.957-55.233-19.953-74.927,2.195L219.685,232.843
			l49.955,49.955l205.558-182.782C497.347,80.323,498.351,46.047,477.394,25.09z"/>
	</g>
	<g>
		<path d="M127.129,321.883c-23.369-4.999-47.702,2.051-64.811,19.159C37.487,365.874,4.553,477.528,0.88,490.177
			c-1.018,3.503-0.047,7.281,2.532,9.86c1.902,1.902,4.457,2.929,7.072,2.929c0.93,0,1.869-0.13,2.788-0.397
			c12.65-3.673,124.304-36.607,149.136-61.439c17.591-17.591,24.51-42.496,18.825-66.339l300.61-267.301
			c12.791-11.374,20.112-27.061,20.613-44.17s-5.889-33.198-17.992-45.301s-28.205-18.488-45.3-17.992
			c-17.11,0.501-32.796,7.822-44.17,20.613L127.129,321.883z M220.112,247.412l34.959,34.96l-14.675,13.049l-9.907-9.907
			c-3.905-3.905-10.237-3.905-14.143,0c-3.905,3.905-3.905,10.237,0,14.143l9.077,9.077l-52.112,46.337l-0.006,0.046
			c-3.003-5.091-6.629-9.806-10.898-14.076c-4.535-4.535-9.684-8.434-15.255-11.58h0.001L220.112,247.412z M148.265,426.988
			c-14.201,14.202-75.805,36.5-122.862,51.058c14.558-47.057,36.856-108.661,51.058-122.862
			c9.682-9.682,22.591-14.877,35.845-14.877c5.086,0,10.225,0.766,15.25,2.336c7.883,2.463,14.851,6.683,20.709,12.541
			c5.555,5.555,9.646,12.125,12.16,19.525C166.701,393.18,162.041,413.212,148.265,426.988z M482.465,62.734
			c-0.338,11.547-5.279,22.134-13.912,29.81l-198.51,176.515l-18.31-18.31l-18.308-18.308L409.94,33.93
			c7.676-8.633,18.263-13.573,29.81-13.912c11.538-0.332,22.405,3.974,30.573,12.143S482.803,51.187,482.465,62.734z"/>
		<path d="M405.077,61.764l-12.704,14c-3.711,4.09-3.404,10.414,0.686,14.125c1.915,1.738,4.319,2.594,6.717,2.594
			c2.722,0,5.435-1.105,7.409-3.28l12.704-14c3.711-4.09,3.404-10.414-0.686-14.125C415.113,57.366,408.789,57.673,405.077,61.764z"
			/>
		<path d="M357.892,113.764l-99.815,110c-3.711,4.09-3.404,10.414,0.686,14.125c1.915,1.738,4.319,2.594,6.717,2.594
			c2.722,0,5.435-1.105,7.409-3.28l99.815-110c3.711-4.09,3.404-10.414-0.686-14.125
			C367.928,109.366,361.604,109.673,357.892,113.764z"/>
		<path d="M80.127,390.171c-5.142-2.012-10.943,0.524-12.957,5.668l-18,46c-2.012,5.143,0.525,10.944,5.668,12.957
			c1.197,0.468,2.429,0.69,3.642,0.69c3.996,0,7.771-2.412,9.315-6.358l18-46C87.808,397.984,85.27,392.184,80.127,390.171z"/>
	</g>
</g>
<g>
</g>
<g>
</g>
<g>
</g>
<g>
</g>
<g>
</g>
<g>
</g>
<g>
</g>
<g>
</g>
<g>
</g>
<g>
</g>
<g>
</g>
<g>
</g>
<g>
</g>
<g>
</g>
<g>
</g>
</svg>
