<?xml version="1.0" encoding="iso-8859-1"?>
<!-- Generator: Adobe Illustrator 19.0.0, SVG Export Plug-In . SVG Version: 6.00 Build 0)  -->
<svg version="1.1" id="Layer_1" xmlns="http://www.w3.org/2000/svg" xmlns:xlink="http://www.w3.org/1999/xlink" x="0px" y="0px"
	 viewBox="0 0 502 502" style="enable-background:new 0 0 502 502;" xml:space="preserve">
<g>
	<g>
		<path style="fill:#F77E65;" d="M388.957,181.924H113.045c-13.956,0-25.269,11.313-25.269,25.269v0.63
			c0,13.956,11.313,25.269,25.269,25.269h-0.708V492h277.329V233.091h-0.708c13.956,0,25.269-11.313,25.269-25.269v-0.63
			C414.226,193.237,402.913,181.924,388.957,181.924z"/>
	</g>
	<g>
		<polygon style="fill:#F0EFE4;" points="201.368,65.261 201.368,10 167.598,10 167.598,65.261 159.411,65.261 159.411,181.924 
			209.555,181.924 209.555,65.261 		"/>
		<g>
			<polygon style="fill:#F0EFE4;" points="323.147,26.374 302.68,75.495 302.68,80.611 302.68,181.924 342.591,181.924 
				342.591,80.611 342.591,75.495 			"/>
			<g>
				<path d="M388.957,171.924h-36.366V80.611v-5.116c0-1.26-0.238-2.509-0.702-3.681l-19.443-49.121
					c-1.497-3.784-5.139-6.282-9.208-6.319c-0.03,0-0.061,0-0.091,0c-4.033,0-7.676,2.425-9.229,6.154l-20.467,49.121
					c-0.508,1.219-0.77,2.525-0.77,3.846v5.116v91.313h-73.126V97.775h7.738c2.763,0,5.01,2.247,5.01,5.009v57.649
					c0,5.522,4.478,10,10,10s10-4.478,10-10v-57.649c0-13.79-11.22-25.009-25.01-25.009h-7.738V65.261
					c0-4.902-3.531-8.973-8.187-9.828V10c0-5.522-4.478-10-10-10h-33.771c-5.522,0-10,4.478-10,10v45.433
					c-4.656,0.854-8.187,4.925-8.187,9.828v106.663h-36.366c-19.447,0-35.269,15.821-35.269,35.269v0.63
					c0,15.715,10.333,29.057,24.561,33.602V492c0,5.522,4.478,10,10,10h277.328c5.522,0,10-4.478,10-10V241.424
					c14.227-4.544,24.561-17.887,24.561-33.602v-0.63C424.226,187.745,408.404,171.924,388.957,171.924z M322.91,52.944
					l6.992,17.667h-14.354L322.91,52.944z M312.681,90.611h19.91v81.313h-19.91V90.611z M177.598,20h13.771v35.261h-13.771V20z
					 M169.411,75.261h30.144v96.663h-30.144V75.261z M379.665,482H262.352l52.005-52.005c3.905-3.905,3.905-10.237,0-14.143
					c-3.906-3.904-10.236-3.904-14.143,0L234.066,482h-69.957l168.668-168.668c3.905-3.905,3.905-10.237,0-14.143
					c-3.906-3.904-10.236-3.904-14.143,0L135.966,481.858c-0.046,0.045-0.083,0.095-0.128,0.142h-13.501v-66.884
					c0.405-0.297,0.798-0.618,1.164-0.984l71.123-71.123c3.905-3.905,3.905-10.237,0-14.143c-3.906-3.904-10.236-3.904-14.143,0
					l-58.145,58.145v-143.92h257.328V482H379.665z M388.957,191.924c8.419,0,15.269,6.85,15.269,15.269v0.63
					c0,8.419-6.85,15.269-15.269,15.269H113.045c-8.419,0-15.269-6.85-15.269-15.269v-0.63c0-8.419,6.85-15.269,15.269-15.269
					H388.957z"/>
				<path d="M213.648,319.843c2.56,0,5.118-0.977,7.071-2.929l25.072-25.072c3.905-3.905,3.905-10.237,0-14.143
					c-3.906-3.904-10.236-3.904-14.143,0l-25.072,25.072c-3.905,3.905-3.905,10.237,0,14.143
					C208.53,318.866,211.089,319.843,213.648,319.843z"/>
			</g>
		</g>
	</g>
</g>
<g>
</g>
<g>
</g>
<g>
</g>
<g>
</g>
<g>
</g>
<g>
</g>
<g>
</g>
<g>
</g>
<g>
</g>
<g>
</g>
<g>
</g>
<g>
</g>
<g>
</g>
<g>
</g>
<g>
</g>
</svg>
