<?xml version="1.0" encoding="iso-8859-1"?>
<!-- Generator: Adobe Illustrator 19.0.0, SVG Export Plug-In . SVG Version: 6.00 Build 0)  -->
<svg version="1.1" id="Layer_1" xmlns="http://www.w3.org/2000/svg" xmlns:xlink="http://www.w3.org/1999/xlink" x="0px" y="0px"
	 viewBox="0 0 502 502" style="enable-background:new 0 0 502 502;" xml:space="preserve">
<g>
	<g>
		<polygon style="fill:#F77E65;" points="492,146.5 10,146.5 10,374.5 80,374.5 80,311.5 422,311.5 422,374.5 492,374.5 		"/>
		<rect x="80" y="311.5" style="fill:#F0EFE4;" width="342" height="168"/>
	</g>
	<circle style="fill:#F0EFE4;" cx="72" cy="207.5" r="25"/>
	<circle style="fill:#F0EFE4;" cx="153" cy="207.5" r="19"/>
	<g>
		<polygon style="fill:#F0EFE4;" points="359,22.5 80,22.5 80,146.5 422,146.5 422,85.5 		"/>
		<g>
			<path d="M492,136.5h-60v-51c0-2.761-1.119-5.261-2.929-7.071l0,0l-63-63l0,0c-1.81-1.81-4.31-2.929-7.071-2.929H80
				c-5.523,0-10,4.478-10,10v114H10c-5.523,0-10,4.478-10,10v228c0,5.522,4.477,10,10,10h60v95c0,5.522,4.477,10,10,10h342
				c5.522,0,10-4.478,10-10v-95h60c5.522,0,10-4.478,10-10v-228C502,140.978,497.522,136.5,492,136.5z M369,46.643L397.857,75.5H369
				V46.643z M90,32.5h259v53c0,5.522,4.478,10,10,10h53v41H90V32.5z M412,469.5H90v-148h322V469.5z M482,156.5v208h-50v-53
				c0-5.522-4.478-10-10-10H80c-5.523,0-10,4.478-10,10v53H20v-208H482z"/>
			<path d="M398,267.5c-5.522,0-10,4.478-10,10s4.478,10,10,10h24c5.522,0,10-4.478,10-10s-4.478-10-10-10H398z"/>
			<path d="M352,267.5H80c-5.523,0-10,4.478-10,10s4.477,10,10,10h272c5.522,0,10-4.478,10-10S357.522,267.5,352,267.5z"/>
			<path d="M107,207.5c0-19.299-15.701-35-35-35s-35,15.701-35,35s15.701,35,35,35S107,226.799,107,207.5z M57,207.5
				c0-8.271,6.729-15,15-15s15,6.729,15,15s-6.729,15-15,15S57,215.771,57,207.5z"/>
			<path d="M153,236.5c15.991,0,29-13.01,29-29s-13.009-29-29-29s-29,13.01-29,29S137.009,236.5,153,236.5z M153,198.5
				c4.962,0,9,4.037,9,9s-4.038,9-9,9s-9-4.037-9-9S148.038,198.5,153,198.5z"/>
			<path d="M140,373.5h197c5.522,0,10-4.478,10-10s-4.478-10-10-10H140c-5.523,0-10,4.478-10,10S134.477,373.5,140,373.5z"/>
			<path d="M140,417.5h197c5.522,0,10-4.478,10-10s-4.478-10-10-10H140c-5.523,0-10,4.478-10,10S134.477,417.5,140,417.5z"/>
		</g>
	</g>
</g>
<g>
</g>
<g>
</g>
<g>
</g>
<g>
</g>
<g>
</g>
<g>
</g>
<g>
</g>
<g>
</g>
<g>
</g>
<g>
</g>
<g>
</g>
<g>
</g>
<g>
</g>
<g>
</g>
<g>
</g>
</svg>
