<?xml version="1.0" encoding="iso-8859-1"?>
<!-- Generator: Adobe Illustrator 19.0.0, SVG Export Plug-In . SVG Version: 6.00 Build 0)  -->
<svg version="1.1" id="Layer_1" xmlns="http://www.w3.org/2000/svg" xmlns:xlink="http://www.w3.org/1999/xlink" x="0px" y="0px"
	 viewBox="0 0 502 502" style="enable-background:new 0 0 502 502;" xml:space="preserve">
<g>
	<path style="fill:#F77E65;" d="M398.119,155.974v-1.145c0-20.866-16.915-37.781-37.781-37.781H47.781
		C26.915,117.048,10,133.963,10,154.829v1.145H398.119z"/>
	<path style="fill:#F77E65;" d="M398.119,237.261h-90.447H10v103.04h51.549c0.609-23.497,19.833-42.361,43.477-42.361
		s42.868,18.864,43.477,42.361h162.633c0.609-23.497,19.833-42.361,43.477-42.361s42.868,18.864,43.477,42.361H492v-52.093
		c0-28.138-22.81-50.948-50.948-50.948L398.119,237.261L398.119,237.261z"/>
	<rect x="10" y="155.974" style="fill:#F0EFE4;" width="388.119" height="81.287"/>
	<circle style="fill:#F0EFE4;" cx="105.026" cy="341.447" r="43.506"/>
	<circle style="fill:#F0EFE4;" cx="354.613" cy="341.447" r="43.506"/>
	<g>
		<path d="M408.119,154.829c0-26.347-21.435-47.782-47.781-47.782H47.781C21.435,107.047,0,128.482,0,154.829v1.145v184.328
			c0,5.523,4.477,10,10,10h42.266c4.234,25.302,26.274,44.651,52.76,44.651s48.526-19.349,52.76-44.651h144.067
			c4.234,25.302,26.274,44.651,52.76,44.651s48.526-19.349,52.76-44.651H492c5.523,0,10-4.477,10-10v-52.093
			c0-33.607-27.341-60.948-60.948-60.948h-32.934L408.119,154.829L408.119,154.829z M338.584,186.045c-5.523,0-10,4.477-10,10
			v31.216h-94.489v-31.216c0-5.523-4.477-10-10-10s-10,4.477-10,10v31.216H120.75v-31.216c0-5.523-4.477-10-10-10s-10,4.477-10,10
			v31.216H20v-61.288h368.119v61.288h-39.534v-31.216C348.584,190.522,344.107,186.045,338.584,186.045z M47.781,127.047h312.556
			c12.224,0,22.629,7.936,26.334,18.926H21.447C25.152,134.983,35.558,127.047,47.781,127.047z M105.026,374.953
			c-18.476,0-33.506-15.031-33.506-33.506h-0.041c0.033-0.292,0.059-0.586,0.067-0.886c0.474-18.292,15.181-32.621,33.48-32.621
			s33.006,14.329,33.48,32.621c0.008,0.299,0.034,0.594,0.067,0.886h-0.041C138.532,359.922,123.501,374.953,105.026,374.953z
			 M354.613,374.953c-18.475,0-33.506-15.031-33.506-33.506h-0.042c0.033-0.292,0.059-0.586,0.067-0.886
			c0.474-18.292,15.181-32.621,33.48-32.621s33.006,14.329,33.48,32.621c0.008,0.299,0.034,0.594,0.067,0.886h-0.042
			C388.119,359.922,373.088,374.953,354.613,374.953z M406.945,330.302c-2.166-10.263-7.313-19.67-14.97-27.147
			c-10.048-9.811-23.317-15.214-37.363-15.214s-27.315,5.403-37.363,15.214c-7.657,7.477-12.804,16.884-14.97,27.147H157.358
			c-2.166-10.263-7.313-19.67-14.969-27.147c-10.048-9.811-23.317-15.214-37.363-15.214s-27.315,5.403-37.363,15.214
			c-7.657,7.477-12.803,16.884-14.969,27.147H20V317.1h15.187c5.523,0,10-4.477,10-10s-4.477-10-10-10H20v-49.838h378.119h42.934
			c11.15,0,21.268,4.485,28.66,11.739H454c-5.523,0-10,4.477-10,10s4.477,10,10,10h26.943c0.684,2.962,1.057,6.042,1.057,9.209
			v8.891h-54.114c-5.523,0-10,4.477-10,10s4.477,10,10,10H482v13.202h-75.055V330.302z"/>
		<path d="M285.919,297.1h-112.2c-5.523,0-10,4.477-10,10s4.477,10,10,10h112.2c5.523,0,10-4.477,10-10S291.442,297.1,285.919,297.1
			z"/>
		<path d="M104.929,326.929l-14,14c-3.905,3.905-3.905,10.237,0,14.143C92.881,357.024,95.441,358,98,358s5.119-0.976,7.071-2.929
			l14-14c3.905-3.905,3.905-10.237,0-14.143C115.166,323.023,108.834,323.023,104.929,326.929z"/>
		<path d="M354.929,326.929l-14,14c-3.905,3.905-3.905,10.237,0,14.143c1.953,1.953,4.512,2.929,7.071,2.929
			s5.119-0.976,7.071-2.929l14-14c3.905-3.905,3.905-10.237,0-14.143C365.166,323.023,358.834,323.023,354.929,326.929z"/>
	</g>
</g>
<g>
</g>
<g>
</g>
<g>
</g>
<g>
</g>
<g>
</g>
<g>
</g>
<g>
</g>
<g>
</g>
<g>
</g>
<g>
</g>
<g>
</g>
<g>
</g>
<g>
</g>
<g>
</g>
<g>
</g>
</svg>
