<?xml version="1.0" encoding="iso-8859-1"?>
<!-- Generator: Adobe Illustrator 19.0.0, SVG Export Plug-In . SVG Version: 6.00 Build 0)  -->
<svg version="1.1" id="Layer_1" xmlns="http://www.w3.org/2000/svg" xmlns:xlink="http://www.w3.org/1999/xlink" x="0px" y="0px"
	 viewBox="0 0 502.069 502.069" style="enable-background:new 0 0 502.069 502.069;" xml:space="preserve">
<g>
	<path style="fill:#F77E65;" d="M201.249,303.616c-1.076-1.309-2.22-2.58-3.442-3.802l-21.659-21.659
		c-1.915-1.915-3.944-3.651-6.066-5.207c-20.577-15.102-49.867-13.367-68.441,5.207l-76.24,76.24
		c-20.489,20.489-20.489,54.017,0,74.507l21.659,21.659c20.489,20.489,54.018,20.489,74.507,0l76.24-76.24
		C217.075,355.053,218.219,324.259,201.249,303.616z M165.622,345.782l-72.593,72.593c-3.862,3.862-10.181,3.862-14.043,0
		l-21.399-21.399c-3.862-3.862-3.862-10.181,0-14.043l72.593-72.593c3.862-3.862,10.181-3.862,14.043,0l21.399,21.399
		C169.484,335.601,169.484,341.921,165.622,345.782z"/>
	<path style="fill:#F0EFE4;" d="M468.755,36.11l-71.907,10.072L283.291,159.739c-17.815,17.815-46.698,17.815-64.513,0
		L105.221,46.182L33.314,36.11L187.86,190.657c17.815,17.815,17.815,46.698,0,64.513l-17.778,17.778
		c2.122,1.557,4.151,3.292,6.066,5.207l21.659,21.659c1.222,1.222,2.366,2.493,3.442,3.802l17.529-17.529
		c17.815-17.815,46.698-17.815,64.513,0l17.529,17.529c1.076-1.309,2.22-2.58,3.442-3.802l21.659-21.659
		c1.915-1.915,3.944-3.651,6.066-5.207l-17.778-17.778c-17.815-17.815-17.815-46.698,0-64.513L468.755,36.11z"/>
	<path style="fill:#F77E65;" d="M304.262,374.321l76.24,76.24c20.489,20.489,54.017,20.489,74.507,0l21.659-21.659
		c20.489-20.49,20.489-54.018,0-74.507l-76.24-76.24c-18.574-18.574-47.864-20.31-68.441-5.207
		c-2.122,1.557-4.151,3.292-6.066,5.207l-21.659,21.659c-1.222,1.222-2.366,2.493-3.442,3.802
		C283.85,324.259,284.994,355.053,304.262,374.321z M336.447,331.74l21.399-21.399c3.862-3.862,10.181-3.862,14.043,0l72.593,72.593
		c3.862,3.862,3.862,10.181,0,14.043l-21.399,21.399c-3.862,3.862-10.181,3.862-14.043,0l-72.593-72.593
		C332.585,341.921,332.585,335.601,336.447,331.74z"/>
	<circle style="fill:#F77E65;" cx="250.666" cy="223.458" r="18.378"/>
	<g>
		<path d="M151.293,303.268c-7.771-7.77-20.415-7.769-28.185,0.001l-72.591,72.592c-3.757,3.757-5.826,8.762-5.826,14.094
			c0,5.331,2.068,10.336,5.825,14.093l21.398,21.398c3.757,3.757,8.762,5.825,14.093,5.825c5.332,0,10.337-2.069,14.093-5.825
			l72.594-72.593c0-0.001,0-0.001,0.001-0.001c7.768-7.771,7.768-20.413-0.001-28.185L151.293,303.268z M86.007,411.255
			l-21.349-21.25l72.493-72.594l21.354,21.346L86.007,411.255z"/>
		<path d="M483.739,347.323L407.5,271.084c-19.612-19.612-50.116-23.666-74.068-10.835l-12.151-12.151
			c-13.888-13.887-13.888-36.483,0-50.37L475.826,43.181c3.04-3.04,3.797-7.684,1.879-11.531s-6.091-6.041-10.337-5.443
			l-71.907,10.072c-2.152,0.302-4.147,1.296-5.685,2.832L276.22,152.667c-13.887,13.889-36.484,13.889-50.371,0L112.292,39.111
			c-1.537-1.536-3.532-2.53-5.685-2.832L34.7,26.206c-4.257-0.598-8.42,1.596-10.337,5.443c-1.918,3.848-1.161,8.491,1.879,11.531
			l154.547,154.547c13.888,13.887,13.888,36.483,0,50.37l-12.151,12.151c-23.951-12.83-54.455-8.779-74.068,10.835l-76.24,76.24
			c-24.44,24.44-24.44,64.209,0,88.649l21.659,21.659c12.221,12.22,28.272,18.33,44.324,18.33c16.053,0,32.104-6.11,44.325-18.33
			l76.239-76.239c11.046-11.047,17.52-25.77,18.229-41.457c0.564-12.474-2.553-24.675-8.858-35.176l11.6-11.601
			c13.888-13.886,36.485-13.886,50.371,0l11.6,11.601c-6.305,10.501-9.422,22.702-8.858,35.176
			c0.709,15.688,7.183,30.41,18.229,41.457l76.239,76.239c12.221,12.22,28.272,18.33,44.325,18.33
			c16.052,0,32.104-6.11,44.324-18.33l21.659-21.659C508.179,411.532,508.179,371.764,483.739,347.323z M190.736,367.25
			l-76.239,76.239c-16.643,16.644-43.722,16.643-60.364,0L32.474,421.83c-16.643-16.643-16.643-43.722,0-60.364l76.239-76.239
			c8.203-8.203,19.204-12.409,30.251-12.409c8.841,0,17.713,2.694,25.2,8.19c1.734,1.273,3.388,2.692,4.913,4.219l21.659,21.659
			c0.956,0.955,1.894,1.991,2.788,3.079c0,0.001,0,0.001,0.001,0.002C207.311,326.737,206.086,351.9,190.736,367.25z
			 M251.034,262.753c-14.242,0-28.485,5.421-39.328,16.263l-10.277,10.278l-16.775-16.775l10.278-10.278
			c21.685-21.686,21.685-56.97,0-78.655L61.502,50.155l39.016,5.465l111.188,111.189c21.686,21.686,56.971,21.686,78.656,0
			L401.551,55.62l39.016-5.465l-133.43,133.43c-21.685,21.686-21.685,56.97,0,78.655l10.278,10.278l-16.775,16.775l-10.277-10.278
			C279.52,268.174,265.278,262.753,251.034,262.753z M469.596,421.83l-21.659,21.659c-16.643,16.642-43.722,16.644-60.364,0
			l-76.239-76.239c-15.351-15.351-16.575-40.513-2.788-57.285c0.895-1.088,1.832-2.124,2.788-3.079l21.659-21.659
			c1.525-1.526,3.179-2.945,4.913-4.219c0.001-0.001,0.002-0.002,0.003-0.003c16.845-12.359,40.683-10.546,55.448,4.221
			l76.239,76.239C486.239,378.109,486.239,405.188,469.596,421.83z"/>
		<path d="M378.96,303.269c-7.771-7.77-20.414-7.77-28.186,0l-21.399,21.399c0,0.001,0,0.001-0.001,0.001
			c-7.768,7.771-7.768,20.413,0.001,28.185l72.593,72.592c3.757,3.757,8.762,5.826,14.094,5.826c5.331,0,10.336-2.068,14.093-5.825
			l21.398-21.398c3.757-3.757,5.825-8.762,5.825-14.093c0-5.332-2.069-10.337-5.825-14.093L378.96,303.269z M416.112,411.304
			l-72.548-72.539l21.254-21.354l72.544,72.544L416.112,411.304z"/>
		<path d="M250.666,195.079c-15.647,0-28.378,12.73-28.378,28.379c0,15.647,12.73,28.378,28.378,28.378s28.379-12.73,28.379-28.378
			S266.315,195.079,250.666,195.079z M250.666,231.836c-4.619,0-8.378-3.759-8.378-8.378c0-4.62,3.759-8.379,8.378-8.379
			c4.62,0,8.379,3.759,8.379,8.379C259.045,228.077,255.286,231.836,250.666,231.836z"/>
		<path d="M295.034,118.019c2.56,0,5.118-0.977,7.071-2.929l53-53c3.905-3.905,3.905-10.237,0-14.143
			c-3.906-3.904-10.236-3.904-14.143,0l-53,53c-3.905,3.905-3.905,10.237,0,14.143C289.916,117.042,292.475,118.019,295.034,118.019
			z"/>
		<path d="M266.378,146.675c2.56,0,5.118-0.977,7.071-2.929l5.313-5.313c3.905-3.905,3.905-10.237,0-14.143
			c-3.906-3.904-10.236-3.904-14.143,0l-5.313,5.313c-3.905,3.905-3.905,10.237,0,14.143
			C261.26,145.698,263.819,146.675,266.378,146.675z"/>
	</g>
</g>
<g>
</g>
<g>
</g>
<g>
</g>
<g>
</g>
<g>
</g>
<g>
</g>
<g>
</g>
<g>
</g>
<g>
</g>
<g>
</g>
<g>
</g>
<g>
</g>
<g>
</g>
<g>
</g>
<g>
</g>
</svg>
