<?xml version="1.0" encoding="iso-8859-1"?>
<!-- Generator: Adobe Illustrator 19.0.0, SVG Export Plug-In . SVG Version: 6.00 Build 0)  -->
<svg version="1.1" id="Layer_1" xmlns="http://www.w3.org/2000/svg" xmlns:xlink="http://www.w3.org/1999/xlink" x="0px" y="0px"
	 viewBox="0 0 502 502" style="enable-background:new 0 0 502 502;" xml:space="preserve">
<g>
	<rect x="11.008" y="334.695" style="fill:#F77E65;" width="480.992" height="26.218"/>
	<path style="fill:#F77E65;" d="M199.573,141.087H66.805C35.432,141.087,10,166.52,10,197.893v31.932h189.573V141.087z"/>
	<path style="fill:#F0EFE4;" d="M199.573,141.087l257.644,135.93C478.611,288.305,492,310.506,492,334.695l0,0h-99.83l0,0
		c0-21.475-13.485-40.638-33.7-47.887l-158.897-56.983L199.573,141.087L199.573,141.087z"/>
	<rect x="27.142" y="229.824" style="fill:#F0EFE4;" width="55.46" height="30.251"/>
	<g>
		<path d="M461.884,268.173L204.357,132.305c-1.448-0.788-3.136-1.217-4.783-1.217H66.805C29.968,131.087,0,161.057,0,197.893
			v31.932c0,5.522,4.477,10,10,10h7.142v20.251c0,5.522,4.477,10,10,10h55.46c5.523,0,10-4.478,10-10v-20.251h105.232l83.5,29.945
			v10.474c0,5.522,4.477,10,10,10s10-4.478,10-10v-3.302l53.76,19.279c12.972,4.652,22.528,15.5,25.82,28.474h-79.58v-14.2
			c0-5.522-4.477-10-10-10s-10,4.478-10,10v14.2H11.008c-5.523,0-10,4.478-10,10v26.218c0,5.522,4.477,10,10,10H492
			c5.523,0,10-4.478,10-10v-26.218C502,306.717,486.628,281.228,461.884,268.173z M20,219.824v-21.932
			c0-25.809,20.997-46.805,46.805-46.805h122.769v68.736H20V219.824z M72.603,250.074h-35.46v-10.251h35.46V250.074z
			 M361.845,277.395l-152.272-54.607v-65.118l242.978,128.192c15.162,7.999,25.531,22.359,28.544,38.832h-79.756
			C397.747,303.232,382.776,284.9,361.845,277.395z M482,344.694v6.218H21.008v-6.218H482z"/>
		<path d="M112.854,178.313h59.494c5.523,0,10-4.478,10-10s-4.477-10-10-10h-59.494c-5.523,0-10,4.478-10,10
			S107.331,178.313,112.854,178.313z"/>
		<path d="M77.561,178.313h6.05c5.523,0,10-4.478,10-10s-4.477-10-10-10h-6.05c-5.523,0-10,4.478-10,10
			S72.038,178.313,77.561,178.313z"/>
	</g>
</g>
<g>
</g>
<g>
</g>
<g>
</g>
<g>
</g>
<g>
</g>
<g>
</g>
<g>
</g>
<g>
</g>
<g>
</g>
<g>
</g>
<g>
</g>
<g>
</g>
<g>
</g>
<g>
</g>
<g>
</g>
</svg>
