<?xml version="1.0" encoding="iso-8859-1"?>
<!-- Generator: Adobe Illustrator 19.0.0, SVG Export Plug-In . SVG Version: 6.00 Build 0)  -->
<svg version="1.1" id="Layer_1" xmlns="http://www.w3.org/2000/svg" xmlns:xlink="http://www.w3.org/1999/xlink" x="0px" y="0px"
	 viewBox="0 0 502 502" style="enable-background:new 0 0 502 502;" xml:space="preserve">
<g>
	<rect x="10" y="162.5" style="fill:#F77E65;" width="482" height="310"/>
	<g>
		<circle style="fill:#F0EFE4;" cx="251" cy="57" r="22.5"/>
		<g>
			<path d="M492,152.5H65.15l153.543-91.987C220.45,76.787,234.266,89.5,251,89.5c16.766,0,30.605-12.762,32.319-29.081
				l65.555,39.098c4.744,2.829,10.881,1.275,13.711-3.467c2.829-4.743,1.276-10.882-3.467-13.711L256.122,20.912
				c-3.162-1.885-7.104-1.884-10.262,0.011L26.234,152.5H10c-5.522,0-10,4.478-10,10v310c0,5.522,4.478,10,10,10h482
				c5.522,0,10-4.478,10-10v-310C502,156.978,497.522,152.5,492,152.5z M251,69.5c-6.893,0-12.5-5.607-12.5-12.5
				s5.607-12.5,12.5-12.5s12.5,5.607,12.5,12.5S257.893,69.5,251,69.5z M482,462.5H20v-290h462V462.5z"/>
			<path d="M389.88,123.974l19.997,11.927c1.605,0.957,3.37,1.413,5.112,1.413c3.406,0,6.727-1.741,8.599-4.88
				c2.828-4.743,1.276-10.882-3.467-13.711l-19.997-11.927c-4.745-2.829-10.881-1.278-13.711,3.467
				C383.585,115.006,385.137,121.145,389.88,123.974z"/>
			<path d="M107,419.5c5.522,0,10-4.478,10-10v-63.442c0-5.522-4.478-10-10-10s-10,4.478-10,10V409.5
				C97,415.023,101.478,419.5,107,419.5z"/>
			<path d="M203,305.484c-5.522,0-10,4.478-10,10V409.5c0,5.522,4.478,10,10,10s10-4.478,10-10v-94.017
				C213,309.961,208.522,305.484,203,305.484z"/>
			<path d="M299,262.679c-5.522,0-10,4.478-10,10v14.569c0,5.522,4.478,10,10,10s10-4.478,10-10v-14.569
				C309,267.157,304.522,262.679,299,262.679z"/>
			<path d="M299,305.114c-5.522,0-10,4.478-10,10V409.5c0,5.522,4.478,10,10,10s10-4.478,10-10v-94.387
				C309,309.591,304.522,305.114,299,305.114z"/>
			<path d="M395,305.484c-5.522,0-10,4.478-10,10V409.5c0,5.522,4.478,10,10,10s10-4.478,10-10v-94.017
				C405,309.961,400.522,305.484,395,305.484z"/>
			<path d="M370.256,271.717l19.04,10.26c1.51,0.813,3.134,1.198,4.735,1.198c3.56,0,7.005-1.905,8.813-5.258
				c2.619-4.862,0.802-10.928-4.06-13.548l-19.04-10.26c-4.865-2.619-10.928-0.803-13.548,4.06
				C363.577,263.032,365.395,269.097,370.256,271.717z"/>
			<path d="M106.999,311.457c1.071,0,2.16-0.174,3.23-0.539l94.08-32.104c0.385-0.131,0.761-0.285,1.127-0.463l93.319-45.164
				l39.503,21.287c4.864,2.617,10.927,0.801,13.548-4.06c2.619-4.862,0.802-10.928-4.06-13.548l-44.004-23.711
				c-2.825-1.521-6.209-1.597-9.1-0.197l-97.371,47.125l-93.502,31.906c-5.227,1.783-8.019,7.467-6.234,12.693
				C98.954,308.841,102.839,311.457,106.999,311.457z"/>
		</g>
	</g>
</g>
<g>
</g>
<g>
</g>
<g>
</g>
<g>
</g>
<g>
</g>
<g>
</g>
<g>
</g>
<g>
</g>
<g>
</g>
<g>
</g>
<g>
</g>
<g>
</g>
<g>
</g>
<g>
</g>
<g>
</g>
</svg>
