<?xml version="1.0" encoding="iso-8859-1"?>
<!-- Generator: Adobe Illustrator 19.0.0, SVG Export Plug-In . SVG Version: 6.00 Build 0)  -->
<svg version="1.1" id="Layer_1" xmlns="http://www.w3.org/2000/svg" xmlns:xlink="http://www.w3.org/1999/xlink" x="0px" y="0px"
	 viewBox="0 0 502 502" style="enable-background:new 0 0 502 502;" xml:space="preserve">
<g>
	<path style="fill:#F0EFE4;" d="M424.134,51.412c0-22.871-18.541-41.412-41.413-41.412H119.276
		c-22.872,0-41.413,18.541-41.413,41.412v357.226h346.271V51.412z"/>
	<path style="fill:#F77E65;" d="M77.864,408.639v41.949c0,22.871,18.541,41.412,41.413,41.412h263.445
		c22.871,0,41.413-18.541,41.413-41.412v-41.949H77.864z"/>
	<circle style="fill:#F0EFE4;" cx="249.93" cy="449.251" r="14.962"/>
	<g>
		<path d="M434.134,51.412C434.134,23.063,411.071,0,382.721,0H119.276C90.927,0,67.864,23.063,67.864,51.412v399.176
			c0,28.349,23.063,51.412,51.413,51.412h263.445c28.35,0,51.413-23.063,51.413-51.412V51.412H434.134z M87.864,51.412
			c0-17.32,14.092-31.412,31.413-31.412h263.445c17.321,0,31.413,14.092,31.413,31.412v347.227H87.864V51.412z M414.134,450.588
			c0,17.32-14.092,31.412-31.413,31.412H119.276c-17.321,0-31.413-14.092-31.413-31.412v-31.949h326.271V450.588z"/>
		<path d="M249.93,474.213c13.764,0,24.962-11.198,24.962-24.962c0-13.765-11.198-24.963-24.962-24.963
			s-24.962,11.198-24.962,24.963C224.968,463.015,236.166,474.213,249.93,474.213z M249.93,444.288c2.736,0,4.962,2.227,4.962,4.963
			s-2.227,4.962-4.962,4.962c-2.736,0-4.962-2.226-4.962-4.962S247.194,444.288,249.93,444.288z"/>
		<path d="M118.999,143.5c-5.523,0-10,4.478-10,10v211c0,5.522,4.477,10,10,10c5.523,0,10-4.478,10-10v-211
			C128.999,147.978,124.522,143.5,118.999,143.5z"/>
		<path d="M118.999,76.5c-5.523,0-10,4.478-10,10v27c0,5.522,4.477,10,10,10c5.523,0,10-4.478,10-10v-27
			C128.999,80.978,124.522,76.5,118.999,76.5z"/>
	</g>
</g>
<g>
</g>
<g>
</g>
<g>
</g>
<g>
</g>
<g>
</g>
<g>
</g>
<g>
</g>
<g>
</g>
<g>
</g>
<g>
</g>
<g>
</g>
<g>
</g>
<g>
</g>
<g>
</g>
<g>
</g>
</svg>
