<?xml version="1.0" encoding="iso-8859-1"?>
<!-- Generator: Adobe Illustrator 19.0.0, SVG Export Plug-In . SVG Version: 6.00 Build 0)  -->
<svg version="1.1" id="Layer_1" xmlns="http://www.w3.org/2000/svg" xmlns:xlink="http://www.w3.org/1999/xlink" x="0px" y="0px"
	 viewBox="0 0 502 502" style="enable-background:new 0 0 502 502;" xml:space="preserve">
<g>
	<polygon style="fill:#F77E65;" points="60.801,232.29 10,253.883 21.197,280.224 71.998,258.631 75.996,268.038 287.667,178.066 
		291.265,186.532 446.49,120.552 452.488,134.663 492,117.868 453.612,27.556 414.1,44.351 420.098,58.462 264.873,124.443 
		268.472,132.909 56.802,222.882 	"/>
	<g>
		<path d="M401.089,87.798l-8,3.4c-5.083,2.16-7.452,8.032-5.292,13.114c1.618,3.807,5.317,6.092,9.208,6.092
			c1.305,0,2.631-0.257,3.907-0.8l8-3.4c5.083-2.16,7.452-8.032,5.292-13.114C412.043,88.008,406.172,85.637,401.089,87.798z"/>
		<path d="M365.088,103.1l-65,27.629c-5.083,2.16-7.452,8.032-5.291,13.115c1.618,3.807,5.317,6.091,9.208,6.091
			c1.305,0,2.631-0.258,3.908-0.8l65-27.629c5.083-2.16,7.452-8.032,5.291-13.115C376.042,103.309,370.171,100.943,365.088,103.1z"
			/>
		<path d="M501.203,113.957l-38.389-90.313c-2.161-5.082-8.032-7.448-13.115-5.291l-39.512,16.795
			c-2.44,1.037-4.369,3.002-5.362,5.462c-0.992,2.459-0.967,5.212,0.071,7.653l2.086,4.908l-146.021,62.067
			c-2.441,1.037-4.37,3.002-5.362,5.462c-0.892,2.21-0.954,4.656-0.206,6.901L52.89,213.679c-5.083,2.16-7.452,8.032-5.291,13.115
			l0.087,0.204L6.088,244.68c-2.44,1.037-4.369,3.002-5.362,5.462c-0.992,2.459-0.967,5.212,0.071,7.653l11.197,26.341
			c1.618,3.807,5.317,6.091,9.208,6.091c1.305,0,2.631-0.258,3.908-0.8l41.597-17.682l0.087,0.205
			c1.038,2.44,3.002,4.369,5.461,5.361c1.201,0.484,2.472,0.727,3.742,0.727c1.332,0,2.663-0.266,3.912-0.797l202.522-86.085
			c1.76,3.366,5.204,5.378,8.839,5.378c1.305,0,2.631-0.257,3.907-0.8l146.022-62.067l2.086,4.908
			c1.618,3.807,5.317,6.091,9.208,6.091c1.305,0,2.631-0.258,3.908-0.8l39.512-16.795c2.44-1.037,4.369-3.002,5.362-5.462
			C502.266,119.151,502.241,116.398,501.203,113.957z M263.181,146.024l11.37,26.75l-193.264,82.15l-0.082-0.192
			c-0.002-0.004-0.003-0.008-0.005-0.013l-11.197-26.341l-0.001-0.002l-0.086-0.202L263.181,146.024z M26.488,267.109l-3.373-7.935
			l32.394-13.77l3.373,7.935L26.488,267.109z M433.375,115.261l-136.818,58.155l-18.528-43.589l-0.04-0.094l136.818-58.155
			l18.528,43.589L433.375,115.261z M457.779,121.549l-2.084-4.902c-0.001-0.002-0.001-0.004-0.002-0.006l-26.392-62.09l-0.001-0.002
			l-2.085-4.906l21.105-8.971l30.564,71.906L457.779,121.549z"/>
		<path d="M256.111,245.001c5.523,0,10-4.478,10-10v-3.843c0-5.522-4.477-10-10-10s-10,4.478-10,10v3.843
			C246.111,240.523,250.588,245.001,256.111,245.001z"/>
		<path d="M266.111,403.858V267.001c0-5.522-4.477-10-10-10s-10,4.478-10,10v137.88l-62.493,62.493
			c-3.905,3.905-3.905,10.237,0,14.143c1.952,1.952,4.512,2.929,7.071,2.929s5.119-0.977,7.071-2.929l58.861-58.862l58.862,58.862
			c1.953,1.952,4.512,2.929,7.071,2.929s5.119-0.977,7.071-2.929c3.905-3.905,3.905-10.237,0-14.143L266.111,403.858z"/>
		<path d="M296.777,334.402v-33.733c0-5.522-4.477-10-10-10s-10,4.478-10,10v33.733c0,5.522,4.477,10,10,10
			S296.777,339.925,296.777,334.402z"/>
	</g>
</g>
<g>
</g>
<g>
</g>
<g>
</g>
<g>
</g>
<g>
</g>
<g>
</g>
<g>
</g>
<g>
</g>
<g>
</g>
<g>
</g>
<g>
</g>
<g>
</g>
<g>
</g>
<g>
</g>
<g>
</g>
</svg>
