<?xml version="1.0" encoding="iso-8859-1"?>
<!-- Generator: Adobe Illustrator 19.0.0, SVG Export Plug-In . SVG Version: 6.00 Build 0)  -->
<svg version="1.1" id="Layer_1" xmlns="http://www.w3.org/2000/svg" xmlns:xlink="http://www.w3.org/1999/xlink" x="0px" y="0px"
	 viewBox="0 0 502 502" style="enable-background:new 0 0 502 502;" xml:space="preserve">
<g>
	<path style="fill:#F77E65;" d="M10,110.935v125.887c0,85.184,69.056,154.24,154.24,154.24h2.269
		c85.184,0,154.24-69.055,154.24-154.24l0,0c0-13.315-1.687-26.235-4.859-38.56H492v-87.327L10,110.935L10,110.935z"/>
	<polygon style="fill:#F0EFE4;" points="151.765,110.935 58.767,110.935 58.767,155.167 	"/>
	<g>
		<path d="M10,100.936c-5.523,0-10,4.478-10,10v125.887c0,90.563,73.678,164.24,164.24,164.24h2.269
			c90.562,0,164.24-73.678,164.24-164.24c0-9.604-0.831-19.166-2.478-28.56H492c5.523,0,10-4.478,10-10v-87.327
			c0-5.522-4.477-10-10-10L10,100.936L10,100.936z M107.457,120.936l-38.689,18.401v-18.401H107.457z M482,188.263H315.889
			c-3.092,0-6.009,1.43-7.903,3.873c-1.894,2.443-2.552,5.626-1.781,8.62c3.015,11.713,4.544,23.847,4.544,36.066
			c0,79.534-64.706,144.24-144.24,144.24h-2.269C84.706,381.062,20,316.356,20,236.822V120.936h28.767v34.23
			c0,3.431,1.759,6.622,4.659,8.454c1.624,1.026,3.479,1.546,5.341,1.546c1.463,0,2.931-0.321,4.294-0.97l90.959-43.261H482V188.263
			z"/>
		<path d="M268.407,263.668c0.614,0.113,1.225,0.168,1.828,0.168c4.729,0,8.933-3.368,9.822-8.186
			c1.277-6.911,1.924-14.009,1.924-21.096c0-5.522-4.477-10-10-10s-10,4.478-10,10c0,5.871-0.536,11.746-1.591,17.463
			C259.386,257.448,262.976,262.664,268.407,263.668z"/>
		<path d="M71.035,234.555c0-5.522-4.477-10-10-10s-10,4.478-10,10c0,63.672,51.801,115.473,115.473,115.473
			c20.251,0,40.177-5.32,57.625-15.387c16.916-9.759,31.195-23.756,41.292-40.479c2.854-4.729,1.336-10.875-3.392-13.729
			s-10.875-1.337-13.729,3.392c-17.468,28.932-48.046,46.204-81.796,46.204C113.864,330.027,71.035,287.198,71.035,234.555z"/>
	</g>
</g>
<g>
</g>
<g>
</g>
<g>
</g>
<g>
</g>
<g>
</g>
<g>
</g>
<g>
</g>
<g>
</g>
<g>
</g>
<g>
</g>
<g>
</g>
<g>
</g>
<g>
</g>
<g>
</g>
<g>
</g>
</svg>
