<?xml version="1.0" encoding="iso-8859-1"?>
<!-- Generator: Adobe Illustrator 19.0.0, SVG Export Plug-In . SVG Version: 6.00 Build 0)  -->
<svg version="1.1" id="Layer_1" xmlns="http://www.w3.org/2000/svg" xmlns:xlink="http://www.w3.org/1999/xlink" x="0px" y="0px"
	 viewBox="0 0 502 502" style="enable-background:new 0 0 502 502;" xml:space="preserve">
<g>
	<rect x="10" y="59.5" style="fill:#F77E65;" width="482" height="307"/>
	<rect x="204" y="366.5" style="fill:#F77E65;" width="94" height="76"/>
	<rect x="48" y="96.5" style="fill:#F0EFE4;" width="406" height="233"/>
	<g>
		<path d="M492,49.5H10c-5.523,0-10,4.478-10,10v307c0,5.522,4.477,10,10,10h184v56h-34c-5.523,0-10,4.478-10,10s4.477,10,10,10h182
			c5.523,0,10-4.478,10-10s-4.477-10-10-10h-34v-56h184c5.523,0,10-4.478,10-10v-307C502,53.978,497.523,49.5,492,49.5z M288,432.5
			h-74v-56h74V432.5z M482,356.5H20v-287h462V356.5z"/>
		<path d="M48,339.5h406c5.523,0,10-4.478,10-10v-233c0-5.522-4.477-10-10-10H48c-5.523,0-10,4.478-10,10v233
			C38,335.022,42.477,339.5,48,339.5z M58,106.5h386v213H58V106.5z"/>
		<path d="M201,125.5H87c-5.523,0-10,4.478-10,10v60c0,5.522,4.477,10,10,10s10-4.478,10-10v-50h104c5.523,0,10-4.478,10-10
			S206.523,125.5,201,125.5z"/>
		<path d="M261,125.5h-18c-5.523,0-10,4.478-10,10s4.477,10,10,10h18c5.523,0,10-4.478,10-10S266.523,125.5,261,125.5z"/>
	</g>
</g>
<g>
</g>
<g>
</g>
<g>
</g>
<g>
</g>
<g>
</g>
<g>
</g>
<g>
</g>
<g>
</g>
<g>
</g>
<g>
</g>
<g>
</g>
<g>
</g>
<g>
</g>
<g>
</g>
<g>
</g>
</svg>
