<?xml version="1.0" encoding="iso-8859-1"?>
<!-- Generator: Adobe Illustrator 19.0.0, SVG Export Plug-In . SVG Version: 6.00 Build 0)  -->
<svg version="1.1" id="Layer_1" xmlns="http://www.w3.org/2000/svg" xmlns:xlink="http://www.w3.org/1999/xlink" x="0px" y="0px"
	 viewBox="0 0 502 502" style="enable-background:new 0 0 502 502;" xml:space="preserve">
<g>
	<rect x="60.68" y="35.34" style="fill:#F0EFE4;" width="431.32" height="431.32"/>
	<g>
		<circle style="fill:#F77E65;" cx="276.34" cy="251" r="180.076"/>
		<path d="M276.34,441.076c-104.808,0-190.076-85.268-190.076-190.076S171.532,60.924,276.34,60.924
			c104.809,0,190.076,85.268,190.076,190.076S381.148,441.076,276.34,441.076z M276.34,80.924
			c-93.78,0-170.076,76.296-170.076,170.076S182.56,421.076,276.34,421.076S446.416,344.78,446.416,251S370.12,80.924,276.34,80.924
			z"/>
	</g>
	<g>
		<circle style="fill:#F0EFE4;" cx="276.34" cy="251" r="62.541"/>
		<path d="M276.34,323.541c-39.999,0-72.541-32.542-72.541-72.541s32.542-72.541,72.541-72.541c40,0,72.542,32.542,72.542,72.541
			S316.34,323.541,276.34,323.541z M276.34,198.459c-28.971,0-52.541,23.569-52.541,52.541s23.57,52.541,52.541,52.541
			c28.972,0,52.542-23.569,52.542-52.541S305.312,198.459,276.34,198.459z"/>
	</g>
	<g>
		<circle style="fill:#F77E65;" cx="276.34" cy="251" r="20.488"/>
		<path d="M276.34,281.487c-16.811,0-30.487-13.677-30.487-30.487s13.677-30.487,30.487-30.487
			c16.812,0,30.488,13.677,30.488,30.487S293.151,281.487,276.34,281.487z M276.34,240.513c-5.782,0-10.487,4.705-10.487,10.487
			c0,5.782,4.705,10.487,10.487,10.487c5.783,0,10.488-4.705,10.488-10.487S282.123,240.513,276.34,240.513z"/>
	</g>
	<g>
		<rect x="10" y="35.34" style="fill:#F77E65;" width="50.68" height="431.32"/>
		<path d="M492,476.66c5.522,0,10-4.478,10-10V35.34c0-5.522-4.478-10-10-10H10c-5.523,0-10,4.478-10,10v431.32
			c0,5.522,4.477,10,10,10H492z M20,45.34h30.68v411.32H20V45.34z M482,456.66H70.68V45.34H482V456.66z"/>
	</g>
	<g>
		<path d="M314.086,128.204c-0.903,0-1.821-0.124-2.733-0.383c-11.333-3.214-23.113-4.844-35.013-4.844c-5.522,0-10-4.478-10-10
			s4.478-10,10-10c13.745,0,27.361,1.885,40.47,5.604c5.313,1.507,8.399,7.035,6.892,12.349
			C322.453,125.331,318.445,128.204,314.086,128.204z"/>
	</g>
	<g>
		<path d="M138.318,261c-5.523,0-10-4.478-10-10c0-63.084,40.034-119.316,99.621-139.926c5.221-1.806,10.914,0.963,12.719,6.183
			s-0.962,10.914-6.182,12.719C182.942,147.8,148.318,196.436,148.318,251C148.318,256.522,143.841,261,138.318,261z"/>
	</g>
</g>
<g>
</g>
<g>
</g>
<g>
</g>
<g>
</g>
<g>
</g>
<g>
</g>
<g>
</g>
<g>
</g>
<g>
</g>
<g>
</g>
<g>
</g>
<g>
</g>
<g>
</g>
<g>
</g>
<g>
</g>
</svg>
