<?xml version="1.0" encoding="iso-8859-1"?>
<!-- Generator: Adobe Illustrator 19.0.0, SVG Export Plug-In . SVG Version: 6.00 Build 0)  -->
<svg version="1.1" id="Layer_1" xmlns="http://www.w3.org/2000/svg" xmlns:xlink="http://www.w3.org/1999/xlink" x="0px" y="0px"
	 viewBox="0 0 502 502" style="enable-background:new 0 0 502 502;" xml:space="preserve">
<g>
	<circle style="fill:#F77E65;" cx="276.668" cy="193.951" r="183.951"/>
	<g>
		<path d="M413.871,331.035c36.595-36.626,56.749-85.306,56.749-137.084c0-51.782-20.157-100.466-56.758-137.093
			c-0.017-0.017-0.032-0.034-0.049-0.051c-0.016-0.016-0.034-0.031-0.05-0.048C377.135,20.157,328.451,0,276.668,0
			C224.86,0,176.156,20.174,139.522,56.807s-56.808,85.338-56.808,137.145s20.175,100.512,56.808,137.145
			c36.633,36.632,85.338,56.807,137.145,56.807c51.791,0,100.483-20.164,137.113-56.777c0.01-0.01,0.021-0.02,0.032-0.03
			C413.832,331.076,413.851,331.055,413.871,331.035z M159.493,321.81l46.796-46.796c15.905,15.261,32.767,28.664,49.956,39.806
			c-8.708,4.095-17.379,7.5-25.919,10.136C200.376,334.203,175.609,333.027,159.493,321.81z M399.63,70.91
			c0.013,0.013,0.026,0.025,0.039,0.038l0,0c0.02,0.02,0.039,0.041,0.06,0.061c15.552,15.615,18.375,42.813,7.945,76.601
			c-10.143,32.855-31.536,67.647-60.729,99.018l-56.135-56.135l52.772-52.772c6.083,6.357,11.908,12.921,17.36,19.595
			c3.494,4.277,9.795,4.912,14.07,1.418c4.277-3.494,4.912-9.794,1.418-14.071c-5.872-7.188-12.145-14.256-18.699-21.09
			l22.246-22.246c3.905-3.905,3.905-10.237,0-14.143c-3.906-3.905-10.236-3.905-14.143,0l-22.341,22.341
			c-14.855-13.873-30.489-26.127-46.404-36.444c8.708-4.095,17.379-7.5,25.918-10.136C356.809,52.512,384.018,55.34,399.63,70.91z
			 M329.345,123.674l-52.678,52.678l-52.678-52.678c16.849-15.679,34.685-29.103,52.678-39.747
			C294.661,94.571,312.496,107.995,329.345,123.674z M209.841,109.526l-46.073-46.073c16.07-8.706,39.145-8.97,66.559-0.506
			c8.54,2.636,17.211,6.041,25.919,10.136C240.33,83.399,224.695,95.653,209.841,109.526z M148.807,76.778l46.798,46.798
			c-9.226,9.619-17.859,19.669-25.711,29.965c-3.349,4.392-2.503,10.667,1.889,14.016c4.39,3.35,10.665,2.503,14.016-1.888
			c7.314-9.592,15.356-18.963,23.953-27.947l52.772,52.772l-56.135,56.135c-29.192-31.371-50.586-66.163-60.728-99.018
			C136.417,117.661,137.591,92.895,148.807,76.778z M220.434,260.87l56.234-56.233l56.234,56.234
			c-17.886,17.125-36.969,31.709-56.234,43.105C257.403,292.58,238.32,277.995,220.434,260.87z M347.045,275.015l46.796,46.796
			c-16.117,11.216-40.882,12.391-70.833,3.147c-8.54-2.636-17.211-6.041-25.918-10.136
			C314.278,303.678,331.14,290.275,347.045,275.015z M433.522,269.342c-0.516-7.93-1.822-16.26-3.954-24.924
			c-1.319-5.363-6.732-8.637-12.1-7.321c-5.362,1.32-8.641,6.737-7.32,12.1c5.763,23.424,4.644,43.358-3.01,57.626l-46.044-46.044
			c31.465-33.693,54.62-71.406,65.69-107.267c3.796-12.296,6.039-23.972,6.777-34.872c11.16,23.204,17.059,48.804,17.059,75.312
			C450.618,220.49,444.707,246.117,433.522,269.342z M351.982,37.06c-10.901,0.737-22.577,2.98-34.874,6.776
			c-13.325,4.113-26.905,9.897-40.441,17.152c-13.535-7.255-27.116-13.039-40.441-17.152c-12.296-3.796-23.972-6.039-34.873-6.776
			C224.557,25.899,250.158,20,276.668,20C303.177,20,328.778,25.899,351.982,37.06z M119.776,118.638
			c0.737,10.901,2.98,22.576,6.776,34.873c11.07,35.861,34.225,73.574,65.69,107.266l-46.066,46.066
			c-8.521-15.759-8.95-38.282-0.987-64.996c1.578-5.293-1.434-10.862-6.727-12.44c-5.293-1.576-10.862,1.434-12.439,6.727
			c-3.475,11.659-5.543,22.753-6.241,33.144c-11.165-23.208-17.066-48.812-17.066-75.326
			C102.716,167.442,108.615,141.842,119.776,118.638z M201.328,350.831c10.91-0.735,22.589-2.964,34.898-6.764
			c13.325-4.113,26.906-9.897,40.441-17.152c13.535,7.255,27.116,13.039,40.441,17.152c12.311,3.8,23.988,6.03,34.897,6.764
			c-23.211,11.168-48.819,17.071-75.338,17.071C250.148,367.902,224.539,361.999,201.328,350.831z"/>
		<path d="M390.359,388.512c-88.293,51.678-200.555,37.181-272.993-35.259c-85.531-85.531-87.764-223.282-6.729-311.558l3.915,3.915
			c1.953,1.953,4.512,2.929,7.071,2.929s5.118-0.977,7.071-2.929c3.905-3.905,3.905-10.237,0-14.142l-11-11
			c-2.259-2.259-5.329-3.203-8.273-2.848c-2.261,0.197-4.468,1.157-6.199,2.888C56.896,66.836,31.381,128.433,31.381,193.951
			s25.515,127.115,71.843,173.444c46.619,46.619,108.385,71.177,170.962,71.86V482H221.85c-5.522,0-10,4.477-10,10s4.478,10,10,10
			h124.672c5.522,0,10-4.477,10-10s-4.478-10-10-10h-52.336v-43.332c36.63-2.591,73.016-13.428,106.277-32.896
			c4.766-2.79,6.368-8.915,3.579-13.682C401.252,387.325,395.128,385.721,390.359,388.512z"/>
		<path d="M435.969,353.252c-3.76,3.76-7.687,7.422-11.671,10.886c-4.169,3.623-4.611,9.939-0.988,14.107
			c1.978,2.275,4.757,3.44,7.552,3.44c2.326,0,4.663-0.807,6.557-2.453c4.335-3.768,8.605-7.751,12.693-11.838
			c3.905-3.905,3.905-10.237,0-14.143C446.204,349.347,439.875,349.347,435.969,353.252z"/>
	</g>
</g>
<g>
</g>
<g>
</g>
<g>
</g>
<g>
</g>
<g>
</g>
<g>
</g>
<g>
</g>
<g>
</g>
<g>
</g>
<g>
</g>
<g>
</g>
<g>
</g>
<g>
</g>
<g>
</g>
<g>
</g>
</svg>
