<?xml version="1.0" encoding="iso-8859-1"?>
<!-- Generator: Adobe Illustrator 19.0.0, SVG Export Plug-In . SVG Version: 6.00 Build 0)  -->
<svg version="1.1" id="Layer_1" xmlns="http://www.w3.org/2000/svg" xmlns:xlink="http://www.w3.org/1999/xlink" x="0px" y="0px"
	 viewBox="0 0 502 502" style="enable-background:new 0 0 502 502;" xml:space="preserve">
<g>
	<circle style="fill:#F77E65;" cx="108.343" cy="344.79" r="98.343"/>
	<circle style="fill:#F77E65;" cx="393.657" cy="344.79" r="98.343"/>
	<circle style="fill:#F0EFE4;" cx="108.343" cy="344.79" r="63.343"/>
	<g>
		<circle style="fill:#F0EFE4;" cx="393.343" cy="344.79" r="63.343"/>
		<g>
			<path d="M34,90.396c2.559,0,5.118-0.977,7.071-2.929L62.6,65.938c3.905-3.905,3.905-10.237,0-14.142s-10.235-3.905-14.143,0
				L26.929,73.325c-3.905,3.905-3.905,10.237,0,14.142C28.882,89.42,31.44,90.396,34,90.396z"/>
			<path d="M393.657,236.447c-43.348,0-80.825,25.593-98.132,62.46C282.755,289.241,267.279,284,251,284
				s-31.755,5.241-44.525,14.907c-17.307-36.866-54.784-62.46-98.132-62.46c-36.414,0-68.689,18.058-88.343,45.688V104.396
				c0-5.523-4.478-10-10-10s-10,4.477-10,10V344.79c0,59.74,48.603,108.343,108.343,108.343S216.686,404.53,216.686,344.79
				c0-8.854-1.075-17.459-3.088-25.702C223.713,309.358,236.946,304,251,304c14.054,0,27.287,5.358,37.403,15.088
				c-2.013,8.242-3.088,16.848-3.088,25.702c0,59.74,48.603,108.343,108.343,108.343S502,404.53,502,344.79
				S453.397,236.447,393.657,236.447z M108.343,433.132C59.631,433.132,20,393.502,20,344.79c0-48.712,39.631-88.342,88.343-88.342
				s88.343,39.63,88.343,88.342C196.686,393.502,157.055,433.132,108.343,433.132z M393.657,433.132
				c-48.712,0-88.343-39.63-88.343-88.343c0-48.712,39.631-88.342,88.343-88.342S482,296.078,482,344.79
				C482,393.502,442.369,433.132,393.657,433.132z"/>
			<path d="M492,230c-5.522,0-10,4.477-10,10v14.79c0,5.523,4.478,10,10,10s10-4.477,10-10V240C502,234.477,497.522,230,492,230z"/>
			<path d="M501.95,103.407c-0.224-2.273-1.262-4.468-2.879-6.082l-45.529-45.529c-3.906-3.905-10.236-3.905-14.143,0
				c-3.905,3.905-3.905,10.237,0,14.142l42.601,42.6V205c0,5.523,4.478,10,10,10s10-4.477,10-10V104.401
				C502,104.069,501.983,103.738,501.95,103.407C501.937,103.271,501.983,103.738,501.95,103.407z"/>
			<path d="M108.343,271.447C67.901,271.447,35,304.349,35,344.79c0,40.441,32.901,73.343,73.343,73.343
				s73.343-32.901,73.343-73.343C181.686,304.349,148.784,271.447,108.343,271.447z M108.343,398.132
				C78.93,398.132,55,374.203,55,344.79c0-29.413,23.93-53.342,53.343-53.342s53.343,23.929,53.343,53.342
				C161.686,374.203,137.756,398.132,108.343,398.132z"/>
			<path d="M393.343,271.447c-40.441,0-73.343,32.901-73.343,73.342c0,40.441,32.901,73.343,73.343,73.343
				s73.343-32.901,73.343-73.343C466.686,304.349,433.784,271.447,393.343,271.447z M393.343,398.132
				c-29.413,0-53.343-23.93-53.343-53.343c0-29.413,23.93-53.342,53.343-53.342s53.343,23.929,53.343,53.342
				S422.756,398.132,393.343,398.132z"/>
		</g>
	</g>
</g>
<g>
</g>
<g>
</g>
<g>
</g>
<g>
</g>
<g>
</g>
<g>
</g>
<g>
</g>
<g>
</g>
<g>
</g>
<g>
</g>
<g>
</g>
<g>
</g>
<g>
</g>
<g>
</g>
<g>
</g>
</svg>
