<?xml version="1.0" encoding="iso-8859-1"?>
<!-- Generator: Adobe Illustrator 19.0.0, SVG Export Plug-In . SVG Version: 6.00 Build 0)  -->
<svg version="1.1" id="Layer_1" xmlns="http://www.w3.org/2000/svg" xmlns:xlink="http://www.w3.org/1999/xlink" x="0px" y="0px"
	 viewBox="0 0 502 502" style="enable-background:new 0 0 502 502;" xml:space="preserve">
<g>
	<path style="fill:#F77E65;" d="M313.366,222.956l3.215,3.215c-6.56,3.592-22.916,12.157-29.935,12.261
		c-9.557,0.141-26.089-13.7-35.647-13.822c-10.239-0.132-28.327,14.282-38.557,13.822c-6.42-0.288-21.038-8.578-27.107-12.178
		l3.297-3.297c-47.008,23.073-79.372,71.407-79.372,127.306C109.262,428.542,172.72,492,251,492s141.738-63.458,141.738-141.738
		C392.738,294.362,360.375,246.029,313.366,222.956z"/>
	<g>
		<path style="fill:#F0EFE4;" d="M313.367,222.956l-28.902-28.902V47.102h3.274c10.245,0,18.551-8.306,18.551-18.551
			S297.983,10,287.738,10h-73.476c-10.245,0-18.551,8.305-18.551,18.551s8.305,18.551,18.551,18.551h3.274v146.952l-28.902,28.902
			l-3.297,3.297c6.069,3.601,20.686,11.89,27.107,12.178c10.23,0.459,28.318-13.954,38.557-13.822
			c9.557,0.123,26.09,13.964,35.647,13.822c7.019-0.104,23.375-8.668,29.935-12.26L313.367,222.956z"/>
		<g>
			<path d="M379.118,268.932c-14.719-23.137-35.372-41.82-59.787-54.154l-24.867-24.867V56.294
				c12.507-3.033,21.825-14.317,21.825-27.743C316.289,12.808,303.481,0,287.738,0h-73.476c-15.743,0-28.551,12.808-28.551,28.551
				c0,13.426,9.318,24.71,21.825,27.743v133.618l-24.865,24.865c-24.415,12.333-45.069,31.016-59.788,54.154
				c-15.453,24.29-23.621,52.413-23.621,81.33C99.262,433.931,167.331,502,251,502s151.738-68.069,151.738-151.738
				C402.738,321.346,394.57,293.222,379.118,268.932z M214.262,20h73.476c4.715,0,8.551,3.836,8.551,8.551s-3.836,8.551-8.551,8.551
				h-3.273h-66.929h-3.273c-4.715,0-8.551-3.836-8.551-8.551S209.547,20,214.262,20z M224.607,201.125
				c1.875-1.876,2.929-4.419,2.929-7.071V57.102h46.929v136.952c0,2.652,1.054,5.195,2.929,7.071l22.4,22.399
				c-7.291,3.416-11.772,4.843-13.292,4.908c-0.001,0-0.003,0-0.004,0c-2.336,0-9.162-3.619-13.242-5.782
				c-7.709-4.088-14.991-7.949-22.126-8.04c-7.486-0.057-15.281,3.801-23.555,7.925c-4.519,2.253-12.1,6.031-14.632,5.909
				c-1.35-0.127-5.118-1.473-11.141-4.514L224.607,201.125z M251,482c-72.641,0-131.738-59.098-131.738-131.738
				c0-47.124,24.472-89.653,64.527-113.335v-0.002c19.369,11.093,25.958,11.395,28.206,11.497c0.315,0.014,0.63,0.021,0.946,0.021
				c7.493,0,15.305-3.895,23.556-8.008c4.681-2.334,11.77-5.85,14.375-5.826c2.298,0.029,9.006,3.586,13.014,5.712
				c7.973,4.227,15.511,8.208,22.91,8.11c2.408-0.036,9.508-0.151,31.173-11.649v0.003c40.2,23.652,64.769,66.258,64.769,113.478
				C382.738,422.902,323.641,482,251,482z"/>
			<path d="M155.832,370.785c-1.544-6.94-2.327-14.1-2.327-21.28c0-5.522-4.477-10-10-10c-5.523,0-10,4.478-10,10
				c0,8.639,0.944,17.261,2.805,25.624c1.037,4.66,5.168,7.83,9.752,7.83c0.719,0,1.45-0.078,2.181-0.24
				C153.634,381.519,157.032,376.176,155.832,370.785z"/>
			<path d="M251,447c-33.351,0-64.039-16.776-82.091-44.876c-2.986-4.646-9.173-5.996-13.819-3.008
				c-4.646,2.985-5.993,9.172-3.008,13.818C173.831,446.789,210.81,467,251,467c5.523,0,10-4.478,10-10S256.523,447,251,447z"/>
		</g>
	</g>
</g>
<g>
</g>
<g>
</g>
<g>
</g>
<g>
</g>
<g>
</g>
<g>
</g>
<g>
</g>
<g>
</g>
<g>
</g>
<g>
</g>
<g>
</g>
<g>
</g>
<g>
</g>
<g>
</g>
<g>
</g>
</svg>
