<?xml version="1.0" encoding="iso-8859-1"?>
<!-- Generator: Adobe Illustrator 19.0.0, SVG Export Plug-In . SVG Version: 6.00 Build 0)  -->
<svg version="1.1" id="Layer_1" xmlns="http://www.w3.org/2000/svg" xmlns:xlink="http://www.w3.org/1999/xlink" x="0px" y="0px"
	 viewBox="0 0 501.828 501.828" style="enable-background:new 0 0 501.828 501.828;" xml:space="preserve">
<g>
	<path style="fill:#F0EFE4;" d="M441.216,441.216L441.216,441.216c-67.597,67.597-177.193,67.597-244.79,0L60.612,305.402
		c-67.597-67.597-67.597-177.193,0-244.79l0,0c67.597-67.597,177.193-67.597,244.79,0l135.814,135.814
		C508.813,264.022,508.813,373.619,441.216,441.216z"/>
	<path style="fill:#F77E65;" d="M171.621,172.434L171.621,172.434c-8.499,8.499-22.405,8.499-30.904,0l-50.422-50.422
		c-8.499-8.499-8.499-22.405,0-30.904l0,0c8.499-8.499,22.405-8.499,30.904,0l50.422,50.422
		C180.12,150.029,180.12,163.936,171.621,172.434z"/>
	<g>
		<path d="M448.287,189.354L312.474,53.541c-71.388-71.388-187.544-71.389-258.933,0c-0.016,0.016-0.031,0.032-0.047,0.048
			c-0.005,0.005-0.01,0.009-0.015,0.014c-0.006,0.006-0.01,0.012-0.016,0.018c-71.309,71.394-71.284,187.491,0.078,258.853
			l135.813,135.813c35.694,35.694,82.581,53.541,129.467,53.541s93.772-17.847,129.466-53.541
			C519.675,376.899,519.675,260.742,448.287,189.354z M434.145,434.145c-63.59,63.59-167.058,63.591-230.648,0L67.683,298.331
			C6.446,237.094,4.191,138.883,60.895,74.909l16.822,16.53c-6.5,12.065-4.668,27.468,5.508,37.644l50.422,50.422
			c6.21,6.209,14.367,9.314,22.523,9.314c5.209,0,10.415-1.272,15.117-3.804l18.806,19.217c1.959,2.002,4.552,3.006,7.147,3.006
			c2.523,0,5.048-0.949,6.994-2.853c3.947-3.862,4.016-10.194,0.153-14.141l-19.357-19.781c5.495-11.794,3.384-26.284-6.336-36.004
			l-50.422-50.422c-9.719-9.719-24.208-11.831-36.001-6.337L75.045,60.775C105.78,33.593,144.39,19.99,183.007,19.99
			c41.764,0,83.529,15.897,115.324,47.693l135.814,135.814C497.735,267.086,497.735,370.555,434.145,434.145z M164.55,165.363
			c-4.621,4.622-12.14,4.623-16.761,0l-50.422-50.422c-4.622-4.621-4.622-12.14,0-16.761c2.311-2.311,5.346-3.466,8.381-3.466
			c3.035,0,6.07,1.155,8.38,3.466l50.422,50.422C169.172,153.223,169.172,160.742,164.55,165.363z"/>
		<path d="M421.485,213.342c-3.905-3.905-10.237-3.905-14.143,0s-3.905,10.237,0,14.143c27.797,27.797,41.04,66.153,36.332,105.233
			c-0.661,5.483,3.249,10.463,8.732,11.124c0.406,0.049,0.809,0.073,1.208,0.073c4.988,0,9.304-3.728,9.916-8.805
			C468.978,289.893,453.653,245.51,421.485,213.342z"/>
		<path d="M442.287,375.169c-4.83-2.681-10.917-0.935-13.595,3.894c-5.728,10.327-12.911,19.841-21.349,28.279
			c-3.905,3.905-3.905,10.237,0,14.143c1.953,1.953,4.512,2.929,7.071,2.929s5.119-0.976,7.071-2.929
			c9.755-9.756,18.064-20.765,24.696-32.72C448.86,383.935,447.117,377.848,442.287,375.169z"/>
	</g>
</g>
<g>
</g>
<g>
</g>
<g>
</g>
<g>
</g>
<g>
</g>
<g>
</g>
<g>
</g>
<g>
</g>
<g>
</g>
<g>
</g>
<g>
</g>
<g>
</g>
<g>
</g>
<g>
</g>
<g>
</g>
</svg>
