<?xml version="1.0" encoding="iso-8859-1"?>
<!-- Generator: Adobe Illustrator 19.0.0, SVG Export Plug-In . SVG Version: 6.00 Build 0)  -->
<svg version="1.1" id="Layer_1" xmlns="http://www.w3.org/2000/svg" xmlns:xlink="http://www.w3.org/1999/xlink" x="0px" y="0px"
	 viewBox="0 0 502 502" style="enable-background:new 0 0 502 502;" xml:space="preserve">
<g>
	<circle style="fill:#F77E65;" cx="79.855" cy="315.054" r="31.934"/>
	<circle style="fill:#F77E65;" cx="143.723" cy="315.054" r="31.934"/>
	<circle style="fill:#F77E65;" cx="207.59" cy="315.054" r="31.934"/>
	<circle style="fill:#F77E65;" cx="271.458" cy="315.054" r="31.934"/>
	<circle style="fill:#F77E65;" cx="422.299" cy="299.366" r="31.934"/>
	<g>
		<rect x="10" y="401.501" style="fill:#F0EFE4;" width="481.996" height="41.913"/>
		<g>
			<path d="M389.531,238.573c1.478,4.062,5.313,6.583,9.397,6.583c1.136,0,2.29-0.195,3.419-0.606
				c5.19-1.889,7.866-7.627,5.977-12.816l-8.755-24.054c-1.889-5.191-7.628-7.868-12.816-5.977
				c-5.19,1.889-7.866,7.627-5.977,12.816L389.531,238.573z"/>
			<path d="M384.295,281.644c-4.733,10.151-5.23,21.539-1.4,32.064c3.831,10.525,11.531,18.93,21.683,23.663
				c5.638,2.629,11.656,3.951,17.697,3.951c4.836,0,9.688-0.848,14.368-2.552c21.728-7.908,32.971-32.02,25.062-53.747v0.001
				c-3.831-10.525-11.531-18.93-21.683-23.663s-21.539-5.229-32.063-1.4C397.433,263.792,389.028,271.492,384.295,281.644z
				 M422.313,277.421c3.159,0,6.308,0.691,9.256,2.066c5.31,2.477,9.338,6.872,11.342,12.377
				c4.136,11.365-1.745,23.976-13.109,28.113c-5.505,2.002-11.462,1.744-16.772-0.732c-5.31-2.476-9.337-6.871-11.341-12.377
				s-1.743-11.462,0.732-16.772c2.476-5.31,6.871-9.337,12.377-11.341C417.246,277.864,419.783,277.421,422.313,277.421z"/>
			<path d="M502,114.47c0-36.328-29.556-65.884-65.884-65.884H65.884C29.556,48.586,0,78.142,0,114.47v328.944
				c0,5.522,4.478,10,10,10h481.996c5.522,0,10-4.478,10-10L502,114.47z M271.458,293.12c12.094,0,21.934,9.84,21.934,21.934
				s-9.84,21.934-21.934,21.934c-12.095,0-21.935-9.84-21.935-21.934S259.363,293.12,271.458,293.12z M261.458,274.334
				c-8.686,2.134-16.312,6.979-21.935,13.585c-5.622-6.606-13.248-11.451-21.934-13.585V68.586h43.868v205.748H261.458z
				 M143.723,293.12c12.094,0,21.934,9.84,21.934,21.934s-9.84,21.934-21.934,21.934s-21.934-9.84-21.934-21.934
				S131.629,293.12,143.723,293.12z M153.723,274.334V68.586h43.867v205.749c-8.685,2.134-16.312,6.979-21.934,13.585
				C170.034,281.313,162.408,276.468,153.723,274.334z M207.59,293.12c12.094,0,21.934,9.84,21.934,21.934
				s-9.84,21.934-21.934,21.934s-21.934-9.84-21.934-21.934S195.496,293.12,207.59,293.12z M65.884,68.586h3.972v178.468
				c0,5.522,4.478,10,10,10s10-4.478,10-10V68.586h43.867v205.749c-8.685,2.134-16.312,6.979-21.934,13.585
				c-7.698-9.045-19.153-14.799-31.934-14.799c-23.123,0-41.935,18.812-41.935,41.934s18.812,41.934,41.935,41.934
				c12.78,0,24.236-5.754,31.934-14.799c7.698,9.045,19.153,14.799,31.934,14.799s24.236-5.754,31.934-14.799
				c7.698,9.045,19.153,14.799,31.934,14.799s24.236-5.754,31.934-14.8c7.698,9.046,19.154,14.8,31.935,14.8
				c23.122,0,41.934-18.812,41.934-41.934c0-19.676-13.625-36.222-31.934-40.719V68.586h46.203l41.448,113.878
				c1.478,4.062,5.313,6.583,9.397,6.583c1.136,0,2.29-0.195,3.419-0.606c5.19-1.889,7.866-7.627,5.977-12.816l-38.96-107.039
				h87.172c25.301,0,45.884,20.583,45.884,45.884v277.031H20V114.47C20,89.169,40.583,68.586,65.884,68.586z M101.789,315.054
				c0,12.094-9.84,21.934-21.934,21.934c-12.095,0-21.935-9.84-21.935-21.934s9.84-21.934,21.935-21.934
				C91.949,293.12,101.789,302.96,101.789,315.054z M20,433.414v-21.54h461.996v21.54H20z"/>
		</g>
	</g>
</g>
<g>
</g>
<g>
</g>
<g>
</g>
<g>
</g>
<g>
</g>
<g>
</g>
<g>
</g>
<g>
</g>
<g>
</g>
<g>
</g>
<g>
</g>
<g>
</g>
<g>
</g>
<g>
</g>
<g>
</g>
</svg>
