<?xml version="1.0" encoding="iso-8859-1"?>
<!-- Generator: Adobe Illustrator 19.0.0, SVG Export Plug-In . SVG Version: 6.00 Build 0)  -->
<svg version="1.1" id="Layer_1" xmlns="http://www.w3.org/2000/svg" xmlns:xlink="http://www.w3.org/1999/xlink" x="0px" y="0px"
	 viewBox="0 0 502 502" style="enable-background:new 0 0 502 502;" xml:space="preserve">
<g>
	<rect x="92.25" y="10" style="fill:#F0EFE4;" width="355" height="482"/>
	<rect x="180.75" y="93" style="fill:#F77E65;" width="178" height="102"/>
	<g>
		<path d="M447.25,0h-355c-5.523,0-10,4.478-10,10v39h-27.5c-5.523,0-10,4.478-10,10s4.477,10,10,10h27.5v28h-27.5
			c-5.523,0-10,4.478-10,10s4.477,10,10,10h27.5v28h-27.5c-5.523,0-10,4.478-10,10s4.477,10,10,10h27.5v28h-27.5
			c-5.523,0-10,4.478-10,10s4.477,10,10,10h27.5v28h-27.5c-5.523,0-10,4.478-10,10s4.477,10,10,10h27.5v28h-27.5
			c-5.523,0-10,4.478-10,10s4.477,10,10,10h27.5v76h-27.5c-5.523,0-10,4.478-10,10s4.477,10,10,10h27.5v28h-27.5
			c-5.523,0-10,4.478-10,10s4.477,10,10,10h27.5v39c0,5.522,4.477,10,10,10h355c5.522,0,10-4.478,10-10V10
			C457.25,4.478,452.772,0,447.25,0z M437.25,482h-335v-29h28.5c5.523,0,10-4.478,10-10s-4.477-10-10-10h-28.5v-28h28.5
			c5.523,0,10-4.478,10-10s-4.477-10-10-10h-28.5v-76h28.5c5.523,0,10-4.478,10-10s-4.477-10-10-10h-28.5v-76h28.5
			c5.523,0,10-4.478,10-10s-4.477-10-10-10h-28.5v-28h28.5c5.523,0,10-4.478,10-10s-4.477-10-10-10h-28.5V69h28.5
			c5.523,0,10-4.478,10-10s-4.477-10-10-10h-28.5V20h335V482z"/>
		<path d="M180.75,205h178c5.522,0,10-4.478,10-10V93c0-5.522-4.478-10-10-10h-178c-5.523,0-10,4.478-10,10v102
			C170.75,200.522,175.227,205,180.75,205z M190.75,103h158v82h-158V103z"/>
		<path d="M130.75,241h-10c-5.523,0-10,4.478-10,10s4.477,10,10,10h10c5.523,0,10-4.478,10-10S136.273,241,130.75,241z"/>
		<path d="M54.75,357h11c5.523,0,10-4.478,10-10s-4.477-10-10-10h-11c-5.523,0-10,4.478-10,10S49.227,357,54.75,357z"/>
		<path d="M130.75,337h-11c-5.523,0-10,4.478-10,10s4.477,10,10,10h11c5.523,0,10-4.478,10-10S136.273,337,130.75,337z"/>
		<path d="M267.75,134h-45c-5.523,0-10,4.478-10,10s4.477,10,10,10h45c5.522,0,10-4.478,10-10S273.272,134,267.75,134z"/>
		<path d="M316.75,134h-14c-5.522,0-10,4.478-10,10s4.478,10,10,10h14c5.522,0,10-4.478,10-10S322.272,134,316.75,134z"/>
		<path d="M410.75,467c5.522,0,10-4.478,10-10V349c0-5.522-4.478-10-10-10s-10,4.478-10,10v108
			C400.75,462.522,405.228,467,410.75,467z"/>
	</g>
</g>
<g>
</g>
<g>
</g>
<g>
</g>
<g>
</g>
<g>
</g>
<g>
</g>
<g>
</g>
<g>
</g>
<g>
</g>
<g>
</g>
<g>
</g>
<g>
</g>
<g>
</g>
<g>
</g>
<g>
</g>
</svg>
