<?xml version="1.0" encoding="iso-8859-1"?>
<!-- Generator: Adobe Illustrator 19.0.0, SVG Export Plug-In . SVG Version: 6.00 Build 0)  -->
<svg version="1.1" id="Layer_1" xmlns="http://www.w3.org/2000/svg" xmlns:xlink="http://www.w3.org/1999/xlink" x="0px" y="0px"
	 viewBox="0 0 502 502" style="enable-background:new 0 0 502 502;" xml:space="preserve">
<g>
	<g>
		<g>
			<path style="fill:#F77E65;" d="M362.502,492c-23.6,0.001-45.778-9.185-62.473-25.879L79.235,245.327
				c-53.748-53.748-53.748-141.203,0-194.951C105.272,24.34,139.889,10,176.711,10s71.439,14.34,97.475,40.376l181.391,181.391
				c9.992,9.992,9.992,26.193,0,36.185c-9.993,9.993-26.192,9.993-36.185,0L238.001,86.561
				c-16.371-16.372-38.138-25.388-61.29-25.388s-44.919,9.016-61.29,25.388c-33.795,33.795-33.795,88.785,0,122.58l220.794,220.794
				c7.024,7.024,16.36,10.89,26.291,10.89c0.024,0,0.047,0,0.072,0c9.958-0.019,19.306-3.922,26.321-10.99
				c14.389-14.497,14.344-38.042-0.099-52.486L197.076,185.627c-9.992-9.992-9.992-26.192,0-36.185s26.192-9.993,36.185,0
				l191.725,191.724c34.32,34.321,34.425,90.27,0.235,124.719c-16.67,16.796-38.883,26.07-62.546,26.115
				C362.618,492,362.559,492,362.502,492z"/>
			<path d="M362.694,502h-0.191c-26.267,0.001-50.965-10.229-69.544-28.808L72.164,252.398c-57.647-57.647-57.647-151.446,0-209.094
				C100.09,15.379,137.219,0,176.711,0s76.62,15.379,104.547,43.305l181.391,181.391c6.722,6.722,10.423,15.658,10.423,25.164
				c0,9.506-3.701,18.442-10.423,25.164s-15.658,10.424-25.163,10.424c-9.506,0-18.442-3.702-25.164-10.425L230.93,93.633
				c-14.482-14.483-33.737-22.459-54.219-22.459s-39.737,7.976-54.219,22.459c-14.456,14.456-22.417,33.711-22.417,54.219
				s7.961,39.763,22.417,54.219l220.794,220.795c5.134,5.134,11.959,7.961,19.221,7.961c7.333-0.014,14.167-2.867,19.296-8.035
				c10.519-10.598,10.485-27.811-0.073-38.369L190.005,192.698c-6.721-6.722-10.423-15.658-10.423-25.164
				c0-9.505,3.702-18.441,10.423-25.164c6.721-6.721,15.658-10.423,25.164-10.423c9.505,0,18.442,3.701,25.164,10.423
				l191.725,191.724c38.204,38.206,38.321,100.487,0.261,138.835C413.761,491.626,389.036,501.95,362.694,502z M176.711,20
				c-34.15,0-66.256,13.299-90.405,37.447c-49.849,49.849-49.849,130.96,0,180.809L307.101,459.05
				c14.801,14.801,34.477,22.951,55.401,22.95l0,0h0.173c20.966-0.04,40.664-8.265,55.447-23.159
				c30.321-30.551,30.228-80.168-0.208-110.604L226.19,156.513c-2.944-2.944-6.858-4.565-11.021-4.565s-8.077,1.621-11.021,4.565
				s-4.566,6.858-4.566,11.021s1.622,8.078,4.565,11.021l191.725,191.724c18.326,18.328,18.383,48.205,0.126,66.601
				c-8.902,8.97-20.765,13.923-33.401,13.946c-12.693,0-24.542-4.907-33.453-13.818L108.349,216.213
				c-37.694-37.694-37.694-99.028,0-136.723c18.259-18.26,42.537-28.316,68.361-28.316c25.825,0,50.103,10.057,68.362,28.316
				l181.391,181.391c2.944,2.944,6.858,4.566,11.021,4.566c4.162,0,8.076-1.622,11.021-4.565c2.944-2.944,4.565-6.859,4.565-11.022
				s-1.621-8.078-4.565-11.021L267.115,57.447C242.967,33.299,210.861,20,176.711,20z"/>
		</g>
	</g>
	<g>
		<path d="M290.498,113c-2.56,0-5.118-0.977-7.071-2.929l-14.5-14.5c-3.905-3.905-3.905-10.237,0-14.143
			c3.906-3.904,10.236-3.904,14.143,0l14.5,14.5c3.905,3.905,3.905,10.237,0,14.143C295.616,112.023,293.057,113,290.498,113z"/>
	</g>
	<g>
		<path d="M436.498,259c-2.56,0-5.118-0.977-7.071-2.929L308.926,135.57c-3.905-3.905-3.905-10.237,0-14.143
			c3.906-3.904,10.236-3.904,14.143,0L443.57,241.928c3.905,3.905,3.905,10.237,0,14.143C441.616,258.023,439.057,259,436.498,259z"
			/>
	</g>
</g>
<g>
</g>
<g>
</g>
<g>
</g>
<g>
</g>
<g>
</g>
<g>
</g>
<g>
</g>
<g>
</g>
<g>
</g>
<g>
</g>
<g>
</g>
<g>
</g>
<g>
</g>
<g>
</g>
<g>
</g>
</svg>
