<?xml version="1.0" encoding="iso-8859-1"?>
<!-- Generator: Adobe Illustrator 19.0.0, SVG Export Plug-In . SVG Version: 6.00 Build 0)  -->
<svg version="1.1" id="Layer_1" xmlns="http://www.w3.org/2000/svg" xmlns:xlink="http://www.w3.org/1999/xlink" x="0px" y="0px"
	 viewBox="0 0 502 502" style="enable-background:new 0 0 502 502;" xml:space="preserve">
<g>
	<path style="fill:#F77E65;" d="M485.686,17.374c-8.419-8.419-22.069-8.419-30.488,0L413.57,59.002l-13.553-13.553L65.165,380.301
		l57.594,57.593l334.852-334.852l-13.553-13.553l41.628-41.628C494.105,39.443,494.105,25.793,485.686,17.374z"/>
	<polygon style="fill:#F0EFE4;" points="65.165,380.301 35.971,429.944 73.115,467.089 122.759,437.895 	"/>
	<g>
		<path d="M502,32.617c0-8.429-3.283-16.354-9.243-22.314c-5.961-5.96-13.886-9.243-22.314-9.243c-8.43,0-16.354,3.283-22.315,9.243
			L413.57,44.859l-6.481-6.481c-1.876-1.875-4.419-2.929-7.071-2.929s-5.195,1.054-7.071,2.929L58.094,373.229
			c-0.606,0.606-1.116,1.288-1.542,2.015l-0.006-0.013l-29.194,49.644c-2.309,3.927-1.672,8.919,1.549,12.141l10.44,10.44
			L2.929,483.867c-3.905,3.905-3.905,10.237,0,14.143c1.953,1.952,4.512,2.929,7.071,2.929s5.119-0.977,7.071-2.929l36.411-36.411
			l12.562,12.563c1.927,1.927,4.487,2.929,7.075,2.929c1.738,0,3.488-0.452,5.066-1.38l49.644-29.195l-0.011-0.005
			c0.717-0.421,1.397-0.928,2.013-1.543l307.786-307.789l7.78,7.78c8.474,8.474,8.474,22.262,0,30.735l-44.878,44.878
			c-3.905,3.905-3.905,10.237,0,14.143c1.953,1.952,4.512,2.929,7.071,2.929s5.118-0.977,7.071-2.929l44.878-44.879
			c16.271-16.271,16.271-42.748,0-59.02l-7.78-7.78l12.922-12.922c3.905-3.905,3.905-10.237,0-14.143L458.2,89.49l34.557-34.558
			C498.717,48.972,502,41.047,502,32.617z M74.715,454.548l-26.203-26.203l18.72-31.834l39.315,39.316L74.715,454.548z
			 M122.759,423.752l-43.452-43.451l320.71-320.709l43.45,43.451L122.759,423.752z M478.614,40.79l-34.137,34.139l-16.346-16.346
			l34.139-34.138c4.507-4.508,11.84-4.506,16.345,0C483.121,28.951,483.121,36.284,478.614,40.79z"/>
		<path d="M376.585,244.507l-11.22,11.22c-3.905,3.905-3.905,10.237,0,14.143c1.953,1.952,4.512,2.929,7.071,2.929
			s5.118-0.977,7.071-2.929l11.22-11.22c3.905-3.905,3.905-10.237,0-14.143C386.821,240.603,380.491,240.603,376.585,244.507z"/>
		<path d="M210.74,263.855L107.057,367.538c-3.905,3.905-3.905,10.237,0,14.143c1.953,1.952,4.512,2.929,7.071,2.929
			s5.119-0.977,7.071-2.929l103.683-103.683c3.905-3.905,3.905-10.237,0-14.143C220.977,259.951,214.645,259.951,210.74,263.855z"/>
	</g>
</g>
<g>
</g>
<g>
</g>
<g>
</g>
<g>
</g>
<g>
</g>
<g>
</g>
<g>
</g>
<g>
</g>
<g>
</g>
<g>
</g>
<g>
</g>
<g>
</g>
<g>
</g>
<g>
</g>
<g>
</g>
</svg>
