<?xml version="1.0" encoding="iso-8859-1"?>
<!-- Generator: Adobe Illustrator 19.0.0, SVG Export Plug-In . SVG Version: 6.00 Build 0)  -->
<svg version="1.1" id="Layer_1" xmlns="http://www.w3.org/2000/svg" xmlns:xlink="http://www.w3.org/1999/xlink" x="0px" y="0px"
	 viewBox="0 0 501.978 501.978" style="enable-background:new 0 0 501.978 501.978;" xml:space="preserve">
<g>
	<polygon style="fill:#F0EFE4;" points="104.814,326.7 39.756,349.613 10,487.924 148.311,458.168 171.224,393.11 	"/>
	<polygon style="fill:#F77E65;" points="483.87,105.476 392.448,14.054 241.516,164.986 254.021,177.492 104.814,326.7 
		171.224,393.11 320.432,243.902 332.938,256.408 	"/>
	<g>
		<path d="M83.513,400.269c-3.906,3.905-3.906,10.236-0.001,14.143c1.953,1.952,4.512,2.929,7.071,2.929s5.118-0.977,7.071-2.929
			l12.563-12.563c3.906-3.905,3.906-10.236,0.001-14.142c-3.904-3.905-10.234-3.905-14.143-0.001L83.513,400.269z"/>
		<path d="M394.864,261.412l-12.938,12.938c-3.905,3.905-3.905,10.237,0,14.143c1.953,1.952,4.512,2.929,7.071,2.929
			s5.118-0.977,7.071-2.929l12.938-12.938c3.905-3.905,3.905-10.237,0-14.143C405.101,257.507,398.771,257.507,394.864,261.412z"/>
		<path d="M488.354,130.316l-7.59-7.59l10.178-10.178c3.905-3.905,3.905-10.237,0-14.143L399.52,6.983
			c-3.906-3.904-10.236-3.904-14.143,0L234.444,157.915c-3.905,3.905-3.905,10.237,0,14.143l5.435,5.435L99.348,318.023
			l-62.914,22.159c-3.279,1.154-5.723,3.93-6.454,7.328L0.224,485.82c-0.714,3.319,0.305,6.774,2.705,9.175
			c1.896,1.895,4.447,2.929,7.071,2.929c0.699,0,1.404-0.073,2.104-0.224l138.311-29.755c3.398-0.731,6.174-3.175,7.328-6.454
			l22.158-62.915l140.531-140.53l5.435,5.435c1.876,1.875,4.419,2.929,7.071,2.929s5.195-1.054,7.071-2.929l126.612-126.612
			l7.59,7.59c5.022,5.022,7.789,11.7,7.789,18.803s-2.767,13.78-7.789,18.803l-51.748,51.749c-3.905,3.905-3.905,10.237,0,14.143
			c1.953,1.952,4.512,2.929,7.071,2.929s5.118-0.977,7.071-2.929l51.748-51.749C506.52,178.041,506.52,148.482,488.354,130.316z
			 M140.737,449.569l-99.686,21.446l29.866-29.866c3.905-3.905,3.905-10.237,0-14.143c-3.906-3.904-10.236-3.904-14.143,0
			l-29.865,29.865l21.447-99.685l53.84-18.963l57.504,57.504L140.737,449.569z M306.289,243.903L171.224,378.967L118.956,326.7
			l135.065-135.065L306.289,243.903z M255.658,164.986l136.79-136.789l77.279,77.279l-10.169,10.169
			c-0.003,0.003-0.007,0.006-0.01,0.009s-0.006,0.007-0.009,0.01L332.938,242.266L255.658,164.986z"/>
		<path d="M349.929,87.918l-70,70c-3.905,3.905-3.905,10.237,0,14.143c1.953,1.952,4.512,2.929,7.071,2.929s5.118-0.977,7.071-2.929
			l70-70c3.905-3.905,3.905-10.237,0-14.143C360.165,84.013,353.835,84.013,349.929,87.918z"/>
	</g>
</g>
<g>
</g>
<g>
</g>
<g>
</g>
<g>
</g>
<g>
</g>
<g>
</g>
<g>
</g>
<g>
</g>
<g>
</g>
<g>
</g>
<g>
</g>
<g>
</g>
<g>
</g>
<g>
</g>
<g>
</g>
</svg>
