<?xml version="1.0" encoding="iso-8859-1"?>
<!-- Generator: Adobe Illustrator 19.0.0, SVG Export Plug-In . SVG Version: 6.00 Build 0)  -->
<svg version="1.1" id="Layer_1" xmlns="http://www.w3.org/2000/svg" xmlns:xlink="http://www.w3.org/1999/xlink" x="0px" y="0px"
	 viewBox="0 0 502 502" style="enable-background:new 0 0 502 502;" xml:space="preserve">
<g>
	<path style="fill:#F77E65;" d="M43.774,458.196L43.774,458.196c-45.072-45.072-45.072-118.147,0-163.219L260.672,78.08
		L423.89,241.299L206.993,458.196C161.921,503.268,88.846,503.268,43.774,458.196z"/>
	<g>
		<path d="M186.056,216.919c-2.559,0-5.118-0.977-7.071-2.929c-3.905-3.905-3.906-10.237,0-14.143l20.777-20.778
			c3.905-3.904,10.237-3.904,14.142,0c3.905,3.905,3.906,10.237,0,14.143l-20.777,20.778
			C191.175,215.942,188.615,216.919,186.056,216.919z"/>
	</g>
	<g>
		<path d="M69.968,436c-2.559,0-5.118-0.977-7.071-2.929c-15.644-15.644-24.26-36.443-24.26-58.568
			c0-22.124,8.616-42.924,24.26-58.567l85.54-85.54c3.905-3.904,10.237-3.904,14.143,0c3.905,3.905,3.905,10.237,0,14.143
			l-85.54,85.54c-11.867,11.866-18.402,27.644-18.402,44.425c0,16.782,6.535,32.56,18.401,44.426c3.905,3.905,3.905,10.237,0,14.143
			C75.086,435.023,72.527,436,69.968,436z"/>
	</g>
	
		<rect x="317.713" y="41.684" transform="matrix(-0.7071 -0.7071 0.7071 -0.7071 589.3939 465.7515)" style="fill:#F0EFE4;" width="146.888" height="138.248"/>
	<path d="M501.971,113.866c0-2.652-1.054-5.195-2.929-7.071L395.175,2.929C393.3,1.054,390.756,0,388.104,0
		s-5.196,1.054-7.071,2.929l-90.685,90.686L267.743,71.01c-3.905-3.904-10.237-3.904-14.143,0L36.703,287.906
		c-48.898,48.899-48.898,128.463,0,177.361C60.391,488.955,91.884,502,125.383,502c33.5,0,64.993-13.045,88.681-36.732
		L430.961,248.37c3.905-3.905,3.905-10.237,0-14.143l-22.605-22.604l90.685-90.686C500.917,119.062,501.971,116.519,501.971,113.866
		z M409.748,241.299L199.921,451.125c-41.099,41.102-107.976,41.102-149.076,0l0,0c-41.101-41.1-41.1-107.976,0-149.076
		L260.671,92.223L409.748,241.299z M394.214,197.48l-89.724-89.724l83.614-83.614l26.008,26.008l-24.35,24.35
		c-3.905,3.905-3.906,10.237,0,14.143c1.953,1.952,4.512,2.929,7.071,2.929c2.559,0,5.119-0.977,7.071-2.929l24.351-24.351
		l49.575,49.574L394.214,197.48z"/>
	<g>
		<path d="M361.046,127.357c-2.559,0-5.119-0.977-7.071-2.929c-3.905-3.905-3.905-10.237,0-14.143l7.855-7.855
			c3.905-3.904,10.237-3.904,14.143,0c3.905,3.905,3.905,10.237,0,14.143l-7.855,7.855
			C366.165,126.381,363.605,127.357,361.046,127.357z"/>
	</g>
</g>
<g>
</g>
<g>
</g>
<g>
</g>
<g>
</g>
<g>
</g>
<g>
</g>
<g>
</g>
<g>
</g>
<g>
</g>
<g>
</g>
<g>
</g>
<g>
</g>
<g>
</g>
<g>
</g>
<g>
</g>
</svg>
