<?xml version="1.0" encoding="iso-8859-1"?>
<!-- Generator: Adobe Illustrator 19.0.0, SVG Export Plug-In . SVG Version: 6.00 Build 0)  -->
<svg version="1.1" id="Layer_1" xmlns="http://www.w3.org/2000/svg" xmlns:xlink="http://www.w3.org/1999/xlink" x="0px" y="0px"
	 viewBox="0 0 502 502" style="enable-background:new 0 0 502 502;" xml:space="preserve">
<g>
	<circle style="fill:#F77E65;" cx="251" cy="251" r="76.5"/>
	<g>
		<path d="M251,164.5c-47.696,0-86.5,38.804-86.5,86.5s38.804,86.5,86.5,86.5s86.5-38.804,86.5-86.5S298.696,164.5,251,164.5z
			 M251,317.5c-36.668,0-66.5-29.832-66.5-66.5s29.832-66.5,66.5-66.5s66.5,29.832,66.5,66.5S287.668,317.5,251,317.5z"/>
		<path d="M446.777,169.892c9.319-41.302,3.07-75.013-18.293-96.375c-17.806-17.806-44.591-25.244-77.478-21.514
			c-6.13,0.696-12.445,1.794-18.901,3.246C309.486,19.432,281.222,0,251,0c-35.666,0-68.608,27.053-92.76,76.175
			c-8.865,18.03-16.19,38.321-21.858,60.207c-21.886,5.667-42.176,12.993-60.207,21.858C27.053,182.392,0,215.334,0,251
			c0,30.215,19.423,58.475,55.226,81.092c-9.324,41.31-3.076,75.026,18.29,96.392c14.789,14.789,35.876,22.451,61.468,22.451
			c3.859,0,7.823-0.174,11.881-0.525c7.417-0.641,15.134-1.88,23.077-3.671c6.045,9.56,12.521,18.044,19.342,25.235
			C207.913,491.617,229.254,502,251,502c35.666,0,68.608-27.053,92.76-76.175c8.865-18.03,16.191-38.321,21.858-60.207
			c21.886-5.667,42.177-12.993,60.208-21.858C474.947,319.608,502,286.666,502,251C502,220.652,482.354,192.367,446.777,169.892z
			 M353.263,71.875c18.558-2.106,44.219-1.078,61.079,15.783c15.378,15.378,20.172,40.402,14.178,71.912
			c-8.521-4.308-17.712-8.336-27.554-12.044c-5.172-1.948-10.937,0.665-12.884,5.833c-1.946,5.168,0.665,10.937,5.833,12.883
			c10.743,4.047,20.631,8.513,29.609,13.311c-0.702,2.298-1.443,4.616-2.243,6.966c-8.91,26.145-23.284,53.408-42.039,80.157
			c0.16-5.199,0.25-10.424,0.25-15.677c0-65.873-12.689-127.96-35.731-174.825c-0.441-0.898-0.892-1.772-1.339-2.655
			C346.102,72.831,349.72,72.278,353.263,71.875z M176.188,85C196.796,43.084,223.365,20,251,20
			c21.756,0,42.85,14.317,60.897,40.857c-19.662,6.433-40.306,15.924-61.176,28.236c-4.757,2.806-6.338,8.938-3.532,13.694
			c2.807,4.757,8.937,6.339,13.694,3.532c21.237-12.529,42.069-21.912,61.583-27.845c1.131,2.125,2.249,4.293,3.347,6.526
			c21.718,44.173,33.679,103.126,33.679,166c0,14.974-0.686,29.722-2.013,44.105c-9.232,11.108-19.175,22.022-29.763,32.61
			c-3.905,3.905-3.905,10.237,0,14.143c1.953,1.952,4.512,2.929,7.071,2.929s5.118-0.977,7.071-2.929
			c3.714-3.714,7.345-7.472,10.907-11.261c-1.101,6.267-2.34,12.423-3.7,18.468c-30.32,6.825-63.6,10.427-98.064,10.427
			c-62.874,0-121.827-11.961-166-33.68c-2.234-1.098-4.402-2.217-6.529-3.348c0.703-2.303,1.446-4.628,2.249-6.984
			c8.91-26.145,23.284-53.407,42.038-80.156c-0.16,5.199-0.25,10.424-0.25,15.676c0,23.306,1.602,46.376,4.762,68.57
			c0.778,5.468,5.84,9.265,11.31,8.491c5.468-0.779,9.269-5.842,8.491-11.31c-3.027-21.263-4.563-43.384-4.563-65.75
			c0-14.974,0.686-29.722,2.013-44.104c9.232-11.109,19.175-22.022,29.763-32.61c3.905-3.905,3.905-10.237,0-14.143
			s-10.237-3.905-14.143,0c-3.714,3.714-7.345,7.472-10.908,11.261c1.101-6.267,2.34-12.424,3.701-18.469
			c30.32-6.825,63.6-10.427,98.065-10.427c5.522,0,10-4.477,10-10s-4.478-10-10-10c-32.188,0-63.466,3.038-92.511,8.825
			C163.354,114.626,169.274,99.061,176.188,85z M20,251c0-27.635,23.084-54.204,65-74.812c14.062-6.914,29.626-12.834,46.333-17.699
			c-2.602,13.06-4.646,26.57-6.108,40.413c-29.131,36.013-51.121,73.989-63.436,110.126c-0.327,0.959-0.631,1.908-0.943,2.861
			C34.313,293.844,20,272.753,20,251z M325.813,417c-20.608,41.916-47.178,65-74.813,65c-21.678,0-42.934-14.667-60.862-40.875
			c16.676-5.459,34.074-13.111,51.698-22.83c4.836-2.667,6.595-8.749,3.928-13.585c-2.667-4.837-8.75-6.596-13.585-3.928
			c-18.367,10.127-36.086,17.719-52.637,22.764c-5.377-10.082-10.338-21.321-14.773-33.629c-1.873-5.196-7.603-7.892-12.797-6.019
			c-5.196,1.873-7.891,7.602-6.018,12.798c4.083,11.333,8.664,21.97,13.654,31.801c-31.082,5.841-56.525,1.269-71.949-14.156
			c-15.382-15.382-20.175-40.416-14.173-71.937c0.894,0.453,1.78,0.909,2.69,1.356C123.04,366.802,185.127,379.492,251,379.492
			c32.188,0,63.465-3.038,92.511-8.825C338.646,387.374,332.726,402.939,325.813,417z M417.001,325.812
			c-14.062,6.914-29.627,12.834-46.334,17.699c2.602-13.059,4.646-26.57,6.108-40.413c29.132-36.013,51.121-73.989,63.436-110.127
			c0.317-0.931,0.612-1.852,0.915-2.776C467.302,208.15,482,229.436,482,251C482,278.635,458.916,305.204,417.001,325.812z"/>
		<path d="M299.502,144.96c4.703,0.483,9.439,1.045,14.078,1.67c0.453,0.061,0.904,0.091,1.35,0.091
			c4.929,0,9.221-3.645,9.897-8.664c0.738-5.473-3.1-10.509-8.573-11.247c-4.848-0.654-9.797-1.241-14.709-1.746
			c-5.511-0.565-10.405,3.434-10.969,8.927C290.012,139.486,294.009,144.396,299.502,144.96z"/>
		<path d="M251,195.5c-30.603,0-55.5,24.897-55.5,55.5c0,5.523,4.477,10,10,10s10-4.477,10-10c0-19.575,15.925-35.5,35.5-35.5
			c5.522,0,10-4.477,10-10S256.522,195.5,251,195.5z"/>
	</g>
</g>
<g>
</g>
<g>
</g>
<g>
</g>
<g>
</g>
<g>
</g>
<g>
</g>
<g>
</g>
<g>
</g>
<g>
</g>
<g>
</g>
<g>
</g>
<g>
</g>
<g>
</g>
<g>
</g>
<g>
</g>
</svg>
