<?xml version="1.0" encoding="iso-8859-1"?>
<!-- Generator: Adobe Illustrator 19.0.0, SVG Export Plug-In . SVG Version: 6.00 Build 0)  -->
<svg version="1.1" id="Layer_1" xmlns="http://www.w3.org/2000/svg" xmlns:xlink="http://www.w3.org/1999/xlink" x="0px" y="0px"
	 viewBox="0 0 502 502" style="enable-background:new 0 0 502 502;" xml:space="preserve">
<g>
	<rect x="128.797" y="149.555" style="fill:#F0EFE4;" width="244.405" height="49.381"/>
	<path style="fill:#F0EFE4;" d="M254.959,10h-7.918c-28.115,0-50.907,22.792-50.907,50.907v88.647h109.733V60.907
		C305.867,32.792,283.075,10,254.959,10z"/>
	<path style="fill:#F77E65;" d="M196.133,198.935v214.699c0,20.631,15.37,38.161,36.785,44.596V492h36.162v-33.769
		c21.415-6.435,36.786-23.966,36.786-44.596v-214.7H196.133z"/>
	<g>
		<path d="M373.203,139.555h-57.337V60.907C315.866,27.323,288.543,0,254.959,0h-7.918c-33.584,0-60.907,27.323-60.907,60.907
			v78.647h-57.337c-5.522,0-10,4.478-10,10v49.381c0,5.522,4.478,10,10,10h57.337v204.699c0,22.224,14.503,42.193,36.785,51.609V492
			c0,5.522,4.478,10,10,10h36.162c5.522,0,10-4.478,10-10v-26.756c22.282-9.416,36.785-29.386,36.785-51.609V208.936h57.337
			c5.522,0,10-4.478,10-10v-49.381C383.203,144.032,378.726,139.555,373.203,139.555z M206.134,60.907
			C206.134,38.35,224.485,20,247.041,20h7.918c22.557,0,40.907,18.351,40.907,40.907v78.647h-89.732V60.907z M295.866,413.635
			c0,15.614-11.921,29.688-29.663,35.02c-4.228,1.271-7.122,5.163-7.122,9.577V482h-16.162v-23.769c0-4.414-2.895-8.307-7.122-9.577
			c-17.742-5.332-29.663-19.405-29.663-35.02V405H240c5.522,0,10-4.478,10-10s-4.478-10-10-10h-33.866v-30H240
			c5.522,0,10-4.478,10-10s-4.478-10-10-10h-33.866v-30H240c5.522,0,10-4.478,10-10s-4.478-10-10-10h-33.866v-30H240
			c5.522,0,10-4.478,10-10s-4.478-10-10-10h-33.866v-26.064h89.732V413.635z M138.797,188.936v-29.381h224.406v29.381H138.797z"/>
		<path d="M224.997,65c-5.522,0-10,4.478-10,10v41.003c0,5.522,4.478,10,10,10s10-4.478,10-10V75
			C234.997,69.478,230.52,65,224.997,65z"/>
		<path d="M253.136,28.863c-9.379,0-18.395,3.437-25.386,9.676c-4.121,3.677-4.48,9.999-0.803,14.119
			c1.976,2.214,4.714,3.342,7.465,3.342c2.369,0,4.748-0.837,6.654-2.539c3.322-2.965,7.608-4.598,12.069-4.598
			c5.522,0,10-4.478,10-10S258.658,28.863,253.136,28.863z"/>
	</g>
</g>
<g>
</g>
<g>
</g>
<g>
</g>
<g>
</g>
<g>
</g>
<g>
</g>
<g>
</g>
<g>
</g>
<g>
</g>
<g>
</g>
<g>
</g>
<g>
</g>
<g>
</g>
<g>
</g>
<g>
</g>
</svg>
