<?xml version="1.0" encoding="iso-8859-1"?>
<!-- Generator: Adobe Illustrator 19.0.0, SVG Export Plug-In . SVG Version: 6.00 Build 0)  -->
<svg version="1.1" id="Layer_1" xmlns="http://www.w3.org/2000/svg" xmlns:xlink="http://www.w3.org/1999/xlink" x="0px" y="0px"
	 viewBox="0 0 502.003 502.003" style="enable-background:new 0 0 502.003 502.003;" xml:space="preserve">
<g>
	<g>
		<path style="fill:#F77E65;" d="M437.66,245.524c11.239-0.625,21.868,1.749,31.166,6.394c10.645,5.318,23.176-2.161,23.176-14.06
			V122.757H376.901c-11.899,0-19.379-12.531-14.06-23.175c4.646-9.298,7.02-19.929,6.394-31.168
			c-1.762-31.645-27.706-57.128-59.375-58.364c-35.346-1.379-64.433,26.866-64.433,61.905c0,9.972,2.358,19.39,6.546,27.732
			c5.316,10.59-2.258,23.07-14.107,23.07H122.757v115.101c0,11.899-12.531,19.378-23.176,14.06
			c-9.298-4.645-19.927-7.02-31.166-6.394c-31.645,1.761-57.129,27.704-58.366,59.373c-1.38,35.347,26.865,64.436,61.905,64.436
			c9.972,0,19.39-2.358,27.732-6.546c10.59-5.316,23.07,2.258,23.07,14.107v115.107h115.101c11.899,0,19.379-12.531,14.06-23.175
			c-4.645-9.298-7.02-19.929-6.394-31.168c1.762-31.645,27.706-57.129,59.375-58.364c35.346-1.379,64.433,26.866,64.433,61.905
			c0,9.972-2.358,19.39-6.546,27.732c-5.316,10.59,2.258,23.07,14.107,23.07h115.107V376.894c0-11.849-12.48-19.423-23.07-14.107
			c-8.342,4.188-17.761,6.546-27.732,6.546c-35.04,0-63.285-29.089-61.905-64.436C380.531,273.228,406.016,247.285,437.66,245.524z"
			/>
		<path d="M492.002,502.001H376.894c-9.02,0-17.229-4.577-21.958-12.243c-4.762-7.72-5.168-17.183-1.085-25.313
			c3.638-7.247,5.482-15.068,5.482-23.245c0-14.262-5.663-27.563-15.945-37.451c-10.276-9.885-23.82-15.017-38.099-14.462
			c-26.443,1.031-48.311,22.523-49.781,48.927c-0.505,9.08,1.348,18.12,5.355,26.143c4.096,8.198,3.683,17.715-1.105,25.459
			c-4.718,7.631-12.904,12.187-21.9,12.187h-115.1c-5.522,0-10-4.478-10-10V376.894c0-2.822-1.719-4.304-2.744-4.937
			c-0.85-0.523-3.118-1.598-5.84-0.233c-10.058,5.05-20.897,7.609-32.218,7.609c-19.753,0-38.173-7.843-51.868-22.083
			c-13.689-14.234-20.802-32.966-20.03-52.743c1.43-36.637,31.212-66.931,67.802-68.968c12.553-0.7,25.062,1.874,36.191,7.434
			c2.813,1.404,5.135,0.311,6.001-0.226c1.011-0.625,2.705-2.09,2.705-4.89v-115.1c0-5.522,4.478-10,10-10h115.107
			c2.822,0,4.304-1.719,4.937-2.744c0.524-0.851,1.598-3.122,0.233-5.84c-5.05-10.058-7.609-20.897-7.609-32.218
			c0-19.752,7.842-38.172,22.082-51.866C271.739,6.4,290.455-0.721,310.248,0.058c36.638,1.429,66.933,31.21,68.97,67.8
			c0.699,12.547-1.871,25.063-7.433,36.193c-1.405,2.813-0.311,5.135,0.226,6.002c0.624,1.01,2.09,2.704,4.89,2.704h115.101
			c5.522,0,10,4.478,10,10v115.101c0,8.995-4.556,17.183-12.187,21.9c-7.744,4.788-17.261,5.2-25.458,1.105
			c-8.023-4.009-17.064-5.857-26.142-5.355c-26.404,1.47-47.896,23.336-48.929,49.779c-0.558,14.292,4.578,27.823,14.462,38.1
			c9.889,10.283,23.189,15.946,37.451,15.946c8.177,0,15.998-1.845,23.246-5.483c8.132-4.081,17.593-3.676,25.313,1.086
			c7.666,4.729,12.243,12.938,12.243,21.958v115.107C502.002,497.523,497.524,502.001,492.002,502.001z M307.417,369.245
			c18.701,0,36.301,7.07,49.835,20.088c14.24,13.694,22.082,32.114,22.082,51.866c0,11.32-2.56,22.16-7.608,32.219
			c-1.364,2.718-0.292,4.988,0.232,5.839c0.633,1.025,2.114,2.744,4.937,2.744h105.107V376.894c0-2.822-1.719-4.304-2.744-4.937
			c-0.85-0.524-3.12-1.599-5.838-0.233c-10.06,5.05-20.899,7.609-32.22,7.609c-19.752,0-38.172-7.843-51.867-22.082
			c-13.688-14.234-20.803-32.966-20.03-52.743c1.43-36.638,31.212-66.932,67.802-68.969l0,0c12.555-0.7,25.062,1.874,36.191,7.434
			c2.813,1.404,5.134,0.311,6.002-0.226c1.01-0.624,2.704-2.09,2.704-4.89v-105.1H376.901c-8.995,0-17.183-4.556-21.9-12.187
			c-4.788-7.744-5.201-17.261-1.105-25.458c4.009-8.024,5.86-17.063,5.354-26.144c-1.47-26.404-23.336-47.896-49.78-48.927
			c-14.293-0.563-27.822,4.579-38.099,14.462c-10.282,9.889-15.945,23.189-15.945,37.451c0,8.177,1.845,15.997,5.483,23.245
			c4.082,8.131,3.676,17.595-1.086,25.313c-4.729,7.666-12.938,12.243-21.958,12.243H132.758v105.101
			c0,8.996-4.556,17.183-12.188,21.901c-7.745,4.787-17.262,5.198-25.458,1.104c-8.022-4.009-17.066-5.857-26.141-5.355
			c-26.404,1.47-47.896,23.336-48.929,49.779c-0.559,14.292,4.577,27.822,14.46,38.1c9.89,10.283,23.191,15.946,37.453,15.946
			c8.177,0,15.997-1.845,23.245-5.483c8.131-4.081,17.594-3.675,25.313,1.086c7.666,4.729,12.243,12.938,12.243,21.958v105.107
			h105.101c2.8,0,4.265-1.694,4.89-2.704c0.536-0.867,1.631-3.188,0.226-6.003c-5.561-11.129-8.132-23.645-7.434-36.192
			c2.038-36.59,32.334-66.371,68.971-67.8C305.481,369.264,306.452,369.245,307.417,369.245z"/>
	</g>
	<g>
		<path d="M199.58,169.929h-39.65c-5.522,0-10-4.478-10-10s4.478-10,10-10h39.65c5.522,0,10,4.478,10,10
			S205.102,169.929,199.58,169.929z"/>
	</g>
	<g>
		<path d="M247.904,169.929h-11.151c-5.522,0-10-4.478-10-10s4.478-10,10-10h11.151c5.522,0,10,4.478,10,10
			S253.426,169.929,247.904,169.929z"/>
	</g>
</g>
<g>
</g>
<g>
</g>
<g>
</g>
<g>
</g>
<g>
</g>
<g>
</g>
<g>
</g>
<g>
</g>
<g>
</g>
<g>
</g>
<g>
</g>
<g>
</g>
<g>
</g>
<g>
</g>
<g>
</g>
</svg>
