<?xml version="1.0" encoding="iso-8859-1"?>
<!-- Generator: Adobe Illustrator 19.0.0, SVG Export Plug-In . SVG Version: 6.00 Build 0)  -->
<svg version="1.1" id="Layer_1" xmlns="http://www.w3.org/2000/svg" xmlns:xlink="http://www.w3.org/1999/xlink" x="0px" y="0px"
	 viewBox="0 0 502 502" style="enable-background:new 0 0 502 502;" xml:space="preserve">
<g>
	<polygon style="fill:#F0EFE4;" points="471.841,387.464 471.841,217.959 360.466,217.959 251,114.535 141.534,217.959 
		30.16,217.959 30.16,387.464 	"/>
	<circle style="fill:#F77E65;" cx="251" cy="202.505" r="32.072"/>
	<rect x="208.39" y="288.642" style="fill:#F77E65;" width="85.221" height="98.049"/>
	<rect x="58.567" y="266.649" style="fill:#F77E65;" width="54.981" height="43.068"/>
	<rect x="388.453" y="266.649" style="fill:#F77E65;" width="54.981" height="43.068"/>
	<polygon style="fill:#F77E65;" points="232.556,131.946 103.468,131.946 10,217.959 141.534,217.959 141.534,217.959 	"/>
	<polygon style="fill:#F77E65;" points="269.445,131.946 398.533,131.946 492,217.959 360.466,217.959 360.466,217.959 	"/>
	<g>
		<path d="M251,244.577c23.199,0,42.072-18.874,42.072-42.072S274.2,160.433,251,160.433c-23.199,0-42.072,18.874-42.072,42.072
			S227.802,244.577,251,244.577z M251,180.433c12.171,0,22.072,9.901,22.072,22.072s-9.901,22.072-22.072,22.072
			c-12.171,0-22.072-9.901-22.072-22.072S238.829,180.433,251,180.433z"/>
		<path d="M241.487,214.082c1.887,1.62,4.203,2.413,6.509,2.413c2.815,0,5.615-1.183,7.592-3.486l3-3.495
			c1.672-1.948,2.452-4.355,2.398-6.735c0.003-0.092,0.014-4.687,0.014-4.779v-4c0-5.523-4.478-10-10-10c-5.523,0-10,4.477-10,10
			v5.297l-0.587,0.684C236.815,204.172,237.296,210.485,241.487,214.082z"/>
		<path d="M261,316.999c0-5.523-4.478-10-10-10c-5.523,0-10,4.477-10,10v1c0,5.523,4.477,10,10,10c5.522,0,10-4.477,10-10V316.999z"
			/>
		<path d="M58.567,319.718h54.981c5.523,0,10-4.477,10-10v-43.069c0-5.523-4.477-10-10-10H58.567c-5.523,0-10,4.477-10,10v43.068
			C48.567,315.241,53.044,319.718,58.567,319.718z M68.567,276.649h34.981v23.068H68.567V276.649z"/>
		<path d="M388.452,319.718h54.981c5.522,0,10-4.477,10-10v-43.069c0-5.523-4.478-10-10-10h-54.981c-5.522,0-10,4.477-10,10v43.068
			C378.452,315.241,382.93,319.718,388.452,319.718z M398.452,276.649h34.981v23.068h-34.981V276.649z"/>
		<path d="M471.84,397.464c5.522,0,10-4.477,10-10V227.959H492c4.12,0,7.818-2.527,9.316-6.366
			c1.497-3.838,0.487-8.203-2.545-10.993l-93.468-86.013c-1.846-1.699-4.263-2.642-6.771-2.642H273.405l-15.537-14.68
			c-3.853-3.641-9.88-3.642-13.735,0l-15.537,14.68H103.468c-2.509,0-4.926,0.943-6.771,2.642L3.229,210.601
			c-3.032,2.79-4.042,7.154-2.545,10.993c1.498,3.838,5.196,6.366,9.316,6.366h10.16v159.505c0,5.523,4.477,10,10,10h441.68V397.464
			z M394.631,141.946l71.734,66.013H364.444l-69.857-66.013H394.631z M107.369,141.946h100.045l-69.857,66.013H35.635
			L107.369,141.946z M131.534,377.464H40.16V227.959h91.374V377.464z M151.535,222.269L251,128.292l99.466,93.976v155.195h-46.855
			v-88.822c0-5.523-4.478-10-10-10H208.39c-5.523,0-10,4.477-10,10v88.822h-46.855V222.269z M251,334.999c-5.523,0-10,4.477-10,10
			v31.692h-22.61v-78.05h65.221v78.05H261v-31.692C261,339.477,256.523,334.999,251,334.999z M461.84,377.464h-91.374V227.959
			h91.374V377.464z"/>
		<path d="M111.168,153.697l-2,1.871c-4.033,3.773-4.244,10.102-0.47,14.135c1.969,2.104,4.633,3.168,7.304,3.168
			c2.448,0,4.901-0.894,6.83-2.698l2-1.871c4.033-3.773,4.244-10.102,0.47-14.135C121.53,150.134,115.201,149.924,111.168,153.697z"
			/>
		<path d="M88.169,175.212l-8,7.484c-4.033,3.773-4.244,10.101-0.471,14.134c1.969,2.105,4.633,3.168,7.305,3.168
			c2.448,0,4.901-0.893,6.83-2.697l8-7.484c4.033-3.773,4.244-10.101,0.471-14.134C98.531,171.649,92.201,171.439,88.169,175.212z"
			/>
	</g>
</g>
<g>
</g>
<g>
</g>
<g>
</g>
<g>
</g>
<g>
</g>
<g>
</g>
<g>
</g>
<g>
</g>
<g>
</g>
<g>
</g>
<g>
</g>
<g>
</g>
<g>
</g>
<g>
</g>
<g>
</g>
</svg>
