<?xml version="1.0" encoding="iso-8859-1"?>
<!-- Generator: Adobe Illustrator 19.0.0, SVG Export Plug-In . SVG Version: 6.00 Build 0)  -->
<svg version="1.1" id="Layer_1" xmlns="http://www.w3.org/2000/svg" xmlns:xlink="http://www.w3.org/1999/xlink" x="0px" y="0px"
	 viewBox="0 0 502.173 502.173" style="enable-background:new 0 0 502.173 502.173;" xml:space="preserve">
<g>
	<g>
		<path style="fill:#F77E65;" d="M286.613,57.471C223.023-6.118,119.741-5.822,56.521,58.359
			c-62.385,63.334-61.787,166.098,1.297,228.736c57.079,56.676,145.822,62.146,209.025,16.431l183.805,183.805
			c6.471,6.471,16.963,6.471,23.434,0l13.181-13.181c6.471-6.471,6.471-16.963,0-23.434L303.458,266.912
			C349.284,203.555,343.675,114.534,286.613,57.471z"/>
		<path d="M462.365,502.173c-6.804,0-13.608-2.59-18.788-7.77L265.644,316.471c-31.335,20.343-68.764,29.972-106.343,27.21
			c-40.873-3.007-79.416-20.582-108.528-49.489c-67.066-66.593-67.683-175.534-1.375-242.85
			C81.837,18.409,125.149,0.176,171.355,0.001c0.223,0,0.446-0.001,0.668-0.001c45.961,0,89.144,17.884,121.661,50.4l0,0l0,0
			c29.099,29.1,46.823,67.696,49.907,108.681c2.834,37.677-6.79,75.211-27.189,106.632l177.934,177.933
			c10.359,10.36,10.359,27.216,0,37.576l-13.182,13.182C475.973,499.583,469.169,502.173,462.365,502.173z M266.84,293.527
			c2.577,0,5.138,0.992,7.074,2.929l183.805,183.805c2.562,2.561,6.729,2.563,9.292,0l13.182-13.182
			c2.562-2.562,2.562-6.729,0-9.291L296.387,273.983c-3.473-3.473-3.91-8.953-1.032-12.932
			c43.945-60.758,37.294-143.401-15.814-196.509l0,0C250.806,35.807,212.638,20,172.021,20c-0.199,0-0.392,0.001-0.591,0.001
			C130.595,20.155,92.316,36.27,63.646,65.377C5.046,124.867,5.592,221.146,64.864,280c53.1,52.725,135.58,59.213,196.118,15.425
			C262.742,294.151,264.796,293.527,266.84,293.527z"/>
	</g>
	<g>
		<circle style="fill:#F0EFE4;" cx="172.008" cy="172.076" r="113.923"/>
		<path d="M172.007,296c-33.101,0-64.221-12.891-87.627-36.297s-36.296-54.525-36.296-87.627c0-33.101,12.89-64.221,36.296-87.627
			c48.318-48.316,126.936-48.316,175.253,0c48.318,48.318,48.318,126.937,0.001,175.254l0,0l0,0
			C236.229,283.109,205.109,296,172.007,296z M172.007,68.202c-26.616,0-53.222,10.127-73.484,30.39
			c-19.629,19.629-30.438,45.726-30.438,73.484s10.81,53.856,30.438,73.484c19.628,19.629,45.726,30.44,73.484,30.44
			c27.759,0,53.856-10.811,73.485-30.439l0,0c40.519-40.519,40.519-106.449-0.001-146.969
			C225.234,78.335,198.617,68.202,172.007,68.202z"/>
	</g>
	<g>
		<path d="M119.952,234.132c-2.559,0-5.119-0.977-7.071-2.929c-21.708-21.708-29.77-53.493-21.04-82.952
			c1.569-5.295,7.135-8.315,12.429-6.746c5.295,1.569,8.316,7.134,6.747,12.43c-6.645,22.42-0.511,46.609,16.006,63.126
			c3.905,3.905,3.905,10.237,0,14.143C125.07,233.155,122.511,234.132,119.952,234.132z"/>
	</g>
	<g>
		<path d="M119.952,130.021c-2.559,0-5.119-0.977-7.071-2.929c-3.905-3.905-3.905-10.237,0-14.143
			c8.221-8.221,17.84-14.524,28.588-18.735c5.142-2.012,10.944,0.521,12.958,5.664s-0.521,10.944-5.664,12.959
			c-8.166,3.198-15.481,7.995-21.741,14.255C125.07,129.044,122.511,130.021,119.952,130.021z"/>
	</g>
</g>
<g>
</g>
<g>
</g>
<g>
</g>
<g>
</g>
<g>
</g>
<g>
</g>
<g>
</g>
<g>
</g>
<g>
</g>
<g>
</g>
<g>
</g>
<g>
</g>
<g>
</g>
<g>
</g>
<g>
</g>
</svg>
