<?xml version="1.0" encoding="iso-8859-1"?>
<!-- Generator: Adobe Illustrator 19.0.0, SVG Export Plug-In . SVG Version: 6.00 Build 0)  -->
<svg version="1.1" id="Layer_1" xmlns="http://www.w3.org/2000/svg" xmlns:xlink="http://www.w3.org/1999/xlink" x="0px" y="0px"
	 viewBox="0 0 502 502" style="enable-background:new 0 0 502 502;" xml:space="preserve">
<g>
	<path style="fill:#F77E65;" d="M10,90.662V411.34h482L10,90.662z M72,206.001l221,147.033H72V206.001z"/>
	<g>
		<path d="M72,363.034h221c4.408,0,8.297-2.887,9.572-7.106s-0.362-8.777-4.033-11.22l-221-147.033
			c-3.069-2.04-7.012-2.23-10.262-0.488c-3.249,1.741-5.277,5.128-5.277,8.814v147.033C62,358.556,66.478,363.034,72,363.034z
			 M82,224.665l177.916,118.369H82V224.665z"/>
		<path d="M497.539,403.013l-482-320.678c-3.069-2.042-7.012-2.23-10.262-0.488C2.028,83.589,0,86.975,0,90.662V411.34
			c0,5.522,4.478,10,10,10h482c4.408,0,8.297-2.887,9.572-7.106S501.21,405.456,497.539,403.013z M411,401.34v-12.339
			c0-5.522-4.478-10-10-10s-10,4.478-10,10v12.339h-28.857v-12.339c0-5.522-4.478-10-10-10s-10,4.478-10,10v12.339h-28.856v-12.339
			c0-5.522-4.478-10-10-10s-10,4.478-10,10v12.339H264.43v-12.339c0-5.522-4.478-10-10-10s-10,4.478-10,10v12.339h-28.857v-12.339
			c0-5.522-4.478-10-10-10s-10,4.478-10,10v12.339h-28.857v-12.339c0-5.522-4.478-10-10-10s-10,4.478-10,10v12.339H117.86v-12.339
			c0-5.522-4.478-10-10-10s-10,4.478-10,10v12.339H69v-12.339c0-5.522-4.478-10-10-10s-10,4.478-10,10v12.339H20V109.326
			L458.916,401.34H411z"/>
		<path d="M71.473,177.223l180.998,120.109c1.701,1.129,3.621,1.669,5.521,1.669c3.238,0,6.416-1.571,8.341-4.472
			c3.054-4.602,1.799-10.808-2.803-13.861L82.531,160.559c-4.602-3.054-10.808-1.8-13.861,2.803
			C65.616,167.964,66.871,174.17,71.473,177.223z"/>
		<path d="M35.471,153.333l10.004,6.639c1.701,1.129,3.621,1.669,5.521,1.669c3.238,0,6.416-1.571,8.341-4.472
			c3.054-4.602,1.799-10.808-2.803-13.861l-10.004-6.639c-4.602-3.053-10.808-1.799-13.861,2.803S30.869,150.279,35.471,153.333z"/>
	</g>
</g>
<g>
</g>
<g>
</g>
<g>
</g>
<g>
</g>
<g>
</g>
<g>
</g>
<g>
</g>
<g>
</g>
<g>
</g>
<g>
</g>
<g>
</g>
<g>
</g>
<g>
</g>
<g>
</g>
<g>
</g>
</svg>
