<?xml version="1.0" encoding="iso-8859-1"?>
<!-- Generator: Adobe Illustrator 19.0.0, SVG Export Plug-In . SVG Version: 6.00 Build 0)  -->
<svg version="1.1" id="Layer_1" xmlns="http://www.w3.org/2000/svg" xmlns:xlink="http://www.w3.org/1999/xlink" x="0px" y="0px"
	 viewBox="0 0 502 502" style="enable-background:new 0 0 502 502;" xml:space="preserve">
<g>
	<path style="fill:#F77E65;" d="M371.246,251c0-98.635,23.851-178.594,53.274-178.594V10H77.48v62.406
		c29.422,0,53.274,79.959,53.274,178.594S106.902,429.594,77.48,429.594V492h347.04v-62.406
		C395.098,429.594,371.246,349.635,371.246,251z"/>
	<rect x="170.836" y="88.642" style="fill:#F0EFE4;" width="83.208" height="324.716"/>
	<circle style="fill:#F77E65;" cx="211.933" cy="251" r="14.714"/>
	<g>
		<path d="M424.52,82.406c5.523,0,10-4.478,10-10V10c0-5.522-4.477-10-10-10H77.48c-5.523,0-10,4.478-10,10v62.406
			c0,5.522,4.477,10,10,10c7.274,0,18.78,13.966,28.087,45.167c9.793,32.83,15.187,76.664,15.187,123.427
			s-5.393,90.597-15.187,123.427c-9.307,31.201-20.813,45.167-28.087,45.167c-5.523,0-10,4.478-10,10V492c0,5.522,4.477,10,10,10
			h347.04c5.523,0,10-4.478,10-10v-62.406c0-5.522-4.477-10-10-10c-7.274,0-18.78-13.966-28.087-45.167
			c-9.793-32.83-15.187-76.664-15.187-123.427s5.393-90.597,15.187-123.427C405.74,96.372,417.246,82.406,424.52,82.406z
			 M414.52,437.661V482H87.48v-44.339c35.023-13.915,53.274-100.772,53.274-186.661S122.503,78.254,87.48,64.339V20h327.04v44.339
			C379.497,78.254,361.246,165.111,361.246,251S379.497,423.746,414.52,437.661z"/>
		<path d="M331.164,423.357c5.523,0,10-4.478,10-10V88.643c0-5.522-4.477-10-10-10H170.836c-5.523,0-10,4.478-10,10v324.715
			c0,5.522,4.477,10,10,10h160.328V423.357z M180.836,403.357V98.643h63.208v304.715h-63.208V403.357z M321.164,403.357h-57.12
			V98.643h57.12V403.357z"/>
		<path d="M211.933,226.286c-13.627,0-24.714,11.087-24.714,24.714c0,13.627,11.086,24.714,24.714,24.714
			s24.714-11.087,24.714-24.714S225.56,226.286,211.933,226.286z M211.933,255.714c-2.599,0-4.714-2.114-4.714-4.714
			s2.115-4.714,4.714-4.714s4.714,2.114,4.714,4.714S214.532,255.714,211.933,255.714z"/>
		<path d="M300.722,391.901c5.523,0,10-4.478,10-10v-87.268c0-5.522-4.477-10-10-10s-10,4.478-10,10v87.268
			C290.722,387.424,295.199,391.901,300.722,391.901z"/>
		<path d="M300.722,272.162c5.523,0,10-4.478,10-10v-15.221c0-5.522-4.477-10-10-10s-10,4.478-10,10v15.221
			C290.722,267.685,295.199,272.162,300.722,272.162z"/>
	</g>
</g>
<g>
</g>
<g>
</g>
<g>
</g>
<g>
</g>
<g>
</g>
<g>
</g>
<g>
</g>
<g>
</g>
<g>
</g>
<g>
</g>
<g>
</g>
<g>
</g>
<g>
</g>
<g>
</g>
<g>
</g>
</svg>
