<?xml version="1.0" encoding="iso-8859-1"?>
<!-- Generator: Adobe Illustrator 19.0.0, SVG Export Plug-In . SVG Version: 6.00 Build 0)  -->
<svg version="1.1" id="Layer_1" xmlns="http://www.w3.org/2000/svg" xmlns:xlink="http://www.w3.org/1999/xlink" x="0px" y="0px"
	 viewBox="0 0 502 502" style="enable-background:new 0 0 502 502;" xml:space="preserve">
<g>
	<path style="fill:#F77E65;" d="M245.163,283.063l-26.227-26.227l67.803-67.803c-37.61-26.991-86.571-26.884-116.053,2.598
		c-3.262,3.262-6.158,6.766-8.704,10.463c9.503,22.374,5.147,49.233-13.097,67.477c-23.992,23.992-62.891,23.992-86.883,0
		c-1.926-1.926-3.681-3.958-5.298-6.061c-6.023,3.83-11.686,8.341-16.89,13.545C-0.549,317.42,0.611,385.341,40.012,435.761
		l87.904-87.904l26.226,26.226l-87.904,87.904c50.42,39.401,118.341,40.561,158.705,0.197c5.204-5.204,9.715-10.867,13.545-16.89
		c-2.103-1.617-4.135-3.371-6.061-5.298c-23.992-23.992-23.992-62.891,0-86.883c18.244-18.244,45.103-22.599,67.478-13.097
		c3.697-2.546,7.201-5.442,10.462-8.704c29.482-29.482,29.59-78.443,2.598-116.053L245.163,283.063z"/>
	<polygon style="fill:#F0EFE4;" points="392.493,83.279 286.739,189.034 218.936,256.836 245.163,283.063 312.965,215.26 
		418.72,109.506 	"/>
	
		<rect x="405.981" y="19.107" transform="matrix(-0.7071 -0.7071 0.7071 -0.7071 701.5347 419.3414)" style="fill:#F77E65;" width="63.27" height="90.542"/>
	<path style="fill:#F0EFE4;" d="M127.915,347.857l-87.904,87.904c3.759,4.81,7.858,9.464,12.31,13.917s9.107,8.551,13.917,12.31
		l87.904-87.904L127.915,347.857z"/>
	<g>
		<path d="M499.071,47.668l-44.74-44.74c-3.906-3.904-10.236-3.904-14.143,0l-64.023,64.023c-3.905,3.905-3.905,10.237,0,14.143
			l2.185,2.185l-92.905,92.905c-41.084-25.33-91.173-22.281-121.831,8.376c-3.623,3.624-6.943,7.614-9.868,11.861
			c-1.94,2.818-2.306,6.432-0.968,9.581c8.245,19.415,3.941,41.592-10.964,56.497c-9.715,9.715-22.632,15.065-36.371,15.065
			c-13.738,0-26.655-5.351-36.37-15.065c-1.524-1.524-3.02-3.235-4.442-5.086c-3.157-4.104-8.924-5.119-13.293-2.342
			c-6.709,4.268-12.965,9.284-18.595,14.912C11.438,291.291-0.19,320.666,0.002,352.698c0.187,31.26,11.598,62.946,32.13,89.221
			c0.001,0.001,0.002,0.002,0.003,0.003c4.062,5.198,8.475,10.186,13.116,14.827s9.63,9.053,14.827,13.116
			c0.001,0.001,0.002,0.002,0.003,0.002c26.274,20.532,57.96,31.943,89.221,32.13c0.26,0.002,0.52,0.003,0.779,0.003
			c31.729,0,60.8-11.611,81.934-32.745c5.628-5.629,10.645-11.885,14.912-18.594c2.778-4.369,1.763-10.136-2.342-13.293
			c-1.851-1.423-3.562-2.918-5.086-4.442c-9.715-9.715-15.065-22.632-15.065-36.37c0-13.739,5.351-26.656,15.065-36.371
			c14.905-14.904,37.081-19.207,56.497-10.964c3.149,1.337,6.761,0.973,9.579-0.967c4.245-2.922,8.236-6.242,11.863-9.869
			c30.656-30.657,33.706-80.747,8.376-121.831l92.905-92.905l2.185,2.185c1.953,1.952,4.512,2.929,7.071,2.929
			s5.118-0.977,7.071-2.929l64.023-64.023C502.976,57.905,502.976,51.573,499.071,47.668z M127.915,362l12.084,12.084
			l-74.382,74.381c-2.14-1.896-4.22-3.853-6.225-5.858c-2.006-2.005-3.963-4.085-5.858-6.225L127.915,362z M303.295,324.242
			c-1.576,1.576-3.243,3.077-4.985,4.49c-25.568-8.497-53.649-1.995-72.954,17.31c-13.492,13.492-20.923,31.432-20.923,50.514
			c0,18.986,7.356,36.842,20.723,50.312c-2.255,2.895-4.69,5.652-7.284,8.246c-33.737,33.737-90.654,35.531-136.238,5.621
			l79.579-79.579c1.875-1.876,2.929-4.419,2.929-7.071s-1.054-5.195-2.929-7.071l-6.042-6.042l29.954-29.954
			c3.905-3.905,3.905-10.237,0-14.143c-3.906-3.904-10.236-3.904-14.143,0l-29.954,29.954l-6.042-6.042
			c-1.876-1.875-4.419-2.929-7.071-2.929s-5.195,1.054-7.071,2.929l-79.579,79.579c-29.911-45.582-28.116-102.501,5.62-136.238
			c2.595-2.594,5.353-5.028,8.247-7.284c13.47,13.366,31.325,20.723,50.312,20.723c19.082,0,37.021-7.431,50.514-20.923
			c19.305-19.305,25.806-47.388,17.31-72.953c1.414-1.744,2.915-3.411,4.49-4.986c23.055-23.055,60.736-25.793,93.083-7.914
			l-58.976,58.976c-3.905,3.905-3.905,10.237,0,14.143l26.227,26.227c1.953,1.952,4.512,2.929,7.071,2.929s5.118-0.977,7.071-2.929
			l58.976-58.976C329.087,263.506,326.35,301.188,303.295,324.242z M245.163,268.92l-12.084-12.084L392.493,97.422l12.084,12.084
			L245.163,268.92z M397.379,74.023l49.881-49.881l30.597,30.597l-49.881,49.881L397.379,74.023z"/>
		<path d="M203.38,284.476l-9.257,9.257c-3.905,3.905-3.905,10.237,0,14.143c1.953,1.952,4.512,2.929,7.071,2.929
			s5.118-0.977,7.071-2.929l9.257-9.257c3.905-3.905,3.905-10.237,0-14.143C213.617,280.572,207.287,280.572,203.38,284.476z"/>
	</g>
</g>
<g>
</g>
<g>
</g>
<g>
</g>
<g>
</g>
<g>
</g>
<g>
</g>
<g>
</g>
<g>
</g>
<g>
</g>
<g>
</g>
<g>
</g>
<g>
</g>
<g>
</g>
<g>
</g>
<g>
</g>
</svg>
